DINish-Regular.ufo
<glyph name="exclam" format="2">
  <advance width="244"/>
  <unicode hex="0021"/>
  <outline>
    <contour>
      <point x="94" y="201" type="line"/>
      <point x="152" y="201" type="line"/>
      <point x="166" y="707" type="line"/>
      <point x="80" y="707" type="line"/>
    </contour>
    <contour>
      <point x="77" y="0" type="line"/>
      <point x="168" y="0" type="line"/>
      <point x="168" y="95" type="line"/>
      <point x="77" y="95" type="line"/>
    </contour>
  </outline>
</glyph>
<glyph name="dollar" format="2">
  <advance width="467"/>
  <unicode hex="0024"/>
  <outline>
    <contour>
      <point x="198" y="-60" type="line"/>
      <point x="257" y="-60" type="line"/>
      <point x="257" y="30" type="line"/>
      <point x="359" y="40"/>
      <point x="421" y="105"/>
      <point x="421" y="211" type="curve" smooth="yes"/>
      <point x="421" y="313"/>
      <point x="370" y="366"/>
      <point x="274" y="384" type="curve" smooth="yes"/>
      <point x="148" y="407"/>
      <point x="117" y="445"/>
      <point x="117" y="503" type="curve" smooth="yes"/>
      <point x="117" y="561"/>
      <point x="122" y="610"/>
      <point x="224" y="612" type="curve" smooth="yes"/>
      <point x="305" y="611"/>
      <point x="335" y="569"/>
      <point x="341" y="499" type="curve"/>
      <point x="412" y="499" type="line"/>
      <point x="402" y="609"/>
      <point x="345" y="666"/>
      <point x="257" y="676" type="curve"/>
      <point x="257" y="759" type="line"/>
      <point x="198" y="759" type="line"/>
      <point x="198" y="675" type="line"/>
      <point x="106" y="665"/>
      <point x="45" y="600"/>
      <point x="45" y="498" type="curve" smooth="yes"/>
      <point x="45" y="400"/>
      <point x="94" y="349"/>
      <point x="190" y="331" type="curve" smooth="yes"/>
      <point x="330" y="301"/>
      <point x="349" y="272"/>
      <point x="349" y="206" type="curve" smooth="yes"/>
      <point x="349" y="119"/>
      <point x="300" y="89"/>
      <point x="224" y="89" type="curve" smooth="yes"/>
      <point x="148" y="89"/>
      <point x="110" y="142"/>
      <point x="104" y="214" type="curve"/>
      <point x="34" y="214" type="line"/>
      <point x="42" y="104"/>
      <point x="100" y="39"/>
      <point x="198" y="29" type="curve"/>
    </contour>
  </outline>
</glyph>
<glyph name="ampersand" format="2">
  <advance width="611"/>
  <unicode hex="0026"/>
  <outline>
    <contour>
      <point x="231" y="-10" type="curve" smooth="yes"/>
      <point x="299" y="-10"/>
      <point x="354" y="20"/>
      <point x="408" y="88" type="curve"/>
      <point x="463" y="4"/>
      <point x="480" y="0"/>
      <point x="516" y="0" type="curve" smooth="yes"/>
      <point x="551" y="0" type="line"/>
      <point x="551" y="67" type="line"/>
      <point x="527" y="67" type="line" smooth="yes"/>
      <point x="513" y="67"/>
      <point x="499" y="76"/>
      <point x="486" y="94" type="curve" smooth="yes"/>
      <point x="451" y="145" type="line"/>
      <point x="534" y="257" type="line"/>
      <point x="485" y="299" type="line"/>
      <point x="412" y="201" type="line"/>
      <point x="285" y="382" type="line"/>
      <point x="375" y="462"/>
      <point x="404" y="507"/>
      <point x="404" y="571" type="curve" smooth="yes"/>
      <point x="404" y="655"/>
      <point x="344" y="717"/>
      <point x="258" y="717" type="curve" smooth="yes"/>
      <point x="172" y="717"/>
      <point x="110" y="655"/>
      <point x="110" y="569" type="curve" smooth="yes"/>
      <point x="110" y="523"/>
      <point x="128" y="491"/>
      <point x="196" y="391" type="curve"/>
      <point x="104" y="307"/>
      <point x="60" y="243"/>
      <point x="60" y="167" type="curve" smooth="yes"/>
      <point x="60" y="61"/>
      <point x="123" y="-10"/>
    </contour>
    <contour>
      <point x="130" y="170" type="curve" smooth="yes"/>
      <point x="130" y="224"/>
      <point x="161" y="274"/>
      <point x="233" y="338" type="curve"/>
      <point x="369" y="143" type="line"/>
      <point x="319" y="77"/>
      <point x="284" y="54"/>
      <point x="236" y="54" type="curve" smooth="yes"/>
      <point x="170" y="54"/>
      <point x="130" y="100"/>
    </contour>
    <contour>
      <point x="247" y="436" type="curve"/>
      <point x="191" y="516"/>
      <point x="179" y="539"/>
      <point x="179" y="571" type="curve" smooth="yes"/>
      <point x="179" y="621"/>
      <point x="212" y="655"/>
      <point x="258" y="655" type="curve" smooth="yes"/>
      <point x="304" y="655"/>
      <point x="336" y="622"/>
      <point x="336" y="572" type="curve" smooth="yes"/>
      <point x="336" y="528"/>
      <point x="319" y="500"/>
    </contour>
  </outline>
</glyph>
<glyph name="parenleft" format="2">
  <advance width="294"/>
  <unicode hex="0028"/>
  <outline>
    <contour>
      <point x="181" y="-86" type="curve"/>
      <point x="234" y="-86" type="line"/>
      <point x="166" y="46"/>
      <point x="131" y="192"/>
      <point x="131" y="336" type="curve" smooth="yes"/>
      <point x="131" y="478"/>
      <point x="166" y="624"/>
      <point x="234" y="758" type="curve"/>
      <point x="182" y="758" type="line"/>
      <point x="101" y="626"/>
      <point x="60" y="485"/>
      <point x="60" y="336" type="curve" smooth="yes"/>
      <point x="60" y="189"/>
      <point x="100" y="48"/>
    </contour>
  </outline>
</glyph>
<glyph name="parenright" format="2">
  <advance width="294"/>
  <unicode hex="0029"/>
  <outline>
    <contour>
      <point x="60" y="-86" type="curve"/>
      <point x="114" y="-86" type="line"/>
      <point x="195" y="48"/>
      <point x="234" y="189"/>
      <point x="234" y="336" type="curve" smooth="yes"/>
      <point x="234" y="486"/>
      <point x="194" y="627"/>
      <point x="113" y="758" type="curve"/>
      <point x="60" y="758" type="line"/>
      <point x="128" y="624"/>
      <point x="165" y="478"/>
      <point x="165" y="336" type="curve" smooth="yes"/>
      <point x="165" y="194"/>
      <point x="128" y="46"/>
    </contour>
  </outline>
</glyph>
<glyph name="zero" format="2">
  <advance width="504"/>
  <unicode hex="0030"/>
  <outline>
    <contour>
      <point x="252" y="-10" type="curve" smooth="yes"/>
      <point x="376" y="-10"/>
      <point x="437" y="65"/>
      <point x="437" y="216" type="curve" smooth="yes"/>
      <point x="437" y="495" type="line" smooth="yes"/>
      <point x="437" y="643"/>
      <point x="376" y="717"/>
      <point x="252" y="717" type="curve" smooth="yes"/>
      <point x="129" y="717"/>
      <point x="68" y="643"/>
      <point x="68" y="495" type="curve" smooth="yes"/>
      <point x="68" y="216" type="line" smooth="yes"/>
      <point x="68" y="65"/>
      <point x="129" y="-10"/>
    </contour>
    <contour>
      <point x="167" y="97" type="curve" smooth="yes"/>
      <point x="150" y="124"/>
      <point x="142" y="168"/>
      <point x="142" y="230" type="curve" smooth="yes"/>
      <point x="142" y="476" type="line" smooth="yes"/>
      <point x="142" y="538"/>
      <point x="150" y="582"/>
      <point x="167" y="609" type="curve" smooth="yes"/>
      <point x="184" y="636"/>
      <point x="212" y="649"/>
      <point x="252" y="649" type="curve" smooth="yes"/>
      <point x="292" y="649"/>
      <point x="320" y="636"/>
      <point x="337" y="609" type="curve" smooth="yes"/>
      <point x="354" y="582"/>
      <point x="362" y="538"/>
      <point x="362" y="476" type="curve" smooth="yes"/>
      <point x="362" y="230" type="line" smooth="yes"/>
      <point x="362" y="168"/>
      <point x="354" y="124"/>
      <point x="337" y="97" type="curve" smooth="yes"/>
      <point x="320" y="70"/>
      <point x="292" y="57"/>
      <point x="252" y="57" type="curve" smooth="yes"/>
      <point x="212" y="57"/>
      <point x="184" y="70"/>
    </contour>
  </outline>
</glyph>
<glyph name="two" format="2">
  <advance width="479"/>
  <unicode hex="0032"/>
  <outline>
    <contour>
      <point x="60" y="0" type="line"/>
      <point x="419" y="0" type="line"/>
      <point x="419" y="67" type="line"/>
      <point x="153" y="67" type="line"/>
      <point x="357" y="361" type="line" smooth="yes"/>
      <point x="377" y="389"/>
      <point x="393" y="416"/>
      <point x="403" y="442" type="curve" smooth="yes"/>
      <point x="413" y="468"/>
      <point x="419" y="495"/>
      <point x="419" y="524" type="curve" smooth="yes"/>
      <point x="419" y="542" type="line" smooth="yes"/>
      <point x="419" y="575"/>
      <point x="412" y="604"/>
      <point x="397" y="631" type="curve" smooth="yes"/>
      <point x="382" y="658"/>
      <point x="361" y="679"/>
      <point x="334" y="694" type="curve" smooth="yes"/>
      <point x="307" y="709"/>
      <point x="275" y="717"/>
      <point x="240" y="717" type="curve" smooth="yes"/>
      <point x="185" y="717"/>
      <point x="141" y="700"/>
      <point x="109" y="668" type="curve" smooth="yes"/>
      <point x="77" y="636"/>
      <point x="60" y="593"/>
      <point x="60" y="540" type="curve" smooth="yes"/>
      <point x="60" y="517" type="line"/>
      <point x="134" y="517" type="line"/>
      <point x="134" y="536" type="line" smooth="yes"/>
      <point x="134" y="574"/>
      <point x="144" y="602"/>
      <point x="162" y="621" type="curve" smooth="yes"/>
      <point x="180" y="640"/>
      <point x="206" y="650"/>
      <point x="238" y="650" type="curve" smooth="yes"/>
      <point x="270" y="650"/>
      <point x="295" y="641"/>
      <point x="314" y="621" type="curve" smooth="yes"/>
      <point x="333" y="601"/>
      <point x="343" y="574"/>
      <point x="343" y="540" type="curve" smooth="yes"/>
      <point x="343" y="524" type="line" smooth="yes"/>
      <point x="343" y="486"/>
      <point x="328" y="444"/>
      <point x="298" y="400" type="curve" smooth="yes"/>
      <point x="60" y="60" type="line"/>
    </contour>
  </outline>
</glyph>
<glyph name="three" format="2">
  <advance width="506"/>
  <unicode hex="0033"/>
  <outline>
    <contour>
      <point x="248" y="-10" type="curve" smooth="yes"/>
      <point x="362" y="-10"/>
      <point x="439" y="65"/>
      <point x="439" y="183" type="curve" smooth="yes"/>
      <point x="439" y="208" type="line" smooth="yes"/>
      <point x="439" y="288"/>
      <point x="404" y="350"/>
      <point x="338" y="374" type="curve"/>
      <point x="392" y="398"/>
      <point x="427" y="451"/>
      <point x="427" y="519" type="curve" smooth="yes"/>
      <point x="427" y="542" type="line" smooth="yes"/>
      <point x="427" y="648"/>
      <point x="359" y="717"/>
      <point x="249" y="717" type="curve" smooth="yes"/>
      <point x="139" y="717"/>
      <point x="71" y="651"/>
      <point x="71" y="547" type="curve" smooth="yes"/>
      <point x="71" y="528" type="line"/>
      <point x="142" y="528" type="line"/>
      <point x="142" y="545" type="line" smooth="yes"/>
      <point x="142" y="609"/>
      <point x="181" y="650"/>
      <point x="247" y="650" type="curve" smooth="yes"/>
      <point x="313" y="650"/>
      <point x="353" y="606"/>
      <point x="353" y="538" type="curve" smooth="yes"/>
      <point x="353" y="517" type="line" smooth="yes"/>
      <point x="353" y="447"/>
      <point x="311" y="400"/>
      <point x="243" y="400" type="curve" smooth="yes"/>
      <point x="207" y="400" type="line"/>
      <point x="207" y="333" type="line"/>
      <point x="244" y="333" type="line" smooth="yes"/>
      <point x="320" y="333"/>
      <point x="365" y="284"/>
      <point x="365" y="206" type="curve" smooth="yes"/>
      <point x="365" y="179" type="line" smooth="yes"/>
      <point x="365" y="103"/>
      <point x="321" y="56"/>
      <point x="249" y="56" type="curve" smooth="yes"/>
      <point x="181" y="56"/>
      <point x="137" y="96"/>
      <point x="137" y="162" type="curve" smooth="yes"/>
      <point x="137" y="175" type="line"/>
      <point x="62" y="175" type="line"/>
      <point x="62" y="159" type="line" smooth="yes"/>
      <point x="62" y="55"/>
      <point x="134" y="-10"/>
    </contour>
  </outline>
</glyph>
<glyph name="five" format="2">
  <advance width="495"/>
  <unicode hex="0035"/>
  <outline>
    <contour>
      <point x="247" y="-10" type="curve" smooth="yes"/>
      <point x="361" y="-10"/>
      <point x="428" y="62"/>
      <point x="428" y="184" type="curve" smooth="yes"/>
      <point x="428" y="261" type="line" smooth="yes"/>
      <point x="428" y="387"/>
      <point x="371" y="459"/>
      <point x="257" y="459" type="curve" smooth="yes"/>
      <point x="211" y="459"/>
      <point x="171" y="441"/>
      <point x="147" y="413" type="curve"/>
      <point x="147" y="638" type="line"/>
      <point x="417" y="638" type="line"/>
      <point x="417" y="707" type="line"/>
      <point x="79" y="707" type="line"/>
      <point x="79" y="319" type="line"/>
      <point x="144" y="319" type="line"/>
      <point x="160" y="365"/>
      <point x="197" y="391"/>
      <point x="247" y="391" type="curve" smooth="yes"/>
      <point x="319" y="391"/>
      <point x="353" y="347"/>
      <point x="353" y="257" type="curve" smooth="yes"/>
      <point x="353" y="190" type="line" smooth="yes"/>
      <point x="353" y="101"/>
      <point x="318" y="57"/>
      <point x="246" y="57" type="curve" smooth="yes"/>
      <point x="178" y="57"/>
      <point x="139" y="94"/>
      <point x="139" y="160" type="curve" smooth="yes"/>
      <point x="139" y="167" type="line"/>
      <point x="68" y="167" type="line"/>
      <point x="68" y="154" type="line" smooth="yes"/>
      <point x="68" y="52"/>
      <point x="135" y="-10"/>
    </contour>
  </outline>
</glyph>
<glyph name="six" format="2">
  <advance width="505"/>
  <unicode hex="0036"/>
  <outline>
    <contour>
      <point x="253" y="-10" type="curve" smooth="yes"/>
      <point x="364" y="-10"/>
      <point x="445" y="64"/>
      <point x="445" y="190" type="curve" smooth="yes"/>
      <point x="445" y="225" type="line" smooth="yes"/>
      <point x="445" y="284"/>
      <point x="429" y="331"/>
      <point x="397" y="366" type="curve" smooth="yes"/>
      <point x="365" y="401"/>
      <point x="322" y="418"/>
      <point x="269" y="418" type="curve" smooth="yes"/>
      <point x="239" y="418"/>
      <point x="209" y="408"/>
      <point x="193" y="396" type="curve"/>
      <point x="345" y="707" type="line"/>
      <point x="267" y="707" type="line"/>
      <point x="102" y="374" type="line" smooth="yes"/>
      <point x="88" y="347"/>
      <point x="78" y="321"/>
      <point x="71" y="297" type="curve" smooth="yes"/>
      <point x="64" y="273"/>
      <point x="60" y="248"/>
      <point x="60" y="223" type="curve" smooth="yes"/>
      <point x="60" y="188" type="line" smooth="yes"/>
      <point x="60" y="66"/>
      <point x="135" y="-10"/>
    </contour>
    <contour>
      <point x="167" y="92" type="curve" smooth="yes"/>
      <point x="146" y="116"/>
      <point x="136" y="147"/>
      <point x="136" y="187" type="curve" smooth="yes"/>
      <point x="136" y="222" type="line" smooth="yes"/>
      <point x="136" y="262"/>
      <point x="147" y="293"/>
      <point x="168" y="316" type="curve" smooth="yes"/>
      <point x="189" y="339"/>
      <point x="218" y="350"/>
      <point x="253" y="350" type="curve" smooth="yes"/>
      <point x="289" y="350"/>
      <point x="318" y="338"/>
      <point x="339" y="315" type="curve" smooth="yes"/>
      <point x="360" y="292"/>
      <point x="371" y="261"/>
      <point x="371" y="221" type="curve" smooth="yes"/>
      <point x="371" y="186" type="line" smooth="yes"/>
      <point x="371" y="146"/>
      <point x="360" y="116"/>
      <point x="339" y="92" type="curve" smooth="yes"/>
      <point x="318" y="68"/>
      <point x="289" y="56"/>
      <point x="253" y="56" type="curve" smooth="yes"/>
      <point x="217" y="56"/>
      <point x="188" y="68"/>
    </contour>
  </outline>
</glyph>
<glyph name="eight" format="2">
  <advance width="524"/>
  <unicode hex="0038"/>
  <outline>
    <contour>
      <point x="261" y="-10" type="curve" smooth="yes"/>
      <point x="375" y="-10"/>
      <point x="457" y="67"/>
      <point x="457" y="184" type="curve" smooth="yes"/>
      <point x="457" y="210" type="line" smooth="yes"/>
      <point x="457" y="280"/>
      <point x="420" y="343"/>
      <point x="358" y="373" type="curve"/>
      <point x="410" y="399"/>
      <point x="443" y="450"/>
      <point x="443" y="518" type="curve" smooth="yes"/>
      <point x="443" y="539" type="line" smooth="yes"/>
      <point x="443" y="638"/>
      <point x="370" y="717"/>
      <point x="262" y="717" type="curve" smooth="yes"/>
      <point x="157" y="717"/>
      <point x="82" y="638"/>
      <point x="82" y="539" type="curve" smooth="yes"/>
      <point x="82" y="518" type="line" smooth="yes"/>
      <point x="82" y="450"/>
      <point x="114" y="399"/>
      <point x="166" y="373" type="curve"/>
      <point x="104" y="345"/>
      <point x="68" y="283"/>
      <point x="68" y="209" type="curve" smooth="yes"/>
      <point x="68" y="183" type="line" smooth="yes"/>
      <point x="68" y="69"/>
      <point x="147" y="-10"/>
    </contour>
    <contour>
      <point x="262" y="56" type="curve" smooth="yes"/>
      <point x="190" y="56"/>
      <point x="142" y="108"/>
      <point x="142" y="184" type="curve" smooth="yes"/>
      <point x="142" y="210" type="line" smooth="yes"/>
      <point x="142" y="286"/>
      <point x="190" y="338"/>
      <point x="262" y="338" type="curve" smooth="yes"/>
      <point x="336" y="338"/>
      <point x="382" y="286"/>
      <point x="382" y="210" type="curve" smooth="yes"/>
      <point x="382" y="184" type="line" smooth="yes"/>
      <point x="382" y="108"/>
      <point x="334" y="56"/>
    </contour>
    <contour>
      <point x="262" y="404" type="curve" smooth="yes"/>
      <point x="198" y="404"/>
      <point x="157" y="452"/>
      <point x="157" y="518" type="curve" smooth="yes"/>
      <point x="157" y="540" type="line" smooth="yes"/>
      <point x="157" y="604"/>
      <point x="200" y="650"/>
      <point x="262" y="650" type="curve" smooth="yes"/>
      <point x="324" y="650"/>
      <point x="369" y="604"/>
      <point x="369" y="540" type="curve" smooth="yes"/>
      <point x="369" y="518" type="line" smooth="yes"/>
      <point x="369" y="452"/>
      <point x="326" y="404"/>
    </contour>
  </outline>
</glyph>
<glyph name="nine" format="2">
  <advance width="505"/>
  <unicode hex="0039"/>
  <outline>
    <contour>
      <point x="313" y="310" type="line"/>
      <point x="305" y="304"/>
      <point x="294" y="299"/>
      <point x="280" y="295" type="curve" smooth="yes"/>
      <point x="266" y="291"/>
      <point x="252" y="289"/>
      <point x="237" y="289" type="curve" smooth="yes"/>
      <point x="184" y="289"/>
      <point x="141" y="307"/>
      <point x="109" y="342" type="curve" smooth="yes"/>
      <point x="77" y="377"/>
      <point x="60" y="423"/>
      <point x="60" y="481" type="curve" smooth="yes"/>
      <point x="60" y="516" type="line" smooth="yes"/>
      <point x="60" y="558"/>
      <point x="69" y="594"/>
      <point x="86" y="624" type="curve" smooth="yes"/>
      <point x="103" y="654"/>
      <point x="125" y="677"/>
      <point x="154" y="693" type="curve" smooth="yes"/>
      <point x="183" y="709"/>
      <point x="216" y="717"/>
      <point x="253" y="717" type="curve" smooth="yes"/>
      <point x="312" y="717"/>
      <point x="358" y="699"/>
      <point x="393" y="663" type="curve" smooth="yes"/>
      <point x="428" y="627"/>
      <point x="445" y="579"/>
      <point x="445" y="518" type="curve" smooth="yes"/>
      <point x="445" y="483" type="line" smooth="yes"/>
      <point x="445" y="458"/>
      <point x="442" y="434"/>
      <point x="435" y="411" type="curve" smooth="yes"/>
      <point x="428" y="388"/>
      <point x="417" y="362"/>
      <point x="403" y="333" type="curve" smooth="yes"/>
      <point x="240" y="0" type="line"/>
      <point x="162" y="0" type="line"/>
    </contour>
    <contour>
      <point x="338" y="391" type="curve" smooth="yes"/>
      <point x="359" y="414"/>
      <point x="370" y="444"/>
      <point x="370" y="484" type="curve" smooth="yes"/>
      <point x="370" y="519" type="line" smooth="yes"/>
      <point x="370" y="559"/>
      <point x="359" y="591"/>
      <point x="338" y="615" type="curve" smooth="yes"/>
      <point x="317" y="639"/>
      <point x="289" y="650"/>
      <point x="253" y="650" type="curve" smooth="yes"/>
      <point x="217" y="650"/>
      <point x="188" y="639"/>
      <point x="167" y="615" type="curve" smooth="yes"/>
      <point x="146" y="591"/>
      <point x="135" y="560"/>
      <point x="135" y="520" type="curve" smooth="yes"/>
      <point x="135" y="485" type="line" smooth="yes"/>
      <point x="135" y="445"/>
      <point x="146" y="414"/>
      <point x="167" y="391" type="curve" smooth="yes"/>
      <point x="188" y="368"/>
      <point x="217" y="356"/>
      <point x="253" y="356" type="curve" smooth="yes"/>
      <point x="289" y="356"/>
      <point x="317" y="368"/>
    </contour>
  </outline>
</glyph>
<glyph name="less" format="2">
  <advance width="524"/>
  <unicode hex="003C"/>
  <outline>
    <contour>
      <point x="466" y="86" type="line"/>
      <point x="466" y="159" type="line"/>
      <point x="154" y="283" type="line"/>
      <point x="466" y="407" type="line"/>
      <point x="466" y="479" type="line"/>
      <point x="58" y="313" type="line"/>
      <point x="58" y="253" type="line"/>
    </contour>
  </outline>
</glyph>
<glyph name="question" format="2">
  <advance width="439"/>
  <unicode hex="003F"/>
  <outline>
    <contour>
      <point x="176" y="182" type="line"/>
      <point x="251" y="182" type="line"/>
      <point x="251" y="242" type="line" smooth="yes"/>
      <point x="251" y="276"/>
      <point x="257" y="295"/>
      <point x="281" y="327" type="curve" smooth="yes"/>
      <point x="339" y="409" type="line" smooth="yes"/>
      <point x="375" y="461"/>
      <point x="391" y="496"/>
      <point x="391" y="546" type="curve" smooth="yes"/>
      <point x="391" y="648"/>
      <point x="324" y="717"/>
      <point x="216" y="717" type="curve" smooth="yes"/>
      <point x="102" y="717"/>
      <point x="41" y="652"/>
      <point x="39" y="538" type="curve"/>
      <point x="113" y="538" type="line"/>
      <point x="114" y="612"/>
      <point x="148" y="649"/>
      <point x="214" y="649" type="curve" smooth="yes"/>
      <point x="280" y="649"/>
      <point x="316" y="612"/>
      <point x="316" y="546" type="curve" smooth="yes"/>
      <point x="316" y="508"/>
      <point x="305" y="482"/>
      <point x="269" y="432" type="curve" smooth="yes"/>
      <point x="214" y="357" type="line" smooth="yes"/>
      <point x="182" y="315"/>
      <point x="176" y="293"/>
      <point x="176" y="243" type="curve" smooth="yes"/>
    </contour>
    <contour>
      <point x="168" y="0" type="line"/>
      <point x="259" y="0" type="line"/>
      <point x="259" y="95" type="line"/>
      <point x="168" y="95" type="line"/>
    </contour>
  </outline>
</glyph>
<glyph name="at" format="2">
  <advance width="892"/>
  <unicode hex="0040"/>
  <outline>
    <contour>
      <point x="446" y="-131" type="curve" smooth="yes"/>
      <point x="544" y="-131"/>
      <point x="617" y="-113"/>
      <point x="691" y="-71" type="curve"/>
      <point x="667" y="-12" type="line"/>
      <point x="601" y="-48"/>
      <point x="536" y="-65"/>
      <point x="446" y="-65" type="curve" smooth="yes"/>
      <point x="254" y="-65"/>
      <point x="133" y="65"/>
      <point x="133" y="254" type="curve" smooth="yes"/>
      <point x="133" y="327" type="line" smooth="yes"/>
      <point x="133" y="516"/>
      <point x="257" y="641"/>
      <point x="446" y="641" type="curve" smooth="yes"/>
      <point x="635" y="641"/>
      <point x="760" y="515"/>
      <point x="760" y="326" type="curve" smooth="yes"/>
      <point x="760" y="257" type="line" smooth="yes"/>
      <point x="760" y="155"/>
      <point x="733" y="116"/>
      <point x="679" y="116" type="curve" smooth="yes"/>
      <point x="637" y="116"/>
      <point x="607" y="147"/>
      <point x="607" y="205" type="curve" smooth="yes"/>
      <point x="607" y="501" type="line"/>
      <point x="541" y="501" type="line"/>
      <point x="541" y="455" type="line"/>
      <point x="519" y="491"/>
      <point x="478" y="511"/>
      <point x="426" y="511" type="curve" smooth="yes"/>
      <point x="324" y="511"/>
      <point x="275" y="443"/>
      <point x="275" y="325" type="curve" smooth="yes"/>
      <point x="275" y="243" type="line" smooth="yes"/>
      <point x="275" y="125"/>
      <point x="322" y="57"/>
      <point x="428" y="57" type="curve" smooth="yes"/>
      <point x="494" y="57"/>
      <point x="539" y="82"/>
      <point x="559" y="130" type="curve"/>
      <point x="579" y="84"/>
      <point x="622" y="57"/>
      <point x="678" y="57" type="curve" smooth="yes"/>
      <point x="770" y="57"/>
      <point x="833" y="124"/>
      <point x="833" y="258" type="curve" smooth="yes"/>
      <point x="833" y="327" type="line" smooth="yes"/>
      <point x="833" y="549"/>
      <point x="668" y="707"/>
      <point x="446" y="707" type="curve" smooth="yes"/>
      <point x="221" y="707"/>
      <point x="60" y="550"/>
      <point x="60" y="325" type="curve" smooth="yes"/>
      <point x="60" y="255" type="line" smooth="yes"/>
      <point x="60" y="27"/>
      <point x="221" y="-131"/>
    </contour>
    <contour>
      <point x="442" y="117" type="curve" smooth="yes"/>
      <point x="374" y="117"/>
      <point x="346" y="164"/>
      <point x="346" y="248" type="curve" smooth="yes"/>
      <point x="346" y="324" type="line" smooth="yes"/>
      <point x="346" y="409"/>
      <point x="378" y="452"/>
      <point x="442" y="452" type="curve" smooth="yes"/>
      <point x="505" y="452"/>
      <point x="538" y="410"/>
      <point x="538" y="327" type="curve" smooth="yes"/>
      <point x="538" y="243" type="line" smooth="yes"/>
      <point x="538" y="159"/>
      <point x="505" y="117"/>
    </contour>
  </outline>
</glyph>
<glyph name="B" format="2">
  <advance width="628"/>
  <unicode hex="0042"/>
  <outline>
    <contour>
      <point x="82" y="0" type="line"/>
      <point x="347" y="0" type="line" smooth="yes"/>
      <point x="479" y="0"/>
      <point x="561" y="72"/>
      <point x="561" y="194" type="curve" smooth="yes"/>
      <point x="561" y="278"/>
      <point x="521" y="340"/>
      <point x="441" y="364" type="curve"/>
      <point x="509" y="386"/>
      <point x="550" y="448"/>
      <point x="550" y="520" type="curve" smooth="yes"/>
      <point x="550" y="638"/>
      <point x="473" y="707"/>
      <point x="341" y="707" type="curve" smooth="yes"/>
      <point x="82" y="707" type="line"/>
    </contour>
    <contour>
      <point x="157" y="67" type="line"/>
      <point x="157" y="328" type="line"/>
      <point x="339" y="328" type="line" smooth="yes"/>
      <point x="433" y="328"/>
      <point x="486" y="283"/>
      <point x="486" y="199" type="curve" smooth="yes"/>
      <point x="486" y="113"/>
      <point x="432" y="67"/>
      <point x="338" y="67" type="curve" smooth="yes"/>
    </contour>
    <contour>
      <point x="157" y="394" type="line"/>
      <point x="157" y="640" type="line"/>
      <point x="334" y="640" type="line" smooth="yes"/>
      <point x="424" y="640"/>
      <point x="475" y="598"/>
      <point x="475" y="516" type="curve" smooth="yes"/>
      <point x="475" y="434"/>
      <point x="421" y="394"/>
      <point x="333" y="394" type="curve" smooth="yes"/>
    </contour>
  </outline>
</glyph>
<glyph name="C" format="2">
  <advance width="624"/>
  <unicode hex="0043"/>
  <outline>
    <contour>
      <point x="316" y="-8" type="curve" smooth="yes"/>
      <point x="462" y="-8"/>
      <point x="555" y="76"/>
      <point x="555" y="208" type="curve" smooth="yes"/>
      <point x="555" y="212" type="line"/>
      <point x="482" y="212" type="line"/>
      <point x="482" y="208" type="line" smooth="yes"/>
      <point x="482" y="116"/>
      <point x="419" y="60"/>
      <point x="317" y="60" type="curve" smooth="yes"/>
      <point x="200" y="60"/>
      <point x="142" y="126"/>
      <point x="142" y="258" type="curve" smooth="yes"/>
      <point x="142" y="442" type="line" smooth="yes"/>
      <point x="142" y="588"/>
      <point x="202" y="648"/>
      <point x="316" y="648" type="curve" smooth="yes"/>
      <point x="418" y="648"/>
      <point x="482" y="592"/>
      <point x="482" y="500" type="curve" smooth="yes"/>
      <point x="482" y="497" type="line"/>
      <point x="557" y="497" type="line"/>
      <point x="557" y="500" type="line" smooth="yes"/>
      <point x="557" y="629"/>
      <point x="460" y="716"/>
      <point x="316" y="716" type="curve" smooth="yes"/>
      <point x="164" y="716"/>
      <point x="68" y="633"/>
      <point x="68" y="445" type="curve" smooth="yes"/>
      <point x="68" y="262" type="line" smooth="yes"/>
      <point x="68" y="74"/>
      <point x="164" y="-8"/>
    </contour>
  </outline>
</glyph>
<glyph name="D" format="2">
  <advance width="635"/>
  <unicode hex="0044"/>
  <outline>
    <contour>
      <point x="82" y="0" type="line"/>
      <point x="324" y="0" type="line" smooth="yes"/>
      <point x="399" y="0"/>
      <point x="458" y="22"/>
      <point x="502" y="65" type="curve" smooth="yes"/>
      <point x="546" y="108"/>
      <point x="568" y="176"/>
      <point x="568" y="270" type="curve" smooth="yes"/>
      <point x="568" y="436" type="line" smooth="yes"/>
      <point x="568" y="530"/>
      <point x="546" y="599"/>
      <point x="502" y="642" type="curve" smooth="yes"/>
      <point x="458" y="685"/>
      <point x="399" y="707"/>
      <point x="324" y="707" type="curve" smooth="yes"/>
      <point x="82" y="707" type="line"/>
    </contour>
    <contour>
      <point x="158" y="68" type="line"/>
      <point x="158" y="639" type="line"/>
      <point x="325" y="639" type="line" smooth="yes"/>
      <point x="379" y="639"/>
      <point x="420" y="623"/>
      <point x="449" y="590" type="curve" smooth="yes"/>
      <point x="478" y="557"/>
      <point x="493" y="505"/>
      <point x="493" y="433" type="curve" smooth="yes"/>
      <point x="493" y="266" type="line" smooth="yes"/>
      <point x="493" y="134"/>
      <point x="437" y="68"/>
      <point x="325" y="68" type="curve" smooth="yes"/>
    </contour>
  </outline>
</glyph>
<glyph name="E" format="2">
  <advance width="560"/>
  <unicode hex="0045"/>
  <anchor x="274" y="707" name="top"/>
  <outline>
    <contour>
      <point x="82" y="0" type="line"/>
      <point x="511" y="0" type="line"/>
      <point x="511" y="68" type="line"/>
      <point x="157" y="68" type="line"/>
      <point x="157" y="326" type="line"/>
      <point x="460" y="326" type="line"/>
      <point x="460" y="393" type="line"/>
      <point x="157" y="393" type="line"/>
      <point x="157" y="639" type="line"/>
      <point x="511" y="639" type="line"/>
      <point x="511" y="707" type="line"/>
      <point x="82" y="707" type="line"/>
    </contour>
  </outline>
</glyph>
<glyph name="G" format="2">
  <advance width="624"/>
  <unicode hex="0047"/>
  <outline>
    <contour>
      <point x="314" y="-8" type="curve" smooth="yes"/>
      <point x="388" y="-8"/>
      <point x="448" y="13"/>
      <point x="492" y="55" type="curve" smooth="yes"/>
      <point x="536" y="97"/>
      <point x="557" y="165"/>
      <point x="557" y="258" type="curve" smooth="yes"/>
      <point x="557" y="364" type="line"/>
      <point x="313" y="364" type="line"/>
      <point x="313" y="299" type="line"/>
      <point x="482" y="299" type="line"/>
      <point x="482" y="245" type="line" smooth="yes"/>
      <point x="482" y="181"/>
      <point x="468" y="133"/>
      <point x="440" y="104" type="curve" smooth="yes"/>
      <point x="412" y="75"/>
      <point x="370" y="60"/>
      <point x="316" y="60" type="curve" smooth="yes"/>
      <point x="200" y="60"/>
      <point x="142" y="126"/>
      <point x="142" y="258" type="curve" smooth="yes"/>
      <point x="142" y="442" type="line" smooth="yes"/>
      <point x="142" y="514"/>
      <point x="157" y="568"/>
      <point x="186" y="600" type="curve" smooth="yes"/>
      <point x="215" y="632"/>
      <point x="258" y="648"/>
      <point x="315" y="648" type="curve" smooth="yes"/>
      <point x="366" y="648"/>
      <point x="406" y="635"/>
      <point x="436" y="609" type="curve" smooth="yes"/>
      <point x="466" y="583"/>
      <point x="480" y="547"/>
      <point x="480" y="502" type="curve" smooth="yes"/>
      <point x="480" y="498" type="line"/>
      <point x="555" y="498" type="line"/>
      <point x="555" y="502" type="line" smooth="yes"/>
      <point x="555" y="544"/>
      <point x="545" y="582"/>
      <point x="525" y="614" type="curve" smooth="yes"/>
      <point x="505" y="646"/>
      <point x="477" y="671"/>
      <point x="441" y="689" type="curve" smooth="yes"/>
      <point x="405" y="707"/>
      <point x="362" y="716"/>
      <point x="314" y="716" type="curve" smooth="yes"/>
      <point x="164" y="716"/>
      <point x="68" y="633"/>
      <point x="68" y="445" type="curve" smooth="yes"/>
      <point x="68" y="262" type="line" smooth="yes"/>
      <point x="68" y="74"/>
      <point x="164" y="-8"/>
    </contour>
  </outline>
</glyph>
<glyph name="H" format="2">
  <advance width="644"/>
  <unicode hex="0048"/>
  <outline>
    <contour>
      <point x="82" y="0" type="line"/>
      <point x="157" y="0" type="line"/>
      <point x="157" y="328" type="line"/>
      <point x="487" y="328" type="line"/>
      <point x="487" y="0" type="line"/>
      <point x="562" y="0" type="line"/>
      <point x="562" y="707" type="line"/>
      <point x="487" y="707" type="line"/>
      <point x="487" y="395" type="line"/>
      <point x="157" y="395" type="line"/>
      <point x="157" y="707" type="line"/>
      <point x="82" y="707" type="line"/>
    </contour>
  </outline>
</glyph>
<glyph name="J" format="2">
  <advance width="320"/>
  <unicode hex="004A"/>
  <anchor x="193" y="707" name="top"/>
  <outline>
    <contour>
      <point x="33" y="0" type="line"/>
      <point x="102" y="0" type="line" smooth="yes"/>
      <point x="186" y="0"/>
      <point x="230" y="48"/>
      <point x="230" y="136" type="curve" smooth="yes"/>
      <point x="230" y="707" type="line"/>
      <point x="156" y="707" type="line"/>
      <point x="156" y="145" type="line" smooth="yes"/>
      <point x="156" y="91"/>
      <point x="137" y="68"/>
      <point x="91" y="68" type="curve" smooth="yes"/>
      <point x="33" y="68" type="line"/>
    </contour>
  </outline>
</glyph>
<glyph name="N" format="2">
  <advance width="678"/>
  <unicode hex="004E"/>
  <outline>
    <contour>
      <point x="82" y="0" type="line"/>
      <point x="157" y="0" type="line"/>
      <point x="157" y="569" type="line"/>
      <point x="522" y="0" type="line"/>
      <point x="597" y="0" type="line"/>
      <point x="597" y="707" type="line"/>
      <point x="522" y="707" type="line"/>
      <point x="522" y="139" type="line"/>
      <point x="157" y="707" type="line"/>
      <point x="82" y="707" type="line"/>
    </contour>
  </outline>
</glyph>
<glyph name="O" format="2">
  <advance width="624"/>
  <unicode hex="004F"/>
  <anchor x="313" y="707" name="top"/>
  <outline>
    <contour>
      <point x="312" y="-8" type="curve" smooth="yes"/>
      <point x="460" y="-8"/>
      <point x="557" y="74"/>
      <point x="557" y="262" type="curve" smooth="yes"/>
      <point x="557" y="445" type="line" smooth="yes"/>
      <point x="557" y="633"/>
      <point x="461" y="716"/>
      <point x="313" y="716" type="curve" smooth="yes"/>
      <point x="163" y="716"/>
      <point x="68" y="633"/>
      <point x="68" y="445" type="curve" smooth="yes"/>
      <point x="68" y="262" type="line" smooth="yes"/>
      <point x="68" y="74"/>
      <point x="162" y="-8"/>
    </contour>
    <contour>
      <point x="142" y="258" type="curve" smooth="yes"/>
      <point x="142" y="442" type="line" smooth="yes"/>
      <point x="142" y="586"/>
      <point x="199" y="648"/>
      <point x="313" y="648" type="curve" smooth="yes"/>
      <point x="426" y="648"/>
      <point x="482" y="579"/>
      <point x="482" y="442" type="curve" smooth="yes"/>
      <point x="482" y="258" type="line" smooth="yes"/>
      <point x="482" y="126"/>
      <point x="426" y="60"/>
      <point x="313" y="60" type="curve" smooth="yes"/>
      <point x="201" y="60"/>
      <point x="142" y="120"/>
    </contour>
  </outline>
</glyph>
<glyph name="P" format="2">
  <advance width="590"/>
  <unicode hex="0050"/>
  <outline>
    <contour>
      <point x="82" y="0" type="line"/>
      <point x="157" y="0" type="line"/>
      <point x="157" y="292" type="line"/>
      <point x="336" y="292" type="line" smooth="yes"/>
      <point x="472" y="292"/>
      <point x="558" y="370"/>
      <point x="558" y="496" type="curve" smooth="yes"/>
      <point x="558" y="632"/>
      <point x="474" y="707"/>
      <point x="336" y="707" type="curve" smooth="yes"/>
      <point x="82" y="707" type="line"/>
    </contour>
    <contour>
      <point x="157" y="359" type="line"/>
      <point x="157" y="639" type="line"/>
      <point x="330" y="639" type="line" smooth="yes"/>
      <point x="428" y="639"/>
      <point x="483" y="592"/>
      <point x="483" y="496" type="curve" smooth="yes"/>
      <point x="483" y="404"/>
      <point x="428" y="359"/>
      <point x="330" y="359" type="curve" smooth="yes"/>
    </contour>
  </outline>
</glyph>
<glyph name="R" format="2">
  <advance width="613"/>
  <unicode hex="0052"/>
  <outline>
    <contour>
      <point x="82" y="0" type="line"/>
      <point x="157" y="0" type="line"/>
      <point x="157" y="310" type="line"/>
      <point x="327" y="310" type="line"/>
      <point x="486" y="0" type="line"/>
      <point x="572" y="0" type="line"/>
      <point x="406" y="317" type="line"/>
      <point x="502" y="339"/>
      <point x="557" y="406"/>
      <point x="557" y="508" type="curve" smooth="yes"/>
      <point x="557" y="634"/>
      <point x="476" y="707"/>
      <point x="344" y="707" type="curve" smooth="yes"/>
      <point x="82" y="707" type="line"/>
    </contour>
    <contour>
      <point x="157" y="375" type="line"/>
      <point x="157" y="639" type="line"/>
      <point x="338" y="639" type="line" smooth="yes"/>
      <point x="430" y="639"/>
      <point x="482" y="595"/>
      <point x="482" y="507" type="curve" smooth="yes"/>
      <point x="482" y="423"/>
      <point x="430" y="375"/>
      <point x="338" y="375" type="curve" smooth="yes"/>
    </contour>
  </outline>
</glyph>
<glyph name="S" format="2">
  <advance width="559"/>
  <unicode hex="0053"/>
  <anchor x="275" y="707" name="top"/>
  <outline>
    <contour>
      <point x="270" y="-6" type="curve" smooth="yes"/>
      <point x="420" y="-6"/>
      <point x="512" y="68"/>
      <point x="512" y="196" type="curve" smooth="yes"/>
      <point x="512" y="308"/>
      <point x="447" y="367"/>
      <point x="329" y="387" type="curve" smooth="yes"/>
      <point x="247" y="401" type="line" smooth="yes"/>
      <point x="163" y="417"/>
      <point x="121" y="453"/>
      <point x="121" y="523" type="curve" smooth="yes"/>
      <point x="121" y="603"/>
      <point x="178" y="651"/>
      <point x="274" y="651" type="curve" smooth="yes"/>
      <point x="368" y="651"/>
      <point x="419" y="607"/>
      <point x="427" y="520" type="curve"/>
      <point x="427" y="497" type="line"/>
      <point x="501" y="497" type="line"/>
      <point x="501" y="520" type="line"/>
      <point x="485" y="651"/>
      <point x="401" y="716"/>
      <point x="275" y="716" type="curve" smooth="yes"/>
      <point x="139" y="716"/>
      <point x="48" y="642"/>
      <point x="48" y="518" type="curve" smooth="yes"/>
      <point x="48" y="410"/>
      <point x="112" y="354"/>
      <point x="226" y="334" type="curve" smooth="yes"/>
      <point x="306" y="321" type="line" smooth="yes"/>
      <point x="394" y="305"/>
      <point x="438" y="269"/>
      <point x="438" y="191" type="curve" smooth="yes"/>
      <point x="438" y="105"/>
      <point x="381" y="59"/>
      <point x="275" y="59" type="curve" smooth="yes"/>
      <point x="173" y="59"/>
      <point x="118" y="106"/>
      <point x="108" y="199" type="curve"/>
      <point x="108" y="208" type="line"/>
      <point x="34" y="208" type="line"/>
      <point x="34" y="199" type="line"/>
      <point x="46" y="63"/>
      <point x="128" y="-6"/>
    </contour>
  </outline>
</glyph>
<glyph name="T" format="2">
  <advance width="509"/>
  <unicode hex="0054"/>
  <outline>
    <contour>
      <point x="218" y="0" type="line"/>
      <point x="292" y="0" type="line"/>
      <point x="292" y="639" type="line"/>
      <point x="493" y="639" type="line"/>
      <point x="493" y="707" type="line"/>
      <point x="16" y="707" type="line"/>
      <point x="16" y="639" type="line"/>
      <point x="218" y="639" type="line"/>
    </contour>
  </outline>
</glyph>
<glyph name="U" format="2">
  <advance width="650"/>
  <unicode hex="0055"/>
  <anchor x="325" y="707" name="top"/>
  <outline>
    <contour>
      <point x="326" y="-6" type="curve" smooth="yes"/>
      <point x="464" y="-6"/>
      <point x="568" y="92"/>
      <point x="568" y="230" type="curve" smooth="yes"/>
      <point x="568" y="707" type="line"/>
      <point x="494" y="707" type="line"/>
      <point x="494" y="237" type="line" smooth="yes"/>
      <point x="494" y="129"/>
      <point x="428" y="60"/>
      <point x="326" y="60" type="curve" smooth="yes"/>
      <point x="224" y="60"/>
      <point x="158" y="129"/>
      <point x="158" y="237" type="curve" smooth="yes"/>
      <point x="158" y="707" type="line"/>
      <point x="82" y="707" type="line"/>
      <point x="82" y="230" type="line" smooth="yes"/>
      <point x="82" y="92"/>
      <point x="188" y="-6"/>
    </contour>
  </outline>
</glyph>
<glyph name="asciicircum" format="2">
  <advance width="524"/>
  <unicode hex="005E"/>
  <outline>
    <contour>
      <point x="55" y="292" type="line"/>
      <point x="117" y="292" type="line"/>
      <point x="262" y="641" type="line"/>
      <point x="409" y="292" type="line"/>
      <point x="470" y="292" type="line"/>
      <point x="293" y="707" type="line"/>
      <point x="232" y="707" type="line"/>
    </contour>
  </outline>
</glyph>
<glyph name="a" format="2">
  <advance width="508"/>
  <unicode hex="0061"/>
  <anchor x="244" y="519" name="top"/>
  <outline>
    <contour>
      <point x="220" y="-6" type="curve" smooth="yes"/>
      <point x="286" y="-6"/>
      <point x="332" y="13"/>
      <point x="364" y="55" type="curve"/>
      <point x="364" y="0" type="line"/>
      <point x="432" y="0" type="line"/>
      <point x="432" y="353" type="line" smooth="yes"/>
      <point x="432" y="467"/>
      <point x="366" y="526"/>
      <point x="244" y="526" type="curve" smooth="yes"/>
      <point x="132" y="526"/>
      <point x="63" y="468"/>
      <point x="63" y="380" type="curve" smooth="yes"/>
      <point x="63" y="375" type="line"/>
      <point x="131" y="375" type="line"/>
      <point x="131" y="378" type="line" smooth="yes"/>
      <point x="131" y="434"/>
      <point x="175" y="468"/>
      <point x="245" y="468" type="curve"/>
      <point x="321" y="468"/>
      <point x="362" y="430"/>
      <point x="362" y="354" type="curve" smooth="yes"/>
      <point x="362" y="295" type="line"/>
      <point x="222" y="295" type="line" smooth="yes"/>
      <point x="112" y="295"/>
      <point x="48" y="238"/>
      <point x="48" y="146" type="curve" smooth="yes"/>
      <point x="48" y="46"/>
      <point x="110" y="-6"/>
    </contour>
    <contour>
      <point x="118" y="147" type="curve" smooth="yes"/>
      <point x="118" y="211"/>
      <point x="156" y="244"/>
      <point x="232" y="244" type="curve" smooth="yes"/>
      <point x="362" y="244" type="line"/>
      <point x="362" y="176" type="line" smooth="yes"/>
      <point x="362" y="92"/>
      <point x="323" y="50"/>
      <point x="231" y="50" type="curve" smooth="yes"/>
      <point x="155" y="50"/>
      <point x="118" y="82"/>
    </contour>
  </outline>
</glyph>
<glyph name="b" format="2">
  <advance width="522"/>
  <unicode hex="0062"/>
  <outline>
    <contour>
      <point x="287" y="-6" type="curve" smooth="yes"/>
      <point x="389" y="-6"/>
      <point x="462" y="61"/>
      <point x="462" y="207" type="curve" smooth="yes"/>
      <point x="462" y="313" type="line" smooth="yes"/>
      <point x="462" y="459"/>
      <point x="388" y="526"/>
      <point x="282" y="526" type="curve" smooth="yes"/>
      <point x="222" y="526"/>
      <point x="174" y="498"/>
      <point x="146" y="446" type="curve"/>
      <point x="146" y="707" type="line"/>
      <point x="77" y="707" type="line"/>
      <point x="77" y="0" type="line"/>
      <point x="146" y="0" type="line"/>
      <point x="146" y="69" type="line"/>
      <point x="175" y="19"/>
      <point x="222" y="-6"/>
    </contour>
    <contour>
      <point x="146" y="212" type="curve" smooth="yes"/>
      <point x="146" y="303" type="line" smooth="yes"/>
      <point x="146" y="399"/>
      <point x="188" y="463"/>
      <point x="272" y="463" type="curve" smooth="yes"/>
      <point x="352" y="463"/>
      <point x="392" y="411"/>
      <point x="392" y="309" type="curve" smooth="yes"/>
      <point x="392" y="211" type="line" smooth="yes"/>
      <point x="392" y="108"/>
      <point x="353" y="56"/>
      <point x="276" y="56" type="curve" smooth="yes"/>
      <point x="192" y="56"/>
      <point x="146" y="120"/>
    </contour>
  </outline>
</glyph>
<glyph name="c" format="2">
  <advance width="515"/>
  <unicode hex="0063"/>
  <outline>
    <contour>
      <point x="263" y="-6" type="curve" smooth="yes"/>
      <point x="379" y="-6"/>
      <point x="455" y="61"/>
      <point x="455" y="167" type="curve" smooth="yes"/>
      <point x="455" y="171" type="line"/>
      <point x="387" y="171" type="line"/>
      <point x="387" y="166" type="line" smooth="yes"/>
      <point x="387" y="96"/>
      <point x="340" y="56"/>
      <point x="264" y="56" type="curve" smooth="yes"/>
      <point x="180" y="56"/>
      <point x="130" y="97"/>
      <point x="130" y="211" type="curve" smooth="yes"/>
      <point x="130" y="309" type="line" smooth="yes"/>
      <point x="130" y="423"/>
      <point x="181" y="463"/>
      <point x="265" y="463" type="curve" smooth="yes"/>
      <point x="341" y="463"/>
      <point x="387" y="423"/>
      <point x="387" y="353" type="curve" smooth="yes"/>
      <point x="387" y="348" type="line"/>
      <point x="455" y="348" type="line"/>
      <point x="455" y="353" type="line" smooth="yes"/>
      <point x="455" y="459"/>
      <point x="380" y="526"/>
      <point x="262" y="526" type="curve" smooth="yes"/>
      <point x="140" y="526"/>
      <point x="60" y="461"/>
      <point x="60" y="313" type="curve" smooth="yes"/>
      <point x="60" y="207" type="line" smooth="yes"/>
      <point x="60" y="59"/>
      <point x="139" y="-6"/>
    </contour>
  </outline>
</glyph>
<glyph name="d" format="2">
  <advance width="523"/>
  <unicode hex="0064"/>
  <outline>
    <contour>
      <point x="236" y="-6" type="curve" smooth="yes"/>
      <point x="302" y="-6"/>
      <point x="348" y="19"/>
      <point x="376" y="69" type="curve"/>
      <point x="376" y="0" type="line"/>
      <point x="446" y="0" type="line"/>
      <point x="446" y="707" type="line"/>
      <point x="376" y="707" type="line"/>
      <point x="376" y="446" type="line"/>
      <point x="346" y="499"/>
      <point x="300" y="526"/>
      <point x="237" y="526" type="curve" smooth="yes"/>
      <point x="133" y="526"/>
      <point x="60" y="459"/>
      <point x="60" y="313" type="curve" smooth="yes"/>
      <point x="60" y="207" type="line" smooth="yes"/>
      <point x="60" y="61"/>
      <point x="134" y="-6"/>
    </contour>
    <contour>
      <point x="131" y="211" type="curve" smooth="yes"/>
      <point x="131" y="309" type="line" smooth="yes"/>
      <point x="131" y="411"/>
      <point x="171" y="463"/>
      <point x="250" y="463" type="curve" smooth="yes"/>
      <point x="334" y="463"/>
      <point x="376" y="399"/>
      <point x="376" y="303" type="curve" smooth="yes"/>
      <point x="376" y="212" type="line" smooth="yes"/>
      <point x="376" y="120"/>
      <point x="332" y="56"/>
      <point x="246" y="56" type="curve" smooth="yes"/>
      <point x="170" y="56"/>
      <point x="131" y="108"/>
    </contour>
  </outline>
</glyph>
<glyph name="e" format="2">
  <advance width="515"/>
  <unicode hex="0065"/>
  <outline>
    <contour>
      <point x="260" y="-6" type="curve" smooth="yes"/>
      <point x="319" y="-6"/>
      <point x="366" y="9"/>
      <point x="400" y="38" type="curve" smooth="yes"/>
      <point x="434" y="67"/>
      <point x="451" y="107"/>
      <point x="451" y="155" type="curve" smooth="yes"/>
      <point x="451" y="160" type="line"/>
      <point x="383" y="160" type="line"/>
      <point x="383" y="157" type="line" smooth="yes"/>
      <point x="383" y="126"/>
      <point x="373" y="101"/>
      <point x="352" y="83" type="curve" smooth="yes"/>
      <point x="331" y="65"/>
      <point x="302" y="56"/>
      <point x="265" y="56" type="curve" smooth="yes"/>
      <point x="223" y="56"/>
      <point x="190" y="68"/>
      <point x="166" y="92" type="curve" smooth="yes"/>
      <point x="142" y="116"/>
      <point x="130" y="156"/>
      <point x="130" y="215" type="curve" smooth="yes"/>
      <point x="130" y="246" type="line"/>
      <point x="455" y="246" type="line"/>
      <point x="455" y="307" type="line" smooth="yes"/>
      <point x="455" y="381"/>
      <point x="437" y="437"/>
      <point x="401" y="473" type="curve" smooth="yes"/>
      <point x="365" y="509"/>
      <point x="317" y="526"/>
      <point x="258" y="526" type="curve" smooth="yes"/>
      <point x="199" y="526"/>
      <point x="151" y="509"/>
      <point x="115" y="473" type="curve" smooth="yes"/>
      <point x="79" y="437"/>
      <point x="60" y="381"/>
      <point x="60" y="307" type="curve" smooth="yes"/>
      <point x="60" y="217" type="line" smooth="yes"/>
      <point x="60" y="141"/>
      <point x="79" y="84"/>
      <point x="115" y="48" type="curve" smooth="yes"/>
      <point x="151" y="12"/>
      <point x="199" y="-6"/>
    </contour>
    <contour>
      <point x="130" y="298" type="line"/>
      <point x="130" y="309" type="line" smooth="yes"/>
      <point x="130" y="366"/>
      <point x="142" y="406"/>
      <point x="165" y="429" type="curve" smooth="yes"/>
      <point x="188" y="452"/>
      <point x="219" y="463"/>
      <point x="258" y="463" type="curve" smooth="yes"/>
      <point x="298" y="463"/>
      <point x="328" y="452"/>
      <point x="351" y="430" type="curve" smooth="yes"/>
      <point x="374" y="408"/>
      <point x="385" y="370"/>
      <point x="385" y="316" type="curve" smooth="yes"/>
      <point x="385" y="298" type="line"/>
    </contour>
  </outline>
</glyph>
<glyph name="f" format="2">
  <advance width="313"/>
  <unicode hex="0066"/>
  <outline>
    <contour>
      <point x="96" y="0" type="line"/>
      <point x="166" y="0" type="line"/>
      <point x="166" y="464" type="line"/>
      <point x="275" y="464" type="line"/>
      <point x="275" y="519" type="line"/>
      <point x="166" y="519" type="line"/>
      <point x="166" y="581" type="line" smooth="yes"/>
      <point x="166" y="628"/>
      <point x="188" y="651"/>
      <point x="232" y="651" type="curve" smooth="yes"/>
      <point x="275" y="651" type="line"/>
      <point x="275" y="707" type="line"/>
      <point x="221" y="707" type="line" smooth="yes"/>
      <point x="143" y="707"/>
      <point x="96" y="658"/>
      <point x="96" y="578" type="curve" smooth="yes"/>
      <point x="96" y="519" type="line"/>
      <point x="30" y="519" type="line"/>
      <point x="30" y="464" type="line"/>
      <point x="96" y="464" type="line"/>
    </contour>
  </outline>
</glyph>
<glyph name="g" format="2">
  <advance width="523"/>
  <unicode hex="0067"/>
  <outline>
    <contour>
      <point x="254" y="-162" type="curve" smooth="yes"/>
      <point x="315" y="-162"/>
      <point x="362" y="-144"/>
      <point x="396" y="-108" type="curve" smooth="yes"/>
      <point x="430" y="-72"/>
      <point x="446" y="-22"/>
      <point x="446" y="41" type="curve" smooth="yes"/>
      <point x="446" y="523" type="line"/>
      <point x="376" y="523" type="line"/>
      <point x="376" y="451" type="line"/>
      <point x="347" y="504"/>
      <point x="300" y="529"/>
      <point x="237" y="529" type="curve" smooth="yes"/>
      <point x="185" y="529"/>
      <point x="143" y="512"/>
      <point x="110" y="478" type="curve" smooth="yes"/>
      <point x="77" y="444"/>
      <point x="60" y="390"/>
      <point x="60" y="317" type="curve" smooth="yes"/>
      <point x="60" y="246" type="line" smooth="yes"/>
      <point x="60" y="172"/>
      <point x="77" y="117"/>
      <point x="110" y="83" type="curve" smooth="yes"/>
      <point x="143" y="49"/>
      <point x="185" y="32"/>
      <point x="236" y="32" type="curve" smooth="yes"/>
      <point x="302" y="32"/>
      <point x="348" y="58"/>
      <point x="376" y="108" type="curve"/>
      <point x="376" y="35" type="line" smooth="yes"/>
      <point x="376" y="-56"/>
      <point x="335" y="-101"/>
      <point x="254" y="-101" type="curve" smooth="yes"/>
      <point x="221" y="-101"/>
      <point x="195" y="-94"/>
      <point x="175" y="-80" type="curve" smooth="yes"/>
      <point x="155" y="-66"/>
      <point x="142" y="-49"/>
      <point x="139" y="-26" type="curve"/>
      <point x="70" y="-26" type="line"/>
      <point x="73" y="-68"/>
      <point x="91" y="-100"/>
      <point x="123" y="-125" type="curve" smooth="yes"/>
      <point x="155" y="-150"/>
      <point x="199" y="-162"/>
    </contour>
    <contour>
      <point x="131" y="250" type="curve" smooth="yes"/>
      <point x="131" y="312" type="line" smooth="yes"/>
      <point x="131" y="415"/>
      <point x="171" y="467"/>
      <point x="250" y="467" type="curve" smooth="yes"/>
      <point x="292" y="467"/>
      <point x="323" y="452"/>
      <point x="344" y="423" type="curve" smooth="yes"/>
      <point x="365" y="394"/>
      <point x="376" y="355"/>
      <point x="376" y="307" type="curve" smooth="yes"/>
      <point x="376" y="251" type="line" smooth="yes"/>
      <point x="376" y="205"/>
      <point x="365" y="167"/>
      <point x="343" y="138" type="curve" smooth="yes"/>
      <point x="321" y="109"/>
      <point x="289" y="95"/>
      <point x="246" y="95" type="curve" smooth="yes"/>
      <point x="170" y="95"/>
      <point x="131" y="147"/>
    </contour>
  </outline>
</glyph>
<glyph name="h" format="2">
  <advance width="534"/>
  <unicode hex="0068"/>
  <outline>
    <contour>
      <point x="77" y="0" type="line"/>
      <point x="146" y="0" type="line"/>
      <point x="146" y="331" type="line" smooth="yes"/>
      <point x="146" y="373"/>
      <point x="158" y="406"/>
      <point x="180" y="429" type="curve" smooth="yes"/>
      <point x="202" y="452"/>
      <point x="231" y="463"/>
      <point x="268" y="463" type="curve" smooth="yes"/>
      <point x="306" y="463"/>
      <point x="335" y="452"/>
      <point x="356" y="429" type="curve" smooth="yes"/>
      <point x="377" y="406"/>
      <point x="388" y="374"/>
      <point x="388" y="331" type="curve" smooth="yes"/>
      <point x="388" y="0" type="line"/>
      <point x="458" y="0" type="line"/>
      <point x="458" y="341" type="line" smooth="yes"/>
      <point x="458" y="400"/>
      <point x="442" y="445"/>
      <point x="412" y="477" type="curve" smooth="yes"/>
      <point x="382" y="509"/>
      <point x="340" y="525"/>
      <point x="286" y="525" type="curve" smooth="yes"/>
      <point x="225" y="525"/>
      <point x="177" y="502"/>
      <point x="146" y="456" type="curve"/>
      <point x="146" y="707" type="line"/>
      <point x="77" y="707" type="line"/>
    </contour>
  </outline>
</glyph>
<glyph name="l" format="2">
  <advance width="279"/>
  <unicode hex="006C"/>
  <outline>
    <contour>
      <point x="205" y="0" type="curve" smooth="yes"/>
      <point x="254" y="0" type="line"/>
      <point x="254" y="63" type="line"/>
      <point x="212" y="63" type="line" smooth="yes"/>
      <point x="189" y="63"/>
      <point x="172" y="70"/>
      <point x="162" y="82" type="curve" smooth="yes"/>
      <point x="152" y="94"/>
      <point x="146" y="113"/>
      <point x="146" y="140" type="curve" smooth="yes"/>
      <point x="146" y="707" type="line"/>
      <point x="77" y="707" type="line"/>
      <point x="77" y="136" type="line" smooth="yes"/>
      <point x="77" y="92"/>
      <point x="88" y="58"/>
      <point x="110" y="35" type="curve" smooth="yes"/>
      <point x="132" y="12"/>
      <point x="163" y="0"/>
    </contour>
  </outline>
</glyph>
<glyph name="m" format="2">
  <advance width="844"/>
  <unicode hex="006D"/>
  <outline>
    <contour>
      <point x="77" y="0" type="line"/>
      <point x="146" y="0" type="line"/>
      <point x="146" y="331" type="line" smooth="yes"/>
      <point x="146" y="408"/>
      <point x="187" y="463"/>
      <point x="268" y="463" type="curve" smooth="yes"/>
      <point x="351" y="463"/>
      <point x="387" y="409"/>
      <point x="387" y="331" type="curve" smooth="yes"/>
      <point x="387" y="0" type="line"/>
      <point x="458" y="0" type="line"/>
      <point x="458" y="334" type="line" smooth="yes"/>
      <point x="458" y="412"/>
      <point x="499" y="463"/>
      <point x="580" y="463" type="curve" smooth="yes"/>
      <point x="663" y="463"/>
      <point x="698" y="409"/>
      <point x="698" y="331" type="curve" smooth="yes"/>
      <point x="698" y="0" type="line"/>
      <point x="768" y="0" type="line"/>
      <point x="768" y="341" type="line" smooth="yes"/>
      <point x="768" y="454"/>
      <point x="709" y="525"/>
      <point x="593" y="525" type="curve" smooth="yes"/>
      <point x="524" y="525"/>
      <point x="470" y="498"/>
      <point x="435" y="438" type="curve"/>
      <point x="404" y="500"/>
      <point x="354" y="525"/>
      <point x="286" y="525" type="curve" smooth="yes"/>
      <point x="231" y="525"/>
      <point x="176" y="503"/>
      <point x="145" y="456" type="curve"/>
      <point x="145" y="519" type="line"/>
      <point x="77" y="519" type="line"/>
    </contour>
  </outline>
</glyph>
<glyph name="n" format="2">
  <advance width="534"/>
  <unicode hex="006E"/>
  <outline>
    <contour>
      <point x="77" y="0" type="line"/>
      <point x="146" y="0" type="line"/>
      <point x="146" y="331" type="line" smooth="yes"/>
      <point x="146" y="373"/>
      <point x="158" y="406"/>
      <point x="180" y="429" type="curve" smooth="yes"/>
      <point x="202" y="452"/>
      <point x="231" y="463"/>
      <point x="268" y="463" type="curve" smooth="yes"/>
      <point x="306" y="463"/>
      <point x="335" y="452"/>
      <point x="356" y="429" type="curve" smooth="yes"/>
      <point x="377" y="406"/>
      <point x="388" y="374"/>
      <point x="388" y="331" type="curve" smooth="yes"/>
      <point x="388" y="0" type="line"/>
      <point x="458" y="0" type="line"/>
      <point x="458" y="341" type="line" smooth="yes"/>
      <point x="458" y="399"/>
      <point x="443" y="445"/>
      <point x="413" y="477" type="curve" smooth="yes"/>
      <point x="383" y="509"/>
      <point x="341" y="525"/>
      <point x="286" y="525" type="curve" smooth="yes"/>
      <point x="256" y="525"/>
      <point x="228" y="520"/>
      <point x="204" y="508" type="curve" smooth="yes"/>
      <point x="180" y="496"/>
      <point x="160" y="479"/>
      <point x="145" y="456" type="curve"/>
      <point x="145" y="519" type="line"/>
      <point x="77" y="519" type="line"/>
    </contour>
  </outline>
</glyph>
<glyph name="o" format="2">
  <advance width="517"/>
  <unicode hex="006F"/>
  <anchor x="260" y="519" name="top"/>
  <outline>
    <contour>
      <point x="260" y="-6" type="curve" smooth="yes"/>
      <point x="319" y="-6"/>
      <point x="367" y="11"/>
      <point x="403" y="45" type="curve" smooth="yes"/>
      <point x="439" y="79"/>
      <point x="457" y="133"/>
      <point x="457" y="207" type="curve" smooth="yes"/>
      <point x="457" y="313" type="line" smooth="yes"/>
      <point x="457" y="387"/>
      <point x="439" y="441"/>
      <point x="403" y="475" type="curve" smooth="yes"/>
      <point x="367" y="509"/>
      <point x="319" y="526"/>
      <point x="260" y="526" type="curve" smooth="yes"/>
      <point x="199" y="526"/>
      <point x="151" y="509"/>
      <point x="115" y="475" type="curve" smooth="yes"/>
      <point x="79" y="441"/>
      <point x="60" y="387"/>
      <point x="60" y="313" type="curve" smooth="yes"/>
      <point x="60" y="207" type="line" smooth="yes"/>
      <point x="60" y="133"/>
      <point x="79" y="79"/>
      <point x="115" y="45" type="curve" smooth="yes"/>
      <point x="151" y="11"/>
      <point x="199" y="-6"/>
    </contour>
    <contour>
      <point x="130" y="211" type="curve" smooth="yes"/>
      <point x="130" y="309" type="line" smooth="yes"/>
      <point x="130" y="423"/>
      <point x="180" y="463"/>
      <point x="260" y="463" type="curve" smooth="yes"/>
      <point x="338" y="463"/>
      <point x="387" y="423"/>
      <point x="387" y="309" type="curve" smooth="yes"/>
      <point x="387" y="211" type="line" smooth="yes"/>
      <point x="387" y="97"/>
      <point x="338" y="56"/>
      <point x="260" y="56" type="curve" smooth="yes"/>
      <point x="180" y="56"/>
      <point x="130" y="97"/>
    </contour>
  </outline>
</glyph>
<glyph name="p" format="2">
  <advance width="522"/>
  <unicode hex="0070"/>
  <outline>
    <contour>
      <point x="77" y="-156" type="line"/>
      <point x="146" y="-156" type="line"/>
      <point x="146" y="69" type="line"/>
      <point x="175" y="19"/>
      <point x="222" y="-6"/>
      <point x="287" y="-6" type="curve" smooth="yes"/>
      <point x="389" y="-6"/>
      <point x="462" y="59"/>
      <point x="462" y="207" type="curve" smooth="yes"/>
      <point x="462" y="313" type="line" smooth="yes"/>
      <point x="462" y="459"/>
      <point x="388" y="525"/>
      <point x="282" y="525" type="curve" smooth="yes"/>
      <point x="222" y="525"/>
      <point x="174" y="498"/>
      <point x="146" y="446" type="curve"/>
      <point x="146" y="519" type="line"/>
      <point x="77" y="519" type="line"/>
    </contour>
    <contour>
      <point x="146" y="212" type="curve" smooth="yes"/>
      <point x="146" y="303" type="line" smooth="yes"/>
      <point x="146" y="399"/>
      <point x="188" y="463"/>
      <point x="272" y="463" type="curve" smooth="yes"/>
      <point x="352" y="463"/>
      <point x="392" y="411"/>
      <point x="392" y="308" type="curve" smooth="yes"/>
      <point x="392" y="211" type="line" smooth="yes"/>
      <point x="392" y="108"/>
      <point x="353" y="56"/>
      <point x="276" y="56" type="curve" smooth="yes"/>
      <point x="192" y="56"/>
      <point x="146" y="120"/>
    </contour>
  </outline>
</glyph>
<glyph name="q" format="2">
  <advance width="523"/>
  <unicode hex="0071"/>
  <outline>
    <contour>
      <point x="376" y="-156" type="line"/>
      <point x="446" y="-156" type="line"/>
      <point x="446" y="519" type="line"/>
      <point x="376" y="519" type="line"/>
      <point x="376" y="446" type="line"/>
      <point x="348" y="498"/>
      <point x="301" y="525"/>
      <point x="241" y="525" type="curve" smooth="yes"/>
      <point x="135" y="525"/>
      <point x="60" y="459"/>
      <point x="60" y="313" type="curve" smooth="yes"/>
      <point x="60" y="207" type="line" smooth="yes"/>
      <point x="60" y="59"/>
      <point x="134" y="-6"/>
      <point x="236" y="-6" type="curve" smooth="yes"/>
      <point x="301" y="-6"/>
      <point x="347" y="19"/>
      <point x="376" y="69" type="curve"/>
    </contour>
    <contour>
      <point x="131" y="211" type="curve" smooth="yes"/>
      <point x="131" y="308" type="line" smooth="yes"/>
      <point x="131" y="411"/>
      <point x="171" y="463"/>
      <point x="250" y="463" type="curve" smooth="yes"/>
      <point x="334" y="463"/>
      <point x="376" y="399"/>
      <point x="376" y="303" type="curve" smooth="yes"/>
      <point x="376" y="212" type="line" smooth="yes"/>
      <point x="376" y="120"/>
      <point x="332" y="56"/>
      <point x="246" y="56" type="curve" smooth="yes"/>
      <point x="170" y="56"/>
      <point x="131" y="108"/>
    </contour>
  </outline>
</glyph>
<glyph name="r" format="2">
  <advance width="345"/>
  <unicode hex="0072"/>
  <outline>
    <contour>
      <point x="77" y="0" type="line"/>
      <point x="146" y="0" type="line"/>
      <point x="146" y="329" type="line" smooth="yes"/>
      <point x="146" y="369"/>
      <point x="158" y="400"/>
      <point x="180" y="425" type="curve" smooth="yes"/>
      <point x="202" y="450"/>
      <point x="231" y="462"/>
      <point x="266" y="462" type="curve" smooth="yes"/>
      <point x="285" y="462"/>
      <point x="303" y="459"/>
      <point x="319" y="454" type="curve"/>
      <point x="319" y="523" type="line"/>
      <point x="307" y="525"/>
      <point x="295" y="526"/>
      <point x="282" y="526" type="curve" smooth="yes"/>
      <point x="253" y="526"/>
      <point x="226" y="520"/>
      <point x="202" y="507" type="curve" smooth="yes"/>
      <point x="178" y="494"/>
      <point x="159" y="476"/>
      <point x="145" y="450" type="curve"/>
      <point x="145" y="519" type="line"/>
      <point x="77" y="519" type="line"/>
    </contour>
  </outline>
</glyph>
<glyph name="s" format="2">
  <advance width="473"/>
  <unicode hex="0073"/>
  <anchor x="237" y="519" name="top"/>
  <outline>
    <contour>
      <point x="236" y="-6" type="curve" smooth="yes"/>
      <point x="354" y="-6"/>
      <point x="431" y="50"/>
      <point x="431" y="148" type="curve" smooth="yes"/>
      <point x="431" y="230"/>
      <point x="384" y="269"/>
      <point x="282" y="289" type="curve" smooth="yes"/>
      <point x="214" y="301" type="line" smooth="yes"/>
      <point x="152" y="311"/>
      <point x="124" y="335"/>
      <point x="124" y="381" type="curve" smooth="yes"/>
      <point x="124" y="435"/>
      <point x="167" y="469"/>
      <point x="239" y="469" type="curve" smooth="yes"/>
      <point x="313" y="469"/>
      <point x="357" y="435"/>
      <point x="357" y="381" type="curve" smooth="yes"/>
      <point x="357" y="378" type="line"/>
      <point x="425" y="378" type="line"/>
      <point x="425" y="384" type="line" smooth="yes"/>
      <point x="425" y="468"/>
      <point x="351" y="526"/>
      <point x="237" y="526" type="curve" smooth="yes"/>
      <point x="131" y="526"/>
      <point x="56" y="468"/>
      <point x="56" y="378" type="curve" smooth="yes"/>
      <point x="56" y="298"/>
      <point x="100" y="259"/>
      <point x="202" y="241" type="curve" smooth="yes"/>
      <point x="266" y="229" type="line" smooth="yes"/>
      <point x="334" y="217"/>
      <point x="364" y="196"/>
      <point x="364" y="144" type="curve" smooth="yes"/>
      <point x="364" y="86"/>
      <point x="317" y="53"/>
      <point x="239" y="53" type="curve" smooth="yes"/>
      <point x="163" y="53"/>
      <point x="116" y="88"/>
      <point x="116" y="146" type="curve" smooth="yes"/>
      <point x="116" y="150" type="line"/>
      <point x="48" y="150" type="line"/>
      <point x="48" y="145" type="line" smooth="yes"/>
      <point x="48" y="53"/>
      <point x="122" y="-6"/>
    </contour>
  </outline>
</glyph>
<glyph name="t" format="2">
  <advance width="348"/>
  <unicode hex="0074"/>
  <outline>
    <contour>
      <point x="242" y="0" type="curve" smooth="yes"/>
      <point x="294" y="0" type="line"/>
      <point x="294" y="61" type="line"/>
      <point x="253" y="61" type="line" smooth="yes"/>
      <point x="209" y="61"/>
      <point x="186" y="85"/>
      <point x="186" y="132" type="curve" smooth="yes"/>
      <point x="186" y="464" type="line"/>
      <point x="303" y="464" type="line"/>
      <point x="303" y="519" type="line"/>
      <point x="186" y="519" type="line"/>
      <point x="186" y="671" type="line"/>
      <point x="116" y="638" type="line"/>
      <point x="116" y="519" type="line"/>
      <point x="35" y="519" type="line"/>
      <point x="35" y="464" type="line"/>
      <point x="116" y="464" type="line"/>
      <point x="116" y="129" type="line" smooth="yes"/>
      <point x="116" y="49"/>
      <point x="162" y="0"/>
    </contour>
  </outline>
</glyph>
<glyph name="u" format="2">
  <advance width="534"/>
  <unicode hex="0075"/>
  <anchor x="265" y="519" name="top"/>
  <outline>
    <contour>
      <point x="266" y="-6" type="curve" smooth="yes"/>
      <point x="394" y="-6"/>
      <point x="458" y="64"/>
      <point x="458" y="190" type="curve" smooth="yes"/>
      <point x="458" y="519" type="line"/>
      <point x="388" y="519" type="line"/>
      <point x="388" y="200" type="line" smooth="yes"/>
      <point x="388" y="102"/>
      <point x="355" y="56"/>
      <point x="267" y="56" type="curve" smooth="yes"/>
      <point x="179" y="56"/>
      <point x="146" y="104"/>
      <point x="146" y="200" type="curve" smooth="yes"/>
      <point x="146" y="519" type="line"/>
      <point x="77" y="519" type="line"/>
      <point x="77" y="190" type="line" smooth="yes"/>
      <point x="77" y="64"/>
      <point x="140" y="-6"/>
    </contour>
  </outline>
</glyph>
<glyph name="y" format="2">
  <advance width="449"/>
  <unicode hex="0079"/>
  <anchor x="225" y="519" name="top"/>
  <outline>
    <contour>
      <point x="69" y="-156" type="line"/>
      <point x="99" y="-156" type="line" smooth="yes"/>
      <point x="169" y="-156"/>
      <point x="212" y="-126"/>
      <point x="236" y="-56" type="curve" smooth="yes"/>
      <point x="435" y="519" type="line"/>
      <point x="362" y="519" type="line"/>
      <point x="226" y="106" type="line"/>
      <point x="90" y="519" type="line"/>
      <point x="14" y="519" type="line"/>
      <point x="193" y="5" type="line"/>
      <point x="182" y="-27" type="line" smooth="yes"/>
      <point x="166" y="-73"/>
      <point x="144" y="-92"/>
      <point x="94" y="-92" type="curve" smooth="yes"/>
      <point x="69" y="-92" type="line"/>
    </contour>
  </outline>
</glyph>
<glyph name="braceleft" format="2">
  <advance width="348"/>
  <unicode hex="007B"/>
  <outline>
    <contour>
      <point x="158" y="-58" type="curve" smooth="yes"/>
      <point x="141" y="-40"/>
      <point x="132" y="-11"/>
      <point x="132" y="27" type="curve" smooth="yes"/>
      <point x="132" y="222" type="line" smooth="yes"/>
      <point x="132" y="251"/>
      <point x="127" y="272"/>
      <point x="116" y="285" type="curve" smooth="yes"/>
      <point x="105" y="298"/>
      <point x="86" y="304"/>
      <point x="60" y="305" type="curve"/>
      <point x="60" y="372" type="line"/>
      <point x="86" y="373"/>
      <point x="105" y="379"/>
      <point x="116" y="392" type="curve" smooth="yes"/>
      <point x="127" y="405"/>
      <point x="132" y="426"/>
      <point x="132" y="455" type="curve" smooth="yes"/>
      <point x="132" y="645" type="line" smooth="yes"/>
      <point x="132" y="683"/>
      <point x="141" y="712"/>
      <point x="158" y="730" type="curve" smooth="yes"/>
      <point x="175" y="748"/>
      <point x="202" y="758"/>
      <point x="237" y="758" type="curve" smooth="yes"/>
      <point x="288" y="758" type="line"/>
      <point x="288" y="695" type="line"/>
      <point x="252" y="695" type="line" smooth="yes"/>
      <point x="236" y="695"/>
      <point x="224" y="691"/>
      <point x="216" y="683" type="curve" smooth="yes"/>
      <point x="208" y="675"/>
      <point x="205" y="661"/>
      <point x="205" y="643" type="curve" smooth="yes"/>
      <point x="205" y="460" type="line" smooth="yes"/>
      <point x="205" y="422"/>
      <point x="200" y="393"/>
      <point x="191" y="376" type="curve" smooth="yes"/>
      <point x="182" y="359"/>
      <point x="166" y="346"/>
      <point x="143" y="338" type="curve"/>
      <point x="166" y="330"/>
      <point x="182" y="317"/>
      <point x="191" y="300" type="curve" smooth="yes"/>
      <point x="200" y="283"/>
      <point x="205" y="255"/>
      <point x="205" y="217" type="curve" smooth="yes"/>
      <point x="205" y="29" type="line" smooth="yes"/>
      <point x="205" y="11"/>
      <point x="208" y="-3"/>
      <point x="216" y="-11" type="curve" smooth="yes"/>
      <point x="224" y="-19"/>
      <point x="236" y="-24"/>
      <point x="252" y="-24" type="curve" smooth="yes"/>
      <point x="288" y="-24" type="line"/>
      <point x="288" y="-86" type="line"/>
      <point x="237" y="-86" type="line" smooth="yes"/>
      <point x="202" y="-86"/>
      <point x="175" y="-76"/>
    </contour>
  </outline>
</glyph>
<glyph name="braceright" format="2">
  <advance width="348"/>
  <unicode hex="007D"/>
  <outline>
    <contour>
      <point x="60" y="-86" type="line"/>
      <point x="112" y="-86" type="line" smooth="yes"/>
      <point x="182" y="-86"/>
      <point x="216" y="-49"/>
      <point x="216" y="27" type="curve" smooth="yes"/>
      <point x="216" y="222" type="line" smooth="yes"/>
      <point x="216" y="280"/>
      <point x="236" y="303"/>
      <point x="288" y="305" type="curve"/>
      <point x="288" y="372" type="line"/>
      <point x="236" y="374"/>
      <point x="216" y="397"/>
      <point x="216" y="455" type="curve" smooth="yes"/>
      <point x="216" y="645" type="line" smooth="yes"/>
      <point x="216" y="721"/>
      <point x="182" y="758"/>
      <point x="112" y="758" type="curve" smooth="yes"/>
      <point x="60" y="758" type="line"/>
      <point x="60" y="695" type="line"/>
      <point x="96" y="695" type="line" smooth="yes"/>
      <point x="128" y="695"/>
      <point x="143" y="679"/>
      <point x="143" y="643" type="curve" smooth="yes"/>
      <point x="143" y="460" type="line" smooth="yes"/>
      <point x="143" y="384"/>
      <point x="159" y="354"/>
      <point x="205" y="338" type="curve"/>
      <point x="159" y="322"/>
      <point x="143" y="293"/>
      <point x="143" y="217" type="curve" smooth="yes"/>
      <point x="143" y="29" type="line" smooth="yes"/>
      <point x="143" y="-7"/>
      <point x="128" y="-24"/>
      <point x="96" y="-24" type="curve" smooth="yes"/>
      <point x="60" y="-24" type="line"/>
    </contour>
  </outline>
</glyph>
<glyph name="asciitilde" format="2">
  <advance width="524"/>
  <unicode hex="007E"/>
  <outline>
    <contour>
      <point x="344" y="217" type="curve" smooth="yes"/>
      <point x="371" y="217"/>
      <point x="396" y="226"/>
      <point x="419" y="242" type="curve" smooth="yes"/>
      <point x="442" y="258"/>
      <point x="460" y="281"/>
      <point x="475" y="312" type="curve"/>
      <point x="425" y="344" type="line"/>
      <point x="412" y="321"/>
      <point x="400" y="305"/>
      <point x="388" y="296" type="curve" smooth="yes"/>
      <point x="376" y="287"/>
      <point x="361" y="283"/>
      <point x="345" y="283" type="curve" smooth="yes"/>
      <point x="333" y="283"/>
      <point x="323" y="285"/>
      <point x="313" y="290" type="curve" smooth="yes"/>
      <point x="303" y="295"/>
      <point x="289" y="301"/>
      <point x="273" y="311" type="curve" smooth="yes"/>
      <point x="254" y="323"/>
      <point x="238" y="332"/>
      <point x="224" y="338" type="curve" smooth="yes"/>
      <point x="210" y="344"/>
      <point x="195" y="347"/>
      <point x="178" y="347" type="curve" smooth="yes"/>
      <point x="151" y="347"/>
      <point x="126" y="339"/>
      <point x="103" y="323" type="curve" smooth="yes"/>
      <point x="80" y="307"/>
      <point x="62" y="283"/>
      <point x="48" y="252" type="curve"/>
      <point x="98" y="221" type="line"/>
      <point x="112" y="244"/>
      <point x="125" y="260"/>
      <point x="136" y="269" type="curve" smooth="yes"/>
      <point x="147" y="278"/>
      <point x="161" y="283"/>
      <point x="177" y="283" type="curve" smooth="yes"/>
      <point x="189" y="283"/>
      <point x="200" y="280"/>
      <point x="210" y="275" type="curve" smooth="yes"/>
      <point x="220" y="270"/>
      <point x="233" y="263"/>
      <point x="249" y="253" type="curve" smooth="yes"/>
      <point x="267" y="241"/>
      <point x="283" y="232"/>
      <point x="297" y="226" type="curve" smooth="yes"/>
      <point x="311" y="220"/>
      <point x="327" y="217"/>
    </contour>
  </outline>
</glyph>
<glyph name="cent" format="2">
  <advance width="515"/>
  <unicode hex="00A2"/>
  <outline>
    <contour>
      <point x="222" y="-102" type="line"/>
      <point x="282" y="-102" type="line"/>
      <point x="282" y="-5" type="line"/>
      <point x="386" y="1"/>
      <point x="455" y="67"/>
      <point x="455" y="167" type="curve" smooth="yes"/>
      <point x="455" y="171" type="line"/>
      <point x="387" y="171" type="line"/>
      <point x="387" y="166" type="line" smooth="yes"/>
      <point x="387" y="96"/>
      <point x="340" y="56"/>
      <point x="264" y="56" type="curve" smooth="yes"/>
      <point x="180" y="56"/>
      <point x="130" y="97"/>
      <point x="130" y="211" type="curve" smooth="yes"/>
      <point x="130" y="309" type="line" smooth="yes"/>
      <point x="130" y="423"/>
      <point x="181" y="463"/>
      <point x="265" y="463" type="curve" smooth="yes"/>
      <point x="341" y="463"/>
      <point x="387" y="423"/>
      <point x="387" y="353" type="curve" smooth="yes"/>
      <point x="387" y="348" type="line"/>
      <point x="455" y="348" type="line"/>
      <point x="455" y="353" type="line" smooth="yes"/>
      <point x="455" y="452"/>
      <point x="389" y="519"/>
      <point x="282" y="525" type="curve"/>
      <point x="282" y="622" type="line"/>
      <point x="222" y="622" type="line"/>
      <point x="222" y="523" type="line"/>
      <point x="124" y="509"/>
      <point x="60" y="444"/>
      <point x="60" y="313" type="curve" smooth="yes"/>
      <point x="60" y="207" type="line" smooth="yes"/>
      <point x="60" y="77"/>
      <point x="122" y="11"/>
      <point x="222" y="-3" type="curve"/>
    </contour>
  </outline>
</glyph>
<glyph name="sterling" format="2">
  <advance width="446"/>
  <unicode hex="00A3"/>
  <outline>
    <contour>
      <point x="55" y="0" type="line"/>
      <point x="413" y="0" type="line"/>
      <point x="413" y="70" type="line"/>
      <point x="143" y="70" type="line"/>
      <point x="155" y="83"/>
      <point x="164" y="98"/>
      <point x="169" y="115" type="curve" smooth="yes"/>
      <point x="174" y="132"/>
      <point x="177" y="153"/>
      <point x="177" y="178" type="curve" smooth="yes"/>
      <point x="177" y="297" type="line"/>
      <point x="319" y="297" type="line"/>
      <point x="319" y="365" type="line"/>
      <point x="177" y="365" type="line"/>
      <point x="177" y="552" type="line" smooth="yes"/>
      <point x="177" y="583"/>
      <point x="184" y="607"/>
      <point x="198" y="623" type="curve" smooth="yes"/>
      <point x="212" y="639"/>
      <point x="231" y="647"/>
      <point x="256" y="647" type="curve" smooth="yes"/>
      <point x="281" y="647"/>
      <point x="300" y="639"/>
      <point x="314" y="624" type="curve" smooth="yes"/>
      <point x="328" y="609"/>
      <point x="335" y="588"/>
      <point x="335" y="561" type="curve"/>
      <point x="409" y="561" type="line"/>
      <point x="409" y="609"/>
      <point x="395" y="647"/>
      <point x="367" y="675" type="curve" smooth="yes"/>
      <point x="339" y="703"/>
      <point x="303" y="717"/>
      <point x="257" y="717" type="curve" smooth="yes"/>
      <point x="209" y="717"/>
      <point x="171" y="701"/>
      <point x="143" y="670" type="curve" smooth="yes"/>
      <point x="115" y="639"/>
      <point x="101" y="596"/>
      <point x="101" y="541" type="curve" smooth="yes"/>
      <point x="101" y="365" type="line"/>
      <point x="34" y="365" type="line"/>
      <point x="34" y="297" type="line"/>
      <point x="101" y="297" type="line"/>
      <point x="101" y="169" type="line" smooth="yes"/>
      <point x="101" y="142"/>
      <point x="98" y="119"/>
      <point x="91" y="103" type="curve" smooth="yes"/>
      <point x="84" y="87"/>
      <point x="71" y="73"/>
      <point x="55" y="63" type="curve"/>
    </contour>
  </outline>
</glyph>
<glyph name="currency" format="2">
  <advance width="627"/>
  <unicode hex="00A4"/>
  <outline>
    <contour>
      <point x="123" y="97" type="line"/>
      <point x="196" y="170" type="line"/>
      <point x="230" y="145"/>
      <point x="269" y="133"/>
      <point x="313" y="133" type="curve" smooth="yes"/>
      <point x="357" y="133"/>
      <point x="396" y="145"/>
      <point x="430" y="170" type="curve"/>
      <point x="503" y="97" type="line"/>
      <point x="551" y="146" type="line"/>
      <point x="478" y="218" type="line"/>
      <point x="503" y="252"/>
      <point x="515" y="291"/>
      <point x="515" y="335" type="curve" smooth="yes"/>
      <point x="515" y="378"/>
      <point x="503" y="418"/>
      <point x="478" y="453" type="curve"/>
      <point x="550" y="524" type="line"/>
      <point x="502" y="572" type="line"/>
      <point x="429" y="501" type="line"/>
      <point x="396" y="525"/>
      <point x="357" y="537"/>
      <point x="313" y="537" type="curve" smooth="yes"/>
      <point x="269" y="537"/>
      <point x="230" y="525"/>
      <point x="197" y="501" type="curve"/>
      <point x="124" y="572" type="line"/>
      <point x="77" y="524" type="line"/>
      <point x="148" y="452" type="line"/>
      <point x="123" y="419"/>
      <point x="112" y="379"/>
      <point x="112" y="335" type="curve" smooth="yes"/>
      <point x="112" y="292"/>
      <point x="123" y="253"/>
      <point x="147" y="218" type="curve"/>
      <point x="76" y="146" type="line"/>
    </contour>
    <contour>
      <point x="313" y="196" type="curve" smooth="yes"/>
      <point x="235" y="196"/>
      <point x="177" y="255"/>
      <point x="177" y="335" type="curve" smooth="yes"/>
      <point x="177" y="415"/>
      <point x="235" y="474"/>
      <point x="313" y="474" type="curve" smooth="yes"/>
      <point x="391" y="474"/>
      <point x="450" y="415"/>
      <point x="450" y="335" type="curve" smooth="yes"/>
      <point x="450" y="255"/>
      <point x="391" y="196"/>
    </contour>
  </outline>
</glyph>
<glyph name="section" format="2">
  <advance width="523"/>
  <unicode hex="00A7"/>
  <outline>
    <contour>
      <point x="260" y="-172" type="curve" smooth="yes"/>
      <point x="358" y="-172"/>
      <point x="425" y="-110"/>
      <point x="425" y="-18" type="curve" smooth="yes"/>
      <point x="425" y="52"/>
      <point x="400" y="94"/>
      <point x="342" y="120" type="curve"/>
      <point x="404" y="140"/>
      <point x="441" y="204"/>
      <point x="441" y="282" type="curve" smooth="yes"/>
      <point x="441" y="384"/>
      <point x="397" y="444"/>
      <point x="301" y="466" type="curve" smooth="yes"/>
      <point x="209" y="488"/>
      <point x="178" y="518"/>
      <point x="178" y="580" type="curve" smooth="yes"/>
      <point x="178" y="634"/>
      <point x="211" y="666"/>
      <point x="265" y="666" type="curve" smooth="yes"/>
      <point x="323" y="666"/>
      <point x="352" y="633"/>
      <point x="352" y="570" type="curve"/>
      <point x="423" y="570" type="line"/>
      <point x="423" y="670"/>
      <point x="370" y="731"/>
      <point x="264" y="731" type="curve" smooth="yes"/>
      <point x="168" y="731"/>
      <point x="104" y="668"/>
      <point x="104" y="580" type="curve" smooth="yes"/>
      <point x="104" y="514"/>
      <point x="126" y="473"/>
      <point x="184" y="445" type="curve"/>
      <point x="118" y="421"/>
      <point x="82" y="362"/>
      <point x="82" y="282" type="curve" smooth="yes"/>
      <point x="82" y="182"/>
      <point x="127" y="120"/>
      <point x="223" y="98" type="curve" smooth="yes"/>
      <point x="317" y="76"/>
      <point x="351" y="46"/>
      <point x="351" y="-16" type="curve" smooth="yes"/>
      <point x="351" y="-74"/>
      <point x="317" y="-106"/>
      <point x="259" y="-106" type="curve" smooth="yes"/>
      <point x="197" y="-106"/>
      <point x="166" y="-74"/>
      <point x="166" y="-4" type="curve"/>
      <point x="95" y="-4" type="line"/>
      <point x="95" y="-114"/>
      <point x="152" y="-172"/>
    </contour>
    <contour>
      <point x="262" y="163" type="curve" smooth="yes"/>
      <point x="196" y="163"/>
      <point x="156" y="206"/>
      <point x="156" y="282" type="curve" smooth="yes"/>
      <point x="156" y="358"/>
      <point x="196" y="401"/>
      <point x="262" y="401" type="curve" smooth="yes"/>
      <point x="328" y="401"/>
      <point x="368" y="358"/>
      <point x="368" y="282" type="curve" smooth="yes"/>
      <point x="368" y="206"/>
      <point x="328" y="163"/>
    </contour>
  </outline>
</glyph>
<glyph name="copyright" format="2">
  <advance width="840"/>
  <unicode hex="00A9"/>
  <outline>
    <contour>
      <point x="420" y="-10" type="curve" smooth="yes"/>
      <point x="627" y="-10"/>
      <point x="773" y="138"/>
      <point x="773" y="348" type="curve" smooth="yes"/>
      <point x="773" y="558"/>
      <point x="627" y="707"/>
      <point x="420" y="707" type="curve" smooth="yes"/>
      <point x="213" y="707"/>
      <point x="68" y="558"/>
      <point x="68" y="348" type="curve" smooth="yes"/>
      <point x="68" y="138"/>
      <point x="213" y="-10"/>
    </contour>
    <contour>
      <point x="420" y="44" type="curve" smooth="yes"/>
      <point x="243" y="44"/>
      <point x="126" y="165"/>
      <point x="126" y="348" type="curve" smooth="yes"/>
      <point x="126" y="531"/>
      <point x="243" y="652"/>
      <point x="420" y="652" type="curve" smooth="yes"/>
      <point x="597" y="652"/>
      <point x="715" y="531"/>
      <point x="715" y="348" type="curve" smooth="yes"/>
      <point x="715" y="165"/>
      <point x="597" y="44"/>
    </contour>
    <contour>
      <point x="424" y="152" type="curve" smooth="yes"/>
      <point x="512" y="152"/>
      <point x="567" y="201"/>
      <point x="567" y="281" type="curve" smooth="yes"/>
      <point x="567" y="286" type="line"/>
      <point x="514" y="286" type="line"/>
      <point x="514" y="282" type="line" smooth="yes"/>
      <point x="514" y="232"/>
      <point x="480" y="201"/>
      <point x="426" y="201" type="curve" smooth="yes"/>
      <point x="364" y="201"/>
      <point x="328" y="230"/>
      <point x="328" y="314" type="curve" smooth="yes"/>
      <point x="328" y="387" type="line" smooth="yes"/>
      <point x="328" y="471"/>
      <point x="364" y="500"/>
      <point x="426" y="500" type="curve" smooth="yes"/>
      <point x="480" y="500"/>
      <point x="514" y="471"/>
      <point x="514" y="419" type="curve" smooth="yes"/>
      <point x="514" y="416" type="line"/>
      <point x="567" y="416" type="line"/>
      <point x="567" y="421" type="line" smooth="yes"/>
      <point x="567" y="501"/>
      <point x="512" y="550"/>
      <point x="424" y="550" type="curve" smooth="yes"/>
      <point x="332" y="550"/>
      <point x="272" y="502"/>
      <point x="272" y="390" type="curve" smooth="yes"/>
      <point x="272" y="311" type="line" smooth="yes"/>
      <point x="272" y="199"/>
      <point x="332" y="152"/>
    </contour>
  </outline>
</glyph>
<glyph name="ordfeminine" format="2">
  <advance width="337"/>
  <unicode hex="00AA"/>
  <outline>
    <contour>
      <point x="140" y="436" type="curve" smooth="yes"/>
      <point x="176" y="436"/>
      <point x="200" y="448"/>
      <point x="220" y="472" type="curve"/>
      <point x="220" y="440" type="line"/>
      <point x="284" y="440" type="line"/>
      <point x="284" y="656" type="line" smooth="yes"/>
      <point x="284" y="728"/>
      <point x="241" y="766"/>
      <point x="161" y="766" type="curve" smooth="yes"/>
      <point x="89" y="766"/>
      <point x="44" y="728"/>
      <point x="44" y="670" type="curve" smooth="yes"/>
      <point x="44" y="668" type="line"/>
      <point x="105" y="668" type="line"/>
      <point x="105" y="670" type="line" smooth="yes"/>
      <point x="105" y="698"/>
      <point x="125" y="716"/>
      <point x="161" y="716" type="curve" smooth="yes"/>
      <point x="197" y="716"/>
      <point x="218" y="695"/>
      <point x="218" y="659" type="curve" smooth="yes"/>
      <point x="218" y="628" type="line"/>
      <point x="144" y="628" type="line" smooth="yes"/>
      <point x="78" y="628"/>
      <point x="36" y="594"/>
      <point x="36" y="536" type="curve" smooth="yes"/>
      <point x="36" y="474"/>
      <point x="74" y="436"/>
    </contour>
    <contour>
      <point x="99" y="537" type="curve" smooth="yes"/>
      <point x="99" y="567"/>
      <point x="118" y="582"/>
      <point x="155" y="582" type="curve" smooth="yes"/>
      <point x="218" y="582" type="line"/>
      <point x="218" y="553" type="line" smooth="yes"/>
      <point x="218" y="511"/>
      <point x="200" y="490"/>
      <point x="154" y="490" type="curve" smooth="yes"/>
      <point x="118" y="490"/>
      <point x="99" y="506"/>
    </contour>
  </outline>
</glyph>
<glyph name="registered" format="2">
  <advance width="506"/>
  <unicode hex="00AE"/>
  <outline>
    <contour>
      <point x="252" y="313" type="curve" smooth="yes"/>
      <point x="289" y="313"/>
      <point x="323" y="322"/>
      <point x="352" y="339" type="curve" smooth="yes"/>
      <point x="381" y="356"/>
      <point x="404" y="379"/>
      <point x="421" y="409" type="curve" smooth="yes"/>
      <point x="438" y="439"/>
      <point x="446" y="472"/>
      <point x="446" y="510" type="curve" smooth="yes"/>
      <point x="446" y="547"/>
      <point x="438" y="580"/>
      <point x="421" y="610" type="curve" smooth="yes"/>
      <point x="404" y="640"/>
      <point x="381" y="663"/>
      <point x="352" y="680" type="curve" smooth="yes"/>
      <point x="323" y="697"/>
      <point x="289" y="706"/>
      <point x="252" y="706" type="curve" smooth="yes"/>
      <point x="216" y="706"/>
      <point x="183" y="697"/>
      <point x="154" y="680" type="curve" smooth="yes"/>
      <point x="125" y="663"/>
      <point x="102" y="640"/>
      <point x="85" y="610" type="curve" smooth="yes"/>
      <point x="68" y="580"/>
      <point x="60" y="547"/>
      <point x="60" y="510" type="curve" smooth="yes"/>
      <point x="60" y="473"/>
      <point x="68" y="440"/>
      <point x="85" y="410" type="curve" smooth="yes"/>
      <point x="102" y="380"/>
      <point x="125" y="356"/>
      <point x="154" y="339" type="curve" smooth="yes"/>
      <point x="183" y="322"/>
      <point x="216" y="313"/>
    </contour>
    <contour>
      <point x="181" y="401" type="line"/>
      <point x="218" y="401" type="line"/>
      <point x="218" y="492" type="line"/>
      <point x="259" y="492" type="line"/>
      <point x="302" y="401" type="line"/>
      <point x="342" y="401" type="line"/>
      <point x="296" y="496" type="line"/>
      <point x="322" y="506"/>
      <point x="336" y="526"/>
      <point x="336" y="556" type="curve" smooth="yes"/>
      <point x="336" y="576"/>
      <point x="330" y="593"/>
      <point x="317" y="604" type="curve" smooth="yes"/>
      <point x="304" y="615"/>
      <point x="288" y="621"/>
      <point x="265" y="621" type="curve" smooth="yes"/>
      <point x="181" y="621" type="line"/>
    </contour>
    <contour>
      <point x="218" y="524" type="line"/>
      <point x="218" y="588" type="line"/>
      <point x="264" y="588" type="line" smooth="yes"/>
      <point x="289" y="588"/>
      <point x="301" y="577"/>
      <point x="301" y="556" type="curve" smooth="yes"/>
      <point x="301" y="535"/>
      <point x="289" y="524"/>
      <point x="264" y="524" type="curve" smooth="yes"/>
    </contour>
    <contour>
      <point x="141" y="392" type="curve" smooth="yes"/>
      <point x="111" y="423"/>
      <point x="97" y="462"/>
      <point x="97" y="510" type="curve" smooth="yes"/>
      <point x="97" y="558"/>
      <point x="111" y="597"/>
      <point x="141" y="628" type="curve" smooth="yes"/>
      <point x="170" y="658"/>
      <point x="208" y="673"/>
      <point x="254" y="673" type="curve" smooth="yes"/>
      <point x="300" y="673"/>
      <point x="337" y="658"/>
      <point x="366" y="628" type="curve" smooth="yes"/>
      <point x="396" y="597"/>
      <point x="410" y="558"/>
      <point x="410" y="510" type="curve" smooth="yes"/>
      <point x="410" y="462"/>
      <point x="397" y="423"/>
      <point x="367" y="392" type="curve" smooth="yes"/>
      <point x="338" y="362"/>
      <point x="300" y="346"/>
      <point x="254" y="346" type="curve" smooth="yes"/>
      <point x="208" y="346"/>
      <point x="170" y="362"/>
    </contour>
  </outline>
</glyph>
<glyph name="degree" format="2">
  <advance width="420"/>
  <unicode hex="00B0"/>
  <outline>
    <contour>
      <point x="211" y="430" type="curve" smooth="yes"/>
      <point x="291" y="430"/>
      <point x="353" y="491"/>
      <point x="353" y="573" type="curve" smooth="yes"/>
      <point x="353" y="655"/>
      <point x="291" y="717"/>
      <point x="211" y="717" type="curve" smooth="yes"/>
      <point x="127" y="717"/>
      <point x="68" y="655"/>
      <point x="68" y="573" type="curve" smooth="yes"/>
      <point x="68" y="491"/>
      <point x="127" y="430"/>
    </contour>
    <contour>
      <point x="120" y="573" type="curve" smooth="yes"/>
      <point x="120" y="627"/>
      <point x="157" y="668"/>
      <point x="211" y="668" type="curve" smooth="yes"/>
      <point x="263" y="668"/>
      <point x="301" y="627"/>
      <point x="301" y="573" type="curve" smooth="yes"/>
      <point x="301" y="519"/>
      <point x="263" y="480"/>
      <point x="211" y="480" type="curve" smooth="yes"/>
      <point x="157" y="480"/>
      <point x="120" y="519"/>
    </contour>
  </outline>
</glyph>
<glyph name="plusminus" format="2">
  <advance width="524"/>
  <unicode hex="00B1"/>
  <outline>
    <contour>
      <point x="228" y="79" type="line"/>
      <point x="296" y="79" type="line"/>
      <point x="296" y="249" type="line"/>
      <point x="466" y="249" type="line"/>
      <point x="466" y="316" type="line"/>
      <point x="296" y="316" type="line"/>
      <point x="296" y="486" type="line"/>
      <point x="228" y="486" type="line"/>
      <point x="228" y="316" type="line"/>
      <point x="58" y="316" type="line"/>
      <point x="58" y="249" type="line"/>
      <point x="228" y="249" type="line"/>
    </contour>
    <contour>
      <point x="58" y="-41" type="line"/>
      <point x="466" y="-41" type="line"/>
      <point x="466" y="26" type="line"/>
      <point x="58" y="26" type="line"/>
    </contour>
  </outline>
</glyph>
<glyph name="mu" format="2">
  <advance width="527"/>
  <unicode hex="00B5"/>
  <outline>
    <contour>
      <point x="77" y="-156" type="line"/>
      <point x="146" y="-156" type="line"/>
      <point x="146" y="32" type="line"/>
      <point x="171" y="5"/>
      <point x="205" y="-8"/>
      <point x="249" y="-8" type="curve" smooth="yes"/>
      <point x="307" y="-8"/>
      <point x="353" y="15"/>
      <point x="381" y="61" type="curve"/>
      <point x="381" y="0" type="line"/>
      <point x="451" y="0" type="line"/>
      <point x="451" y="519" type="line"/>
      <point x="380" y="519" type="line"/>
      <point x="380" y="182" type="line" smooth="yes"/>
      <point x="380" y="102"/>
      <point x="329" y="55"/>
      <point x="261" y="55" type="curve" smooth="yes"/>
      <point x="191" y="55"/>
      <point x="146" y="98"/>
      <point x="146" y="182" type="curve" smooth="yes"/>
      <point x="146" y="519" type="line"/>
      <point x="77" y="519" type="line"/>
    </contour>
  </outline>
</glyph>
<glyph name="paragraph" format="2">
  <advance width="627"/>
  <unicode hex="00B6"/>
  <outline>
    <contour>
      <point x="274" y="-156" type="line"/>
      <point x="343" y="-156" type="line"/>
      <point x="343" y="640" type="line"/>
      <point x="436" y="640" type="line"/>
      <point x="436" y="-156" type="line"/>
      <point x="505" y="-156" type="line"/>
      <point x="505" y="707" type="line"/>
      <point x="304" y="707" type="line" smooth="yes"/>
      <point x="258" y="707"/>
      <point x="217" y="697"/>
      <point x="184" y="678" type="curve" smooth="yes"/>
      <point x="151" y="659"/>
      <point x="125" y="634"/>
      <point x="108" y="602" type="curve" smooth="yes"/>
      <point x="91" y="570"/>
      <point x="82" y="533"/>
      <point x="82" y="493" type="curve" smooth="yes"/>
      <point x="82" y="434"/>
      <point x="100" y="384"/>
      <point x="135" y="344" type="curve" smooth="yes"/>
      <point x="170" y="304"/>
      <point x="216" y="283"/>
      <point x="274" y="279" type="curve"/>
    </contour>
  </outline>
</glyph>
<glyph name="ordmasculine" format="2">
  <advance width="337"/>
  <unicode hex="00BA"/>
  <outline>
    <contour>
      <point x="169" y="436" type="curve" smooth="yes"/>
      <point x="249" y="436"/>
      <point x="296" y="478"/>
      <point x="296" y="570" type="curve" smooth="yes"/>
      <point x="296" y="632" type="line" smooth="yes"/>
      <point x="296" y="724"/>
      <point x="249" y="766"/>
      <point x="169" y="766" type="curve" smooth="yes"/>
      <point x="89" y="766"/>
      <point x="42" y="724"/>
      <point x="42" y="632" type="curve" smooth="yes"/>
      <point x="42" y="570" type="line" smooth="yes"/>
      <point x="42" y="478"/>
      <point x="89" y="436"/>
    </contour>
    <contour>
      <point x="108" y="570" type="curve" smooth="yes"/>
      <point x="108" y="632" type="line" smooth="yes"/>
      <point x="108" y="682"/>
      <point x="128" y="707"/>
      <point x="169" y="707" type="curve" smooth="yes"/>
      <point x="210" y="707"/>
      <point x="230" y="682"/>
      <point x="230" y="632" type="curve" smooth="yes"/>
      <point x="230" y="570" type="line" smooth="yes"/>
      <point x="230" y="520"/>
      <point x="210" y="496"/>
      <point x="169" y="496" type="curve" smooth="yes"/>
      <point x="128" y="496"/>
      <point x="108" y="520"/>
    </contour>
  </outline>
</glyph>
<glyph name="questiondown" format="2">
  <advance width="439"/>
  <unicode hex="00BF"/>
  <outline>
    <contour>
      <point x="224" y="-166" type="curve" smooth="yes"/>
      <point x="338" y="-166"/>
      <point x="399" y="-103"/>
      <point x="401" y="13" type="curve"/>
      <point x="327" y="13" type="line"/>
      <point x="326" y="-61"/>
      <point x="292" y="-98"/>
      <point x="226" y="-98" type="curve" smooth="yes"/>
      <point x="160" y="-98"/>
      <point x="123" y="-59"/>
      <point x="123" y="5" type="curve" smooth="yes"/>
      <point x="123" y="45"/>
      <point x="134" y="73"/>
      <point x="170" y="119" type="curve" smooth="yes"/>
      <point x="218" y="178" type="line" smooth="yes"/>
      <point x="254" y="224"/>
      <point x="263" y="249"/>
      <point x="263" y="303" type="curve" smooth="yes"/>
      <point x="263" y="340" type="line"/>
      <point x="188" y="340" type="line"/>
      <point x="188" y="304" type="line" smooth="yes"/>
      <point x="188" y="262"/>
      <point x="183" y="245"/>
      <point x="155" y="209" type="curve" smooth="yes"/>
      <point x="106" y="147" type="line" smooth="yes"/>
      <point x="62" y="91"/>
      <point x="48" y="55"/>
      <point x="48" y="5" type="curve" smooth="yes"/>
      <point x="48" y="-97"/>
      <point x="116" y="-166"/>
    </contour>
    <contour>
      <point x="181" y="424" type="line"/>
      <point x="272" y="424" type="line"/>
      <point x="272" y="519" type="line"/>
      <point x="181" y="519" type="line"/>
    </contour>
  </outline>
</glyph>
<glyph name="Eth" format="2">
  <advance width="685"/>
  <unicode hex="00D0"/>
  <outline>
    <contour>
      <point x="131" y="0" type="line"/>
      <point x="373" y="0" type="line" smooth="yes"/>
      <point x="523" y="0"/>
      <point x="617" y="82"/>
      <point x="617" y="270" type="curve" smooth="yes"/>
      <point x="617" y="436" type="line" smooth="yes"/>
      <point x="617" y="624"/>
      <point x="523" y="707"/>
      <point x="373" y="707" type="curve" smooth="yes"/>
      <point x="131" y="707" type="line"/>
      <point x="131" y="391" type="line"/>
      <point x="39" y="391" type="line"/>
      <point x="39" y="324" type="line"/>
      <point x="131" y="324" type="line"/>
    </contour>
    <contour>
      <point x="207" y="68" type="line"/>
      <point x="207" y="324" type="line"/>
      <point x="350" y="324" type="line"/>
      <point x="350" y="391" type="line"/>
      <point x="207" y="391" type="line"/>
      <point x="207" y="639" type="line"/>
      <point x="374" y="639" type="line" smooth="yes"/>
      <point x="482" y="639"/>
      <point x="542" y="577"/>
      <point x="542" y="433" type="curve" smooth="yes"/>
      <point x="542" y="266" type="line" smooth="yes"/>
      <point x="542" y="134"/>
      <point x="486" y="68"/>
      <point x="374" y="68" type="curve" smooth="yes"/>
    </contour>
  </outline>
</glyph>
<glyph name="multiply" format="2">
  <advance width="524"/>
  <unicode hex="00D7"/>
  <outline>
    <contour>
      <point x="136" y="112" type="line"/>
      <point x="262" y="238" type="line"/>
      <point x="388" y="112" type="line"/>
      <point x="434" y="157" type="line"/>
      <point x="308" y="284" type="line"/>
      <point x="434" y="410" type="line"/>
      <point x="388" y="455" type="line"/>
      <point x="262" y="329" type="line"/>
      <point x="136" y="455" type="line"/>
      <point x="91" y="410" type="line"/>
      <point x="217" y="284" type="line"/>
      <point x="91" y="157" type="line"/>
    </contour>
  </outline>
</glyph>
<glyph name="Oslash" format="2">
  <advance width="624"/>
  <unicode hex="00D8"/>
  <anchor x="313" y="707" name="top"/>
  <outline>
    <contour>
      <point x="68" y="-20" type="line"/>
      <point x="127" y="-20" type="line"/>
      <point x="159" y="35" type="line"/>
      <point x="199" y="6"/>
      <point x="249" y="-8"/>
      <point x="312" y="-8" type="curve" smooth="yes"/>
      <point x="460" y="-8"/>
      <point x="557" y="74"/>
      <point x="557" y="262" type="curve" smooth="yes"/>
      <point x="557" y="445" type="line" smooth="yes"/>
      <point x="557" y="526"/>
      <point x="539" y="590"/>
      <point x="504" y="635" type="curve"/>
      <point x="557" y="727" type="line"/>
      <point x="498" y="727" type="line"/>
      <point x="466" y="673" type="line"/>
      <point x="426" y="702"/>
      <point x="375" y="716"/>
      <point x="313" y="716" type="curve" smooth="yes"/>
      <point x="163" y="716"/>
      <point x="68" y="633"/>
      <point x="68" y="445" type="curve" smooth="yes"/>
      <point x="68" y="262" type="line" smooth="yes"/>
      <point x="68" y="180"/>
      <point x="86" y="117"/>
      <point x="121" y="72" type="curve"/>
    </contour>
    <contour>
      <point x="163" y="144" type="line"/>
      <point x="149" y="173"/>
      <point x="142" y="212"/>
      <point x="142" y="258" type="curve" smooth="yes"/>
      <point x="142" y="442" type="line" smooth="yes"/>
      <point x="142" y="586"/>
      <point x="199" y="648"/>
      <point x="313" y="648" type="curve" smooth="yes"/>
      <point x="363" y="648"/>
      <point x="402" y="635"/>
      <point x="429" y="608" type="curve"/>
    </contour>
    <contour>
      <point x="196" y="98" type="curve"/>
      <point x="462" y="561" type="line"/>
      <point x="476" y="530"/>
      <point x="482" y="490"/>
      <point x="482" y="442" type="curve" smooth="yes"/>
      <point x="482" y="258" type="line" smooth="yes"/>
      <point x="482" y="126"/>
      <point x="426" y="60"/>
      <point x="313" y="60" type="curve" smooth="yes"/>
      <point x="262" y="60"/>
      <point x="223" y="73"/>
    </contour>
  </outline>
</glyph>
<glyph name="Thorn" format="2">
  <advance width="590"/>
  <unicode hex="00DE"/>
  <outline>
    <contour>
      <point x="82" y="0" type="line"/>
      <point x="157" y="0" type="line"/>
      <point x="157" y="163" type="line"/>
      <point x="326" y="163" type="line" smooth="yes"/>
      <point x="462" y="163"/>
      <point x="548" y="241"/>
      <point x="548" y="367" type="curve" smooth="yes"/>
      <point x="548" y="503"/>
      <point x="464" y="578"/>
      <point x="326" y="578" type="curve" smooth="yes"/>
      <point x="157" y="578" type="line"/>
      <point x="157" y="707" type="line"/>
      <point x="82" y="707" type="line"/>
    </contour>
    <contour>
      <point x="157" y="230" type="line"/>
      <point x="157" y="511" type="line"/>
      <point x="319" y="511" type="line" smooth="yes"/>
      <point x="417" y="511"/>
      <point x="473" y="463"/>
      <point x="473" y="367" type="curve" smooth="yes"/>
      <point x="473" y="275"/>
      <point x="417" y="230"/>
      <point x="319" y="230" type="curve" smooth="yes"/>
    </contour>
  </outline>
</glyph>
<glyph name="germandbls" format="2">
  <advance width="517"/>
  <unicode hex="00DF"/>
  <outline>
    <contour>
      <point x="257" y="-4" type="line"/>
      <point x="287" y="-4" type="line" smooth="yes"/>
      <point x="431" y="-4"/>
      <point x="457" y="50"/>
      <point x="457" y="230" type="curve" smooth="yes"/>
      <point x="457" y="365"/>
      <point x="448" y="407"/>
      <point x="382" y="437" type="curve"/>
      <point x="428" y="461"/>
      <point x="449" y="497"/>
      <point x="449" y="557" type="curve" smooth="yes"/>
      <point x="449" y="657"/>
      <point x="382" y="714"/>
      <point x="264" y="714" type="curve" smooth="yes"/>
      <point x="132" y="714"/>
      <point x="77" y="646"/>
      <point x="77" y="518" type="curve" smooth="yes"/>
      <point x="77" y="0" type="line"/>
      <point x="146" y="0" type="line"/>
      <point x="146" y="527" type="line" smooth="yes"/>
      <point x="146" y="613"/>
      <point x="183" y="650"/>
      <point x="265" y="650" type="curve" smooth="yes"/>
      <point x="341" y="650"/>
      <point x="378" y="620"/>
      <point x="378" y="556" type="curve" smooth="yes"/>
      <point x="378" y="494"/>
      <point x="350" y="466"/>
      <point x="284" y="466" type="curve" smooth="yes"/>
      <point x="256" y="466" type="line"/>
      <point x="256" y="402" type="line"/>
      <point x="278" y="402" type="line" smooth="yes"/>
      <point x="377" y="402"/>
      <point x="386" y="368"/>
      <point x="386" y="230" type="curve" smooth="yes"/>
      <point x="386" y="89"/>
      <point x="377" y="59"/>
      <point x="284" y="59" type="curve" smooth="yes"/>
      <point x="257" y="59" type="line"/>
    </contour>
  </outline>
</glyph>
<glyph name="ae" format="2">
  <advance width="817"/>
  <unicode hex="00E6"/>
  <outline>
    <contour>
      <point x="226" y="-6" type="curve" smooth="yes"/>
      <point x="306" y="-6"/>
      <point x="364" y="22"/>
      <point x="399" y="77" type="curve"/>
      <point x="417" y="48"/>
      <point x="441" y="27"/>
      <point x="470" y="14" type="curve" smooth="yes"/>
      <point x="499" y="1"/>
      <point x="531" y="-6"/>
      <point x="568" y="-6" type="curve" smooth="yes"/>
      <point x="626" y="-6"/>
      <point x="672" y="9"/>
      <point x="704" y="39" type="curve" smooth="yes"/>
      <point x="736" y="69"/>
      <point x="753" y="108"/>
      <point x="753" y="155" type="curve" smooth="yes"/>
      <point x="753" y="160" type="line"/>
      <point x="685" y="160" type="line"/>
      <point x="685" y="157" type="line" smooth="yes"/>
      <point x="685" y="126"/>
      <point x="675" y="101"/>
      <point x="654" y="83" type="curve" smooth="yes"/>
      <point x="633" y="65"/>
      <point x="604" y="56"/>
      <point x="567" y="56" type="curve" smooth="yes"/>
      <point x="525" y="56"/>
      <point x="492" y="68"/>
      <point x="468" y="92" type="curve" smooth="yes"/>
      <point x="444" y="116"/>
      <point x="432" y="156"/>
      <point x="432" y="215" type="curve" smooth="yes"/>
      <point x="432" y="246" type="line"/>
      <point x="757" y="246" type="line"/>
      <point x="757" y="307" type="line" smooth="yes"/>
      <point x="757" y="381"/>
      <point x="739" y="437"/>
      <point x="703" y="473" type="curve" smooth="yes"/>
      <point x="667" y="509"/>
      <point x="619" y="526"/>
      <point x="560" y="526" type="curve" smooth="yes"/>
      <point x="490" y="526"/>
      <point x="438" y="504"/>
      <point x="404" y="458" type="curve"/>
      <point x="373" y="504"/>
      <point x="320" y="526"/>
      <point x="244" y="526" type="curve" smooth="yes"/>
      <point x="188" y="526"/>
      <point x="144" y="513"/>
      <point x="112" y="486" type="curve" smooth="yes"/>
      <point x="80" y="459"/>
      <point x="63" y="424"/>
      <point x="63" y="380" type="curve" smooth="yes"/>
      <point x="63" y="375" type="line"/>
      <point x="131" y="375" type="line"/>
      <point x="131" y="378" type="line" smooth="yes"/>
      <point x="131" y="406"/>
      <point x="141" y="428"/>
      <point x="161" y="444" type="curve" smooth="yes"/>
      <point x="181" y="460"/>
      <point x="210" y="468"/>
      <point x="245" y="468" type="curve" smooth="yes"/>
      <point x="283" y="468"/>
      <point x="312" y="458"/>
      <point x="332" y="439" type="curve" smooth="yes"/>
      <point x="352" y="420"/>
      <point x="362" y="392"/>
      <point x="362" y="354" type="curve" smooth="yes"/>
      <point x="362" y="295" type="line"/>
      <point x="222" y="295" type="line" smooth="yes"/>
      <point x="167" y="295"/>
      <point x="124" y="281"/>
      <point x="94" y="255" type="curve" smooth="yes"/>
      <point x="64" y="229"/>
      <point x="48" y="192"/>
      <point x="48" y="146" type="curve" smooth="yes"/>
      <point x="48" y="97"/>
      <point x="64" y="59"/>
      <point x="96" y="33" type="curve" smooth="yes"/>
      <point x="128" y="7"/>
      <point x="171" y="-6"/>
    </contour>
    <contour>
      <point x="432" y="298" type="line"/>
      <point x="432" y="309" type="line" smooth="yes"/>
      <point x="432" y="366"/>
      <point x="444" y="406"/>
      <point x="467" y="429" type="curve" smooth="yes"/>
      <point x="490" y="452"/>
      <point x="521" y="463"/>
      <point x="560" y="463" type="curve" smooth="yes"/>
      <point x="600" y="463"/>
      <point x="631" y="452"/>
      <point x="653" y="430" type="curve" smooth="yes"/>
      <point x="675" y="408"/>
      <point x="686" y="370"/>
      <point x="686" y="316" type="curve" smooth="yes"/>
      <point x="686" y="298" type="line"/>
    </contour>
    <contour>
      <point x="118" y="147" type="curve" smooth="yes"/>
      <point x="118" y="211"/>
      <point x="156" y="244"/>
      <point x="232" y="244" type="curve" smooth="yes"/>
      <point x="362" y="244" type="line"/>
      <point x="362" y="181" type="line" smooth="yes"/>
      <point x="362" y="94"/>
      <point x="318" y="50"/>
      <point x="231" y="50" type="curve" smooth="yes"/>
      <point x="155" y="50"/>
      <point x="118" y="82"/>
    </contour>
  </outline>
</glyph>
<glyph name="eth" format="2">
  <advance width="507"/>
  <unicode hex="00F0"/>
  <outline>
    <contour>
      <point x="253" y="-9" type="curve" smooth="yes"/>
      <point x="377" y="-9"/>
      <point x="447" y="67"/>
      <point x="447" y="217" type="curve" smooth="yes"/>
      <point x="447" y="273" type="line" smooth="yes"/>
      <point x="447" y="357"/>
      <point x="422" y="432"/>
      <point x="366" y="508" type="curve" smooth="yes"/>
      <point x="308" y="588" type="line"/>
      <point x="389" y="612" type="line"/>
      <point x="374" y="668" type="line"/>
      <point x="272" y="637" type="line"/>
      <point x="221" y="707" type="line"/>
      <point x="137" y="707" type="line"/>
      <point x="203" y="615" type="line"/>
      <point x="119" y="590" type="line"/>
      <point x="134" y="535" type="line"/>
      <point x="239" y="566" type="line"/>
      <point x="308" y="471" type="line"/>
      <point x="288" y="481"/>
      <point x="265" y="485"/>
      <point x="237" y="485" type="curve" smooth="yes"/>
      <point x="127" y="485"/>
      <point x="60" y="408"/>
      <point x="60" y="268" type="curve" smooth="yes"/>
      <point x="60" y="212" type="line" smooth="yes"/>
      <point x="60" y="68"/>
      <point x="131" y="-9"/>
    </contour>
    <contour>
      <point x="130" y="212" type="curve" smooth="yes"/>
      <point x="130" y="270" type="line" smooth="yes"/>
      <point x="130" y="370"/>
      <point x="172" y="421"/>
      <point x="255" y="421" type="curve" smooth="yes"/>
      <point x="336" y="421"/>
      <point x="377" y="370"/>
      <point x="377" y="268" type="curve" smooth="yes"/>
      <point x="377" y="211" type="line" smooth="yes"/>
      <point x="377" y="109"/>
      <point x="336" y="57"/>
      <point x="255" y="57" type="curve" smooth="yes"/>
      <point x="172" y="57"/>
      <point x="130" y="109"/>
    </contour>
  </outline>
</glyph>
<glyph name="divide" format="2">
  <advance width="524"/>
  <unicode hex="00F7"/>
  <outline>
    <contour>
      <point x="262" y="379" type="curve" smooth="yes"/>
      <point x="276" y="379"/>
      <point x="287" y="383"/>
      <point x="297" y="393" type="curve" smooth="yes"/>
      <point x="307" y="403"/>
      <point x="311" y="414"/>
      <point x="311" y="428" type="curve" smooth="yes"/>
      <point x="311" y="442"/>
      <point x="307" y="453"/>
      <point x="297" y="463" type="curve" smooth="yes"/>
      <point x="287" y="473"/>
      <point x="276" y="477"/>
      <point x="262" y="477" type="curve" smooth="yes"/>
      <point x="248" y="477"/>
      <point x="237" y="473"/>
      <point x="227" y="463" type="curve" smooth="yes"/>
      <point x="217" y="453"/>
      <point x="213" y="442"/>
      <point x="213" y="428" type="curve" smooth="yes"/>
      <point x="213" y="414"/>
      <point x="217" y="403"/>
      <point x="227" y="393" type="curve" smooth="yes"/>
      <point x="237" y="383"/>
      <point x="248" y="379"/>
    </contour>
    <contour>
      <point x="58" y="249" type="line"/>
      <point x="466" y="249" type="line"/>
      <point x="466" y="316" type="line"/>
      <point x="58" y="316" type="line"/>
    </contour>
    <contour>
      <point x="262" y="90" type="curve" smooth="yes"/>
      <point x="276" y="90"/>
      <point x="287" y="94"/>
      <point x="297" y="104" type="curve" smooth="yes"/>
      <point x="307" y="114"/>
      <point x="311" y="125"/>
      <point x="311" y="139" type="curve" smooth="yes"/>
      <point x="311" y="153"/>
      <point x="307" y="164"/>
      <point x="297" y="174" type="curve" smooth="yes"/>
      <point x="287" y="184"/>
      <point x="276" y="188"/>
      <point x="262" y="188" type="curve" smooth="yes"/>
      <point x="248" y="188"/>
      <point x="237" y="184"/>
      <point x="227" y="174" type="curve" smooth="yes"/>
      <point x="217" y="164"/>
      <point x="213" y="153"/>
      <point x="213" y="139" type="curve" smooth="yes"/>
      <point x="213" y="125"/>
      <point x="217" y="114"/>
      <point x="227" y="104" type="curve" smooth="yes"/>
      <point x="237" y="94"/>
      <point x="248" y="90"/>
    </contour>
  </outline>
</glyph>
<glyph name="oslash" format="2">
  <advance width="517"/>
  <unicode hex="00F8"/>
  <outline>
    <contour>
      <point x="60" y="-31" type="line"/>
      <point x="105" y="-31" type="line"/>
      <point x="139" y="25" type="line"/>
      <point x="171" y="5"/>
      <point x="212" y="-6"/>
      <point x="260" y="-6" type="curve" smooth="yes"/>
      <point x="378" y="-6"/>
      <point x="457" y="59"/>
      <point x="457" y="207" type="curve" smooth="yes"/>
      <point x="457" y="313" type="line" smooth="yes"/>
      <point x="457" y="381"/>
      <point x="441" y="433"/>
      <point x="410" y="468" type="curve"/>
      <point x="457" y="546" type="line"/>
      <point x="412" y="546" type="line"/>
      <point x="380" y="494" type="line"/>
      <point x="348" y="516"/>
      <point x="308" y="526"/>
      <point x="260" y="526" type="curve" smooth="yes"/>
      <point x="138" y="526"/>
      <point x="60" y="461"/>
      <point x="60" y="313" type="curve" smooth="yes"/>
      <point x="60" y="207" type="line" smooth="yes"/>
      <point x="60" y="139"/>
      <point x="77" y="86"/>
      <point x="110" y="50" type="curve"/>
    </contour>
    <contour>
      <point x="148" y="114" type="line"/>
      <point x="136" y="140"/>
      <point x="130" y="172"/>
      <point x="130" y="211" type="curve" smooth="yes"/>
      <point x="130" y="309" type="line" smooth="yes"/>
      <point x="130" y="423"/>
      <point x="180" y="463"/>
      <point x="260" y="463" type="curve" smooth="yes"/>
      <point x="296" y="463"/>
      <point x="325" y="454"/>
      <point x="345" y="436" type="curve"/>
    </contour>
    <contour>
      <point x="174" y="82" type="curve"/>
      <point x="370" y="403" type="line"/>
      <point x="382" y="378"/>
      <point x="387" y="347"/>
      <point x="387" y="309" type="curve" smooth="yes"/>
      <point x="387" y="211" type="line" smooth="yes"/>
      <point x="387" y="97"/>
      <point x="338" y="56"/>
      <point x="260" y="56" type="curve" smooth="yes"/>
      <point x="222" y="56"/>
      <point x="194" y="65"/>
    </contour>
  </outline>
</glyph>
<glyph name="Aogonek" format="2">
  <advance width="590"/>
  <unicode hex="0104"/>
  <outline>
    <component base="A"/>
    <contour>
      <point x="570" y="-217" type="curve"/>
      <point x="570" y="-155" type="line"/>
      <point x="514" y="-155"/>
      <point x="488" y="-152"/>
      <point x="453" y="-105" type="curve"/>
      <point x="570" y="0" type="line"/>
      <point x="505" y="0" type="line"/>
      <point x="384" y="-100" type="line"/>
      <point x="393" y="-127"/>
      <point x="406" y="-149"/>
      <point x="425" y="-166" type="curve" smooth="yes"/>
      <point x="461" y="-199"/>
      <point x="493" y="-216"/>
    </contour>
  </outline>
</glyph>
<glyph name="dcroat" format="2">
  <advance width="523"/>
  <unicode hex="0111"/>
  <outline>
    <component base="d"/>
    <contour>
      <point x="257" y="591" type="line"/>
      <point x="523" y="591" type="line"/>
      <point x="523" y="635" type="line"/>
      <point x="257" y="635" type="line"/>
    </contour>
  </outline>
</glyph>
<glyph name="eogonek" format="2">
  <advance width="515"/>
  <unicode hex="0119"/>
  <outline>
    <component base="e"/>
    <contour>
      <point x="423" y="-217" type="curve"/>
      <point x="423" y="-155" type="line"/>
      <point x="367" y="-155"/>
      <point x="341" y="-152"/>
      <point x="306" y="-105" type="curve"/>
      <point x="427" y="69" type="line"/>
      <point x="338" y="17" type="line"/>
      <point x="237" y="-100" type="line"/>
      <point x="246" y="-127"/>
      <point x="259" y="-149"/>
      <point x="278" y="-166" type="curve" smooth="yes"/>
      <point x="314" y="-199"/>
      <point x="346" y="-216"/>
    </contour>
  </outline>
</glyph>
<glyph name="gcommaaccent" format="2">
  <advance width="523"/>
  <unicode hex="0123"/>
  <outline>
    <component base="g"/>
    <contour>
      <point x="220" y="574" type="line"/>
      <point x="284" y="574" type="line"/>
      <point x="284" y="707" type="line"/>
      <point x="220" y="645" type="line"/>
    </contour>
  </outline>
</glyph>
<glyph name="IJ" format="2">
  <advance width="650"/>
  <unicode hex="0132"/>
  <outline>
    <contour>
      <point x="326" y="-6" type="curve" smooth="yes"/>
      <point x="464" y="-6"/>
      <point x="568" y="92"/>
      <point x="568" y="230" type="curve" smooth="yes"/>
      <point x="568" y="707" type="line"/>
      <point x="494" y="707" type="line"/>
      <point x="494" y="237" type="line" smooth="yes"/>
      <point x="494" y="129"/>
      <point x="428" y="60"/>
      <point x="326" y="60" type="curve" smooth="yes"/>
      <point x="236" y="60"/>
      <point x="196" y="99"/>
      <point x="171" y="159" type="curve"/>
      <point x="92" y="159" type="line"/>
      <point x="120" y="59"/>
      <point x="214" y="-6"/>
    </contour>
    <contour>
      <point x="82" y="352" type="line"/>
      <point x="158" y="352" type="line"/>
      <point x="158" y="707" type="line"/>
      <point x="82" y="707" type="line"/>
    </contour>
  </outline>
</glyph>
<glyph name="ij" format="2">
  <advance width="500"/>
  <unicode hex="0133"/>
  <outline>
    <contour>
      <point x="353" y="614" type="line"/>
      <point x="423" y="614" type="line"/>
      <point x="423" y="707" type="line"/>
      <point x="353" y="707" type="line"/>
    </contour>
    <contour>
      <point x="81" y="615" type="line"/>
      <point x="150" y="615" type="line"/>
      <point x="150" y="707" type="line"/>
      <point x="81" y="707" type="line"/>
    </contour>
    <contour>
      <point x="251" y="-162" type="curve" smooth="yes"/>
      <point x="355" y="-162"/>
      <point x="423" y="-84"/>
      <point x="423" y="41" type="curve" smooth="yes"/>
      <point x="423" y="519" type="line"/>
      <point x="353" y="519" type="line"/>
      <point x="353" y="251" type="line" smooth="yes"/>
      <point x="353" y="162"/>
      <point x="311" y="103"/>
      <point x="243" y="103" type="curve" smooth="yes"/>
      <point x="187" y="103"/>
      <point x="148" y="147"/>
      <point x="148" y="250" type="curve" smooth="yes"/>
      <point x="148" y="519" type="line"/>
      <point x="77" y="519" type="line"/>
      <point x="77" y="246" type="line" smooth="yes"/>
      <point x="77" y="98"/>
      <point x="171" y="32"/>
      <point x="233" y="32" type="curve" smooth="yes"/>
      <point x="283" y="32"/>
      <point x="327" y="61"/>
      <point x="353" y="108" type="curve"/>
      <point x="353" y="35" type="line" smooth="yes"/>
      <point x="353" y="-56"/>
      <point x="312" y="-101"/>
      <point x="251" y="-101" type="curve" smooth="yes"/>
      <point x="213" y="-101"/>
      <point x="162" y="-75"/>
      <point x="156" y="-26" type="curve"/>
      <point x="87" y="-26" type="line"/>
      <point x="93" y="-116"/>
      <point x="170" y="-162"/>
    </contour>
  </outline>
</glyph>
<glyph name="Eng" format="2">
  <advance width="678"/>
  <unicode hex="014A"/>
  <outline>
    <contour>
      <point x="420" y="-173" type="line"/>
      <point x="469" y="-173" type="line" smooth="yes"/>
      <point x="553" y="-173"/>
      <point x="597" y="-125"/>
      <point x="597" y="-37" type="curve" smooth="yes"/>
      <point x="597" y="707" type="line"/>
      <point x="522" y="707" type="line"/>
      <point x="522" y="139" type="line"/>
      <point x="157" y="707" type="line"/>
      <point x="82" y="707" type="line"/>
      <point x="82" y="0" type="line"/>
      <point x="157" y="0" type="line"/>
      <point x="157" y="569" type="line"/>
      <point x="522" y="0" type="line"/>
      <point x="522" y="-61" type="line" smooth="yes"/>
      <point x="522" y="-99"/>
      <point x="515" y="-110"/>
      <point x="482" y="-110" type="curve" smooth="yes"/>
      <point x="420" y="-110" type="line"/>
    </contour>
  </outline>
</glyph>
<glyph name="eng" format="2">
  <advance width="534"/>
  <unicode hex="014B"/>
  <outline>
    <contour>
      <point x="283" y="-173" type="line"/>
      <point x="332" y="-173" type="line" smooth="yes"/>
      <point x="416" y="-173"/>
      <point x="459" y="-125"/>
      <point x="459" y="-37" type="curve" smooth="yes"/>
      <point x="459" y="341" type="line" smooth="yes"/>
      <point x="459" y="457"/>
      <point x="396" y="525"/>
      <point x="286" y="525" type="curve" smooth="yes"/>
      <point x="226" y="525"/>
      <point x="175" y="502"/>
      <point x="145" y="456" type="curve"/>
      <point x="145" y="519" type="line"/>
      <point x="77" y="519" type="line"/>
      <point x="77" y="0" type="line"/>
      <point x="146" y="0" type="line"/>
      <point x="146" y="331" type="line" smooth="yes"/>
      <point x="146" y="415"/>
      <point x="194" y="463"/>
      <point x="268" y="463" type="curve" smooth="yes"/>
      <point x="344" y="463"/>
      <point x="388" y="417"/>
      <point x="388" y="331" type="curve" smooth="yes"/>
      <point x="388" y="-33" type="line" smooth="yes"/>
      <point x="388" y="-87"/>
      <point x="371" y="-110"/>
      <point x="325" y="-110" type="curve" smooth="yes"/>
      <point x="283" y="-110" type="line"/>
    </contour>
  </outline>
</glyph>
<glyph name="OE" format="2">
  <advance width="914"/>
  <unicode hex="0152"/>
  <outline>
    <contour>
      <point x="311" y="-8" type="curve" smooth="yes"/>
      <point x="383" y="-8"/>
      <point x="440" y="11"/>
      <point x="482" y="50" type="curve"/>
      <point x="482" y="0" type="line"/>
      <point x="865" y="0" type="line"/>
      <point x="865" y="68" type="line"/>
      <point x="556" y="68" type="line"/>
      <point x="557" y="326" type="line"/>
      <point x="813" y="326" type="line"/>
      <point x="813" y="393" type="line"/>
      <point x="557" y="393" type="line"/>
      <point x="556" y="639" type="line"/>
      <point x="865" y="639" type="line"/>
      <point x="865" y="707" type="line"/>
      <point x="482" y="707" type="line"/>
      <point x="482" y="657" type="line"/>
      <point x="441" y="696"/>
      <point x="384" y="716"/>
      <point x="312" y="716" type="curve" smooth="yes"/>
      <point x="162" y="716"/>
      <point x="68" y="633"/>
      <point x="68" y="445" type="curve" smooth="yes"/>
      <point x="68" y="262" type="line" smooth="yes"/>
      <point x="68" y="74"/>
      <point x="161" y="-8"/>
    </contour>
    <contour>
      <point x="142" y="258" type="curve" smooth="yes"/>
      <point x="142" y="442" type="line" smooth="yes"/>
      <point x="142" y="586"/>
      <point x="199" y="648"/>
      <point x="313" y="648" type="curve" smooth="yes"/>
      <point x="426" y="648"/>
      <point x="482" y="579"/>
      <point x="482" y="442" type="curve" smooth="yes"/>
      <point x="482" y="258" type="line" smooth="yes"/>
      <point x="482" y="126"/>
      <point x="426" y="60"/>
      <point x="313" y="60" type="curve" smooth="yes"/>
      <point x="201" y="60"/>
      <point x="142" y="120"/>
    </contour>
  </outline>
</glyph>
<glyph name="oe" format="2">
  <advance width="841"/>
  <unicode hex="0153"/>
  <outline>
    <contour>
      <point x="260" y="-6" type="curve" smooth="yes"/>
      <point x="336" y="-6"/>
      <point x="391" y="20"/>
      <point x="423" y="71" type="curve"/>
      <point x="457" y="20"/>
      <point x="512" y="-6"/>
      <point x="587" y="-6" type="curve" smooth="yes"/>
      <point x="705" y="-6"/>
      <point x="777" y="59"/>
      <point x="777" y="155" type="curve" smooth="yes"/>
      <point x="777" y="160" type="line"/>
      <point x="710" y="160" type="line"/>
      <point x="710" y="157" type="line" smooth="yes"/>
      <point x="710" y="95"/>
      <point x="666" y="56"/>
      <point x="592" y="56" type="curve" smooth="yes"/>
      <point x="508" y="56"/>
      <point x="457" y="97"/>
      <point x="457" y="215" type="curve" smooth="yes"/>
      <point x="457" y="246" type="line"/>
      <point x="781" y="246" type="line"/>
      <point x="781" y="307" type="line" smooth="yes"/>
      <point x="781" y="455"/>
      <point x="704" y="526"/>
      <point x="584" y="526" type="curve" smooth="yes"/>
      <point x="514" y="526"/>
      <point x="457" y="502"/>
      <point x="423" y="450" type="curve"/>
      <point x="390" y="501"/>
      <point x="336" y="526"/>
      <point x="260" y="526" type="curve" smooth="yes"/>
      <point x="138" y="526"/>
      <point x="60" y="461"/>
      <point x="60" y="313" type="curve" smooth="yes"/>
      <point x="60" y="207" type="line" smooth="yes"/>
      <point x="60" y="59"/>
      <point x="138" y="-6"/>
    </contour>
    <contour>
      <point x="457" y="298" type="line"/>
      <point x="457" y="423"/>
      <point x="505" y="463"/>
      <point x="585" y="463" type="curve" smooth="yes"/>
      <point x="663" y="463"/>
      <point x="711" y="422"/>
      <point x="711" y="316" type="curve" smooth="yes"/>
      <point x="711" y="298" type="line"/>
    </contour>
    <contour>
      <point x="130" y="211" type="curve" smooth="yes"/>
      <point x="130" y="309" type="line" smooth="yes"/>
      <point x="130" y="423"/>
      <point x="180" y="463"/>
      <point x="260" y="463" type="curve" smooth="yes"/>
      <point x="338" y="463"/>
      <point x="387" y="423"/>
      <point x="387" y="309" type="curve" smooth="yes"/>
      <point x="387" y="211" type="line" smooth="yes"/>
      <point x="387" y="97"/>
      <point x="338" y="56"/>
      <point x="260" y="56" type="curve" smooth="yes"/>
      <point x="180" y="56"/>
      <point x="130" y="97"/>
    </contour>
  </outline>
</glyph>
<glyph name="tbar" format="2">
  <advance width="348"/>
  <unicode hex="0167"/>
  <outline>
    <component base="t"/>
    <contour>
      <point x="35" y="314" type="line"/>
      <point x="303" y="314" type="line"/>
      <point x="303" y="367" type="line"/>
      <point x="35" y="367" type="line"/>
    </contour>
  </outline>
</glyph>
<glyph name="Uogonek" format="2">
  <advance width="650"/>
  <unicode hex="0172"/>
  <outline>
    <component base="U"/>
    <contour>
      <point x="379" y="-1" type="line"/>
      <point x="501" y="61" type="line"/>
      <point x="327" y="-106" type="line"/>
      <point x="362" y="-153"/>
      <point x="388" y="-156"/>
      <point x="444" y="-156" type="curve"/>
      <point x="444" y="-218" type="line"/>
      <point x="367" y="-217"/>
      <point x="335" y="-200"/>
      <point x="299" y="-167" type="curve" smooth="yes"/>
      <point x="280" y="-150"/>
      <point x="267" y="-128"/>
      <point x="258" y="-101" type="curve"/>
    </contour>
  </outline>
</glyph>
<glyph name="florin" format="2">
  <advance width="415"/>
  <unicode hex="0192"/>
  <outline>
    <contour>
      <point x="13" y="-156" type="line"/>
      <point x="42" y="-156" type="line" smooth="yes"/>
      <point x="91" y="-156"/>
      <point x="128" y="-144"/>
      <point x="152" y="-121" type="curve" smooth="yes"/>
      <point x="176" y="-98"/>
      <point x="192" y="-58"/>
      <point x="200" y="-2" type="curve" smooth="yes"/>
      <point x="253" y="355" type="line"/>
      <point x="371" y="355" type="line"/>
      <point x="371" y="420" type="line"/>
      <point x="263" y="420" type="line"/>
      <point x="285" y="556" type="line" smooth="yes"/>
      <point x="290" y="587"/>
      <point x="298" y="609"/>
      <point x="311" y="621" type="curve" smooth="yes"/>
      <point x="324" y="633"/>
      <point x="343" y="639"/>
      <point x="369" y="639" type="curve" smooth="yes"/>
      <point x="402" y="639" type="line"/>
      <point x="402" y="707" type="line"/>
      <point x="370" y="707" type="line" smooth="yes"/>
      <point x="322" y="707"/>
      <point x="285" y="695"/>
      <point x="261" y="671" type="curve" smooth="yes"/>
      <point x="237" y="647"/>
      <point x="220" y="609"/>
      <point x="212" y="555" type="curve" smooth="yes"/>
      <point x="191" y="420" type="line"/>
      <point x="94" y="420" type="line"/>
      <point x="94" y="355" type="line"/>
      <point x="181" y="355" type="line"/>
      <point x="128" y="-4" type="line" smooth="yes"/>
      <point x="123" y="-37"/>
      <point x="115" y="-59"/>
      <point x="102" y="-71" type="curve" smooth="yes"/>
      <point x="89" y="-83"/>
      <point x="69" y="-88"/>
      <point x="42" y="-88" type="curve" smooth="yes"/>
      <point x="13" y="-88" type="line"/>
    </contour>
  </outline>
</glyph>
<glyph name="lbar" format="2">
  <advance width="279"/>
  <unicode hex="019A"/>
  <outline>
    <component base="l"/>
    <contour>
      <point x="20" y="322" type="line"/>
      <point x="252" y="322" type="line"/>
      <point x="252" y="389" type="line"/>
      <point x="20" y="389" type="line"/>
    </contour>
  </outline>
</glyph>
<glyph name="oogonek" format="2">
  <advance width="517"/>
  <unicode hex="01EB"/>
  <outline>
    <contour>
      <point x="310" y="-217" type="curve"/>
      <point x="310" y="-155" type="line"/>
      <point x="254" y="-155"/>
      <point x="228" y="-152"/>
      <point x="193" y="-105" type="curve"/>
      <point x="308" y="-2" type="line"/>
      <point x="399" y="15"/>
      <point x="457" y="80"/>
      <point x="457" y="207" type="curve" smooth="yes"/>
      <point x="457" y="313" type="line" smooth="yes"/>
      <point x="457" y="461"/>
      <point x="378" y="526"/>
      <point x="260" y="526" type="curve" smooth="yes"/>
      <point x="138" y="526"/>
      <point x="60" y="461"/>
      <point x="60" y="313" type="curve" smooth="yes"/>
      <point x="60" y="207" type="line" smooth="yes"/>
      <point x="60" y="67"/>
      <point x="130" y="1"/>
      <point x="239" y="-5" type="curve"/>
      <point x="124" y="-100" type="line"/>
      <point x="133" y="-127"/>
      <point x="146" y="-149"/>
      <point x="165" y="-166" type="curve" smooth="yes"/>
      <point x="201" y="-199"/>
      <point x="233" y="-216"/>
    </contour>
    <contour>
      <point x="130" y="211" type="curve" smooth="yes"/>
      <point x="130" y="309" type="line" smooth="yes"/>
      <point x="130" y="423"/>
      <point x="180" y="463"/>
      <point x="260" y="463" type="curve" smooth="yes"/>
      <point x="338" y="463"/>
      <point x="387" y="423"/>
      <point x="387" y="309" type="curve" smooth="yes"/>
      <point x="387" y="211" type="line" smooth="yes"/>
      <point x="387" y="97"/>
      <point x="338" y="56"/>
      <point x="260" y="56" type="curve" smooth="yes"/>
      <point x="180" y="56"/>
      <point x="130" y="97"/>
    </contour>
  </outline>
</glyph>
<glyph name="breve" format="2">
  <advance width="512"/>
  <unicode hex="02D8"/>
  <outline>
    <contour>
      <point x="255" y="573" type="curve" smooth="yes"/>
      <point x="172" y="573"/>
      <point x="128" y="621"/>
      <point x="128" y="707" type="curve" smooth="yes"/>
      <point x="128" y="725" type="line"/>
      <point x="194" y="725" type="line"/>
      <point x="194" y="707" type="line" smooth="yes"/>
      <point x="194" y="657"/>
      <point x="214" y="633"/>
      <point x="255" y="633" type="curve" smooth="yes"/>
      <point x="296" y="633"/>
      <point x="316" y="657"/>
      <point x="316" y="707" type="curve" smooth="yes"/>
      <point x="316" y="725" type="line"/>
      <point x="382" y="725" type="line"/>
      <point x="382" y="707" type="line" smooth="yes"/>
      <point x="382" y="621"/>
      <point x="338" y="573"/>
    </contour>
  </outline>
</glyph>
<glyph name="ring" format="2">
  <advance width="512"/>
  <unicode hex="02DA"/>
  <outline>
    <contour>
      <point x="256" y="572" type="curve" smooth="yes"/>
      <point x="310" y="572"/>
      <point x="349" y="612"/>
      <point x="349" y="666" type="curve" smooth="yes"/>
      <point x="349" y="720"/>
      <point x="310" y="760"/>
      <point x="256" y="760" type="curve" smooth="yes"/>
      <point x="202" y="760"/>
      <point x="163" y="720"/>
      <point x="163" y="666" type="curve" smooth="yes"/>
      <point x="163" y="612"/>
      <point x="202" y="572"/>
    </contour>
    <contour>
      <point x="203" y="666" type="curve" smooth="yes"/>
      <point x="203" y="698"/>
      <point x="226" y="721"/>
      <point x="256" y="721" type="curve" smooth="yes"/>
      <point x="286" y="721"/>
      <point x="309" y="698"/>
      <point x="309" y="666" type="curve" smooth="yes"/>
      <point x="309" y="634"/>
      <point x="286" y="611"/>
      <point x="256" y="611" type="curve" smooth="yes"/>
      <point x="226" y="611"/>
      <point x="203" y="634"/>
    </contour>
  </outline>
</glyph>
<glyph name="ogonek" format="2">
  <advance width="512"/>
  <unicode hex="02DB"/>
  <outline>
    <contour>
      <point x="423" y="-217" type="curve"/>
      <point x="423" y="-155" type="line"/>
      <point x="367" y="-155"/>
      <point x="341" y="-152"/>
      <point x="306" y="-105" type="curve"/>
      <point x="423" y="0" type="line"/>
      <point x="423" y="10" type="line"/>
      <point x="358" y="10" type="line"/>
      <point x="358" y="0" type="line"/>
      <point x="237" y="-100" type="line"/>
      <point x="246" y="-127"/>
      <point x="259" y="-149"/>
      <point x="278" y="-166" type="curve" smooth="yes"/>
      <point x="314" y="-199"/>
      <point x="346" y="-216"/>
    </contour>
  </outline>
</glyph>
<glyph name="acutecomb" format="2">
  <unicode hex="0301"/>
  <anchor x="0" y="519" name="_top"/>
  <outline>
    <contour>
      <point x="45" y="714" type="line"/>
      <point x="131" y="714" type="line"/>
      <point x="8" y="586" type="line"/>
      <point x="-57" y="586" type="line"/>
    </contour>
  </outline>
</glyph>
<glyph name="circumflexcmb" format="2">
  <unicode hex="0302"/>
  <anchor x="0" y="519" name="_top"/>
  <outline>
    <contour>
      <point x="-29" y="723" type="line"/>
      <point x="28" y="723" type="line"/>
      <point x="137" y="575" type="line"/>
      <point x="74" y="575" type="line"/>
      <point x="0" y="673" type="line"/>
      <point x="-75" y="575" type="line"/>
      <point x="-138" y="575" type="line"/>
    </contour>
  </outline>
</glyph>
<glyph name="tildecomb" format="2">
  <unicode hex="0303"/>
  <anchor x="0" y="519" name="_top"/>
  <outline>
    <contour>
      <point x="-127" y="583" type="line"/>
      <point x="-99" y="613"/>
      <point x="-84" y="623"/>
      <point x="-58" y="623" type="curve" smooth="yes"/>
      <point x="-43" y="623"/>
      <point x="-28" y="618"/>
      <point x="-8" y="605" type="curve" smooth="yes"/>
      <point x="18" y="588"/>
      <point x="31" y="584"/>
      <point x="55" y="584" type="curve" smooth="yes"/>
      <point x="80" y="584"/>
      <point x="104" y="597"/>
      <point x="126" y="622" type="curve"/>
      <point x="126" y="684" type="line"/>
      <point x="98" y="654"/>
      <point x="82" y="644"/>
      <point x="58" y="644" type="curve" smooth="yes"/>
      <point x="38" y="644"/>
      <point x="25" y="652"/>
      <point x="5" y="664" type="curve" smooth="yes"/>
      <point x="-19" y="678"/>
      <point x="-34" y="684"/>
      <point x="-56" y="684" type="curve" smooth="yes"/>
      <point x="-84" y="684"/>
      <point x="-103" y="673"/>
      <point x="-127" y="645" type="curve"/>
    </contour>
  </outline>
</glyph>
<glyph name="brevecmb" format="2">
  <unicode hex="0306"/>
  <anchor x="0" y="519" name="_top"/>
  <outline>
    <contour>
      <point x="0" y="573" type="curve" smooth="yes"/>
      <point x="83" y="573"/>
      <point x="127" y="621"/>
      <point x="127" y="707" type="curve" smooth="yes"/>
      <point x="127" y="725" type="line"/>
      <point x="71" y="725" type="line"/>
      <point x="71" y="707" type="line" smooth="yes"/>
      <point x="71" y="657"/>
      <point x="41" y="623"/>
      <point x="0" y="623" type="curve" smooth="yes"/>
      <point x="-41" y="623"/>
      <point x="-71" y="657"/>
      <point x="-71" y="707" type="curve" smooth="yes"/>
      <point x="-71" y="725" type="line"/>
      <point x="-127" y="725" type="line"/>
      <point x="-127" y="707" type="line" smooth="yes"/>
      <point x="-127" y="621"/>
      <point x="-83" y="573"/>
    </contour>
  </outline>
</glyph>
<glyph name="ringcmb" format="2">
  <unicode hex="030A"/>
  <anchor x="0" y="519" name="_top"/>
  <outline>
    <contour>
      <point x="0" y="572" type="curve" smooth="yes"/>
      <point x="54" y="572"/>
      <point x="93" y="612"/>
      <point x="93" y="666" type="curve" smooth="yes"/>
      <point x="93" y="720"/>
      <point x="54" y="760"/>
      <point x="0" y="760" type="curve" smooth="yes"/>
      <point x="-54" y="760"/>
      <point x="-93" y="720"/>
      <point x="-93" y="666" type="curve" smooth="yes"/>
      <point x="-93" y="612"/>
      <point x="-54" y="572"/>
    </contour>
    <contour>
      <point x="-53" y="666" type="curve" smooth="yes"/>
      <point x="-53" y="698"/>
      <point x="-30" y="721"/>
      <point x="0" y="721" type="curve" smooth="yes"/>
      <point x="30" y="721"/>
      <point x="53" y="698"/>
      <point x="53" y="666" type="curve" smooth="yes"/>
      <point x="53" y="634"/>
      <point x="30" y="611"/>
      <point x="0" y="611" type="curve" smooth="yes"/>
      <point x="-30" y="611"/>
      <point x="-53" y="634"/>
    </contour>
  </outline>
</glyph>
<glyph name="cedillacmb" format="2">
  <unicode hex="0327"/>
  <anchor x="0" y="0" name="_bottom"/>
  <outline>
    <contour>
      <point x="193" y="-154" type="line"/>
      <point x="265" y="-154" type="line"/>
      <point x="319" y="12" type="line"/>
      <point x="257" y="12" type="line"/>
    </contour>
  </outline>
</glyph>
<glyph name="alpha" format="2">
  <advance width="644"/>
  <unicode hex="03B1"/>
  <outline>
    <contour>
      <point x="260" y="-6" type="curve" smooth="yes"/>
      <point x="319" y="-6"/>
      <point x="367" y="11"/>
      <point x="403" y="45" type="curve" smooth="yes"/>
      <point x="416" y="57"/>
      <point x="426" y="72"/>
      <point x="434" y="89" type="curve"/>
      <point x="441" y="79"/>
      <point x="448" y="70"/>
      <point x="456" y="62" type="curve" smooth="yes"/>
      <point x="489" y="31"/>
      <point x="533" y="16"/>
      <point x="588" y="15" type="curve"/>
      <point x="588" y="76" type="line"/>
      <point x="553" y="77"/>
      <point x="525" y="87"/>
      <point x="504" y="108" type="curve" smooth="yes"/>
      <point x="484" y="129"/>
      <point x="473" y="165"/>
      <point x="473" y="216" type="curve" smooth="yes"/>
      <point x="473" y="304" type="line" smooth="yes"/>
      <point x="473" y="355"/>
      <point x="484" y="391"/>
      <point x="504" y="412" type="curve" smooth="yes"/>
      <point x="525" y="432"/>
      <point x="553" y="442"/>
      <point x="588" y="443" type="curve"/>
      <point x="588" y="505" type="line"/>
      <point x="533" y="504"/>
      <point x="489" y="489"/>
      <point x="456" y="458" type="curve" smooth="yes"/>
      <point x="448" y="450"/>
      <point x="441" y="441"/>
      <point x="434" y="431" type="curve"/>
      <point x="426" y="448"/>
      <point x="416" y="463"/>
      <point x="403" y="475" type="curve" smooth="yes"/>
      <point x="367" y="509"/>
      <point x="319" y="526"/>
      <point x="260" y="526" type="curve" smooth="yes"/>
      <point x="199" y="526"/>
      <point x="151" y="509"/>
      <point x="115" y="475" type="curve" smooth="yes"/>
      <point x="79" y="441"/>
      <point x="60" y="387"/>
      <point x="60" y="313" type="curve" smooth="yes"/>
      <point x="60" y="207" type="line" smooth="yes"/>
      <point x="60" y="133"/>
      <point x="79" y="79"/>
      <point x="115" y="45" type="curve" smooth="yes"/>
      <point x="151" y="11"/>
      <point x="199" y="-6"/>
    </contour>
    <contour>
      <point x="165" y="91" type="curve" smooth="yes"/>
      <point x="142" y="114"/>
      <point x="130" y="154"/>
      <point x="130" y="211" type="curve" smooth="yes"/>
      <point x="130" y="309" type="line" smooth="yes"/>
      <point x="130" y="366"/>
      <point x="142" y="406"/>
      <point x="165" y="429" type="curve" smooth="yes"/>
      <point x="188" y="452"/>
      <point x="220" y="463"/>
      <point x="260" y="463" type="curve" smooth="yes"/>
      <point x="299" y="463"/>
      <point x="330" y="452"/>
      <point x="353" y="429" type="curve" smooth="yes"/>
      <point x="376" y="406"/>
      <point x="397" y="366"/>
      <point x="397" y="309" type="curve" smooth="yes"/>
      <point x="397" y="211" type="line" smooth="yes"/>
      <point x="397" y="154"/>
      <point x="376" y="114"/>
      <point x="353" y="91" type="curve" smooth="yes"/>
      <point x="330" y="68"/>
      <point x="299" y="56"/>
      <point x="260" y="56" type="curve" smooth="yes"/>
      <point x="220" y="56"/>
      <point x="188" y="68"/>
    </contour>
  </outline>
</glyph>
<glyph name="Ljecyr" format="2">
  <advance width="925"/>
  <unicode hex="0409"/>
  <outline>
    <component base="Elcyr"/>
    <contour>
      <point x="437" y="395" type="line"/>
      <point x="636" y="395" type="line" smooth="yes"/>
      <point x="773" y="395"/>
      <point x="858" y="307"/>
      <point x="858" y="201" type="curve" smooth="yes"/>
      <point x="858" y="68"/>
      <point x="776" y="0"/>
      <point x="636" y="0" type="curve" smooth="yes"/>
      <point x="437" y="0" type="line"/>
      <point x="437" y="68" type="line"/>
      <point x="630" y="68" type="line" smooth="yes"/>
      <point x="731" y="68"/>
      <point x="783" y="107"/>
      <point x="783" y="201" type="curve" smooth="yes"/>
      <point x="783" y="270"/>
      <point x="730" y="328"/>
      <point x="630" y="328" type="curve" smooth="yes"/>
      <point x="437" y="328" type="line"/>
    </contour>
  </outline>
</glyph>
<glyph name="Njecyr" format="2">
  <advance width="1005"/>
  <unicode hex="040A"/>
  <outline>
    <component base="H"/>
    <contour>
      <point x="517" y="0" type="line"/>
      <point x="716" y="0" type="line" smooth="yes"/>
      <point x="856" y="0"/>
      <point x="938" y="68"/>
      <point x="938" y="201" type="curve" smooth="yes"/>
      <point x="938" y="307"/>
      <point x="853" y="395"/>
      <point x="716" y="395" type="curve" smooth="yes"/>
      <point x="517" y="395" type="line"/>
      <point x="517" y="328" type="line"/>
      <point x="710" y="328" type="line" smooth="yes"/>
      <point x="810" y="328"/>
      <point x="863" y="270"/>
      <point x="863" y="201" type="curve" smooth="yes"/>
      <point x="863" y="107"/>
      <point x="811" y="68"/>
      <point x="710" y="68" type="curve" smooth="yes"/>
      <point x="517" y="68" type="line"/>
    </contour>
  </outline>
</glyph>
<glyph name="Gecyr" format="2">
  <advance width="519"/>
  <unicode hex="0413"/>
  <guideline x="316" y="0" angle="90" name="h1"/>
  <anchor x="316" y="773" name="top"/>
  <outline>
    <contour>
      <point x="82" y="0" type="line"/>
      <point x="157" y="0" type="line"/>
      <point x="157" y="640" type="line"/>
      <point x="511" y="640" type="line"/>
      <point x="511" y="707" type="line"/>
      <point x="82" y="707" type="line"/>
    </contour>
  </outline>
</glyph>
<glyph name="Decyr" format="2">
  <advance width="650"/>
  <unicode hex="0414"/>
  <outline>
    <contour>
      <point x="10" y="-170" type="line"/>
      <point x="85" y="-170" type="line"/>
      <point x="85" y="0" type="line"/>
      <point x="565" y="0" type="line"/>
      <point x="565" y="-170" type="line"/>
      <point x="640" y="-170" type="line"/>
      <point x="640" y="67" type="line"/>
      <point x="563" y="67" type="line"/>
      <point x="563" y="707" type="line"/>
      <point x="173" y="707" type="line"/>
      <point x="167" y="564" type="line" smooth="yes"/>
      <point x="159" y="377"/>
      <point x="118" y="67"/>
      <point x="56" y="67" type="curve"/>
      <point x="10" y="67" type="line"/>
    </contour>
    <contour>
      <point x="162" y="67" type="line"/>
      <point x="187" y="85"/>
      <point x="229" y="175"/>
      <point x="243" y="570" type="curve" smooth="yes"/>
      <point x="246" y="640" type="line"/>
      <point x="488" y="640" type="line"/>
      <point x="488" y="67" type="line"/>
    </contour>
  </outline>
</glyph>
<glyph name="Zhecyr" format="2">
  <advance width="989"/>
  <unicode hex="0416"/>
  <guideline x="223" y="0" angle="90" name="vertical"/>
  <guideline x="0" y="707" angle="0" name="horizontal"/>
  <guideline x="424" y="0" angle="90" name="vertical"/>
  <guideline x="0" y="707" angle="0" name="horizontal"/>
  <anchor x="416" y="707" name="top"/>
  <outline>
    <contour>
      <point x="10" y="0" type="line"/>
      <point x="97" y="0" type="line"/>
      <point x="350" y="328" type="line"/>
      <point x="457" y="328" type="line"/>
      <point x="457" y="0" type="line"/>
      <point x="532" y="0" type="line"/>
      <point x="532" y="328" type="line"/>
      <point x="639" y="328" type="line"/>
      <point x="892" y="0" type="line"/>
      <point x="979" y="0" type="line"/>
      <point x="687" y="386" type="line"/>
      <point x="947" y="707" type="line"/>
      <point x="858" y="707" type="line"/>
      <point x="612" y="395" type="line"/>
      <point x="532" y="395" type="line"/>
      <point x="532" y="707" type="line"/>
      <point x="457" y="707" type="line"/>
      <point x="457" y="395" type="line"/>
      <point x="377" y="395" type="line"/>
      <point x="131" y="707" type="line"/>
      <point x="42" y="707" type="line"/>
      <point x="302" y="386" type="line"/>
    </contour>
  </outline>
</glyph>
<glyph name="Zecyr" format="2">
  <advance width="590"/>
  <unicode hex="0417"/>
  <outline>
    <contour>
      <point x="62" y="189" type="line"/>
      <point x="137" y="189" type="line"/>
      <point x="137" y="181" type="line" smooth="yes"/>
      <point x="137" y="106"/>
      <point x="197" y="59"/>
      <point x="284" y="59" type="curve" smooth="yes"/>
      <point x="373" y="59"/>
      <point x="448" y="98"/>
      <point x="448" y="183" type="curve" smooth="yes"/>
      <point x="448" y="195" type="line" smooth="yes"/>
      <point x="448" y="287"/>
      <point x="382" y="328"/>
      <point x="291" y="328" type="curve" smooth="yes"/>
      <point x="192" y="328" type="line"/>
      <point x="192" y="394" type="line"/>
      <point x="285" y="394" type="line" smooth="yes"/>
      <point x="369" y="394"/>
      <point x="437" y="430"/>
      <point x="437" y="512" type="curve" smooth="yes"/>
      <point x="437" y="520" type="line" smooth="yes"/>
      <point x="437" y="609"/>
      <point x="374" y="649"/>
      <point x="286" y="649" type="curve" smooth="yes"/>
      <point x="198" y="649"/>
      <point x="137" y="601"/>
      <point x="137" y="527" type="curve" smooth="yes"/>
      <point x="137" y="519" type="line"/>
      <point x="62" y="519" type="line"/>
      <point x="62" y="527" type="line" smooth="yes"/>
      <point x="62" y="642"/>
      <point x="155" y="716"/>
      <point x="293" y="716" type="curve" smooth="yes"/>
      <point x="420" y="716"/>
      <point x="512" y="653"/>
      <point x="512" y="524" type="curve" smooth="yes"/>
      <point x="512" y="514" type="line" smooth="yes"/>
      <point x="512" y="446"/>
      <point x="469" y="385"/>
      <point x="403" y="364" type="curve"/>
      <point x="478" y="341"/>
      <point x="523" y="280"/>
      <point x="523" y="205" type="curve" smooth="yes"/>
      <point x="523" y="190" type="line" smooth="yes"/>
      <point x="523" y="59"/>
      <point x="415" y="-8"/>
      <point x="286" y="-8" type="curve" smooth="yes"/>
      <point x="152" y="-8"/>
      <point x="62" y="66"/>
      <point x="62" y="181" type="curve" smooth="yes"/>
    </contour>
  </outline>
</glyph>
<glyph name="Icyr" format="2">
  <advance width="679"/>
  <unicode hex="0418"/>
  <guideline x="323" y="0" angle="90" name="h1"/>
  <anchor x="323" y="773" name="top"/>
  <outline>
    <contour>
      <point x="82" y="707" type="line"/>
      <point x="157" y="707" type="line"/>
      <point x="157" y="139" type="line"/>
      <point x="522" y="707" type="line"/>
      <point x="597" y="707" type="line"/>
      <point x="597" y="0" type="line"/>
      <point x="522" y="0" type="line"/>
      <point x="522" y="569" type="line"/>
      <point x="157" y="0" type="line"/>
      <point x="82" y="0" type="line"/>
    </contour>
  </outline>
</glyph>
<glyph name="Elcyr" format="2">
  <advance width="569"/>
  <unicode hex="041B"/>
  <outline>
    <contour>
      <point x="117" y="707" type="line"/>
      <point x="487" y="707" type="line"/>
      <point x="487" y="0" type="line"/>
      <point x="412" y="0" type="line"/>
      <point x="412" y="640" type="line"/>
      <point x="187" y="640" type="line"/>
      <point x="153" y="192" type="line" smooth="yes"/>
      <point x="143" y="55"/>
      <point x="101" y="-8"/>
      <point x="20" y="-8" type="curve"/>
      <point x="20" y="67" type="line"/>
      <point x="51" y="67"/>
      <point x="67" y="111"/>
      <point x="77" y="225" type="curve" smooth="yes"/>
    </contour>
  </outline>
</glyph>
<glyph name="Ucyr" format="2">
  <advance width="511"/>
  <unicode hex="0423"/>
  <guideline x="248" y="0" angle="90" name="h1"/>
  <anchor x="248" y="773" name="top"/>
  <outline>
    <contour>
      <point x="7" y="707" type="line"/>
      <point x="88" y="707" type="line"/>
      <point x="247" y="286" type="line"/>
      <point x="423" y="707" type="line"/>
      <point x="504" y="707" type="line"/>
      <point x="248" y="96" type="line" smooth="yes"/>
      <point x="222" y="34"/>
      <point x="171" y="-8"/>
      <point x="122" y="-8" type="curve" smooth="yes"/>
      <point x="92" y="-8" type="line"/>
      <point x="92" y="62" type="line"/>
      <point x="109" y="62" type="line" smooth="yes"/>
      <point x="144" y="63"/>
      <point x="173" y="90"/>
      <point x="192" y="140" type="curve" smooth="yes"/>
      <point x="208" y="182" type="line"/>
    </contour>
  </outline>
</glyph>
<glyph name="Efcyr" format="2">
  <advance width="676"/>
  <unicode hex="0424"/>
  <guideline x="338" y="0" angle="90" name="h1"/>
  <anchor x="338" y="773" name="top"/>
  <outline>
    <contour>
      <point x="301" y="0" type="line"/>
      <point x="376" y="0" type="line"/>
      <point x="376" y="72" type="line"/>
      <point x="528" y="76"/>
      <point x="609" y="172"/>
      <point x="609" y="343" type="curve" smooth="yes"/>
      <point x="609" y="386" type="line" smooth="yes"/>
      <point x="609" y="556"/>
      <point x="527" y="652"/>
      <point x="376" y="656" type="curve"/>
      <point x="376" y="707" type="line"/>
      <point x="301" y="707" type="line"/>
      <point x="301" y="656" type="line"/>
      <point x="149" y="652"/>
      <point x="68" y="556"/>
      <point x="68" y="385" type="curve" smooth="yes"/>
      <point x="68" y="342" type="line" smooth="yes"/>
      <point x="68" y="172"/>
      <point x="150" y="76"/>
      <point x="301" y="72" type="curve"/>
    </contour>
    <contour>
      <point x="301" y="140" type="line"/>
      <point x="196" y="144"/>
      <point x="142" y="212"/>
      <point x="142" y="338" type="curve" smooth="yes"/>
      <point x="142" y="382" type="line" smooth="yes"/>
      <point x="142" y="516"/>
      <point x="196" y="584"/>
      <point x="301" y="588" type="curve"/>
    </contour>
    <contour>
      <point x="376" y="140" type="curve"/>
      <point x="376" y="588" type="line"/>
      <point x="481" y="584"/>
      <point x="535" y="516"/>
      <point x="535" y="390" type="curve" smooth="yes"/>
      <point x="535" y="346" type="line" smooth="yes"/>
      <point x="535" y="212"/>
      <point x="481" y="144"/>
    </contour>
  </outline>
</glyph>
<glyph name="Tsecyr" format="2">
  <advance width="616"/>
  <unicode hex="0426"/>
  <outline>
    <contour>
      <point x="531" y="-170" type="line"/>
      <point x="606" y="-170" type="line"/>
      <point x="606" y="67" type="line"/>
      <point x="529" y="67" type="line"/>
      <point x="529" y="707" type="line"/>
      <point x="454" y="707" type="line"/>
      <point x="454" y="67" type="line"/>
      <point x="157" y="67" type="line"/>
      <point x="157" y="707" type="line"/>
      <point x="82" y="707" type="line"/>
      <point x="82" y="0" type="line"/>
      <point x="531" y="0" type="line"/>
    </contour>
  </outline>
</glyph>
<glyph name="Checyr" format="2">
  <advance width="647"/>
  <unicode hex="0427"/>
  <outline>
    <contour>
      <point x="324" y="224" type="curve" smooth="yes"/>
      <point x="396" y="224"/>
      <point x="451" y="236"/>
      <point x="490" y="260" type="curve"/>
      <point x="490" y="0" type="line"/>
      <point x="565" y="0" type="line"/>
      <point x="565" y="707" type="line"/>
      <point x="490" y="707" type="line"/>
      <point x="490" y="341" type="line"/>
      <point x="454" y="307"/>
      <point x="396" y="290"/>
      <point x="324" y="290" type="curve" smooth="yes"/>
      <point x="222" y="290"/>
      <point x="156" y="361"/>
      <point x="156" y="467" type="curve" smooth="yes"/>
      <point x="156" y="707" type="line"/>
      <point x="80" y="707" type="line"/>
      <point x="80" y="460" type="line" smooth="yes"/>
      <point x="80" y="318"/>
      <point x="177" y="224"/>
    </contour>
  </outline>
</glyph>
<glyph name="Shacyr" format="2">
  <advance width="838"/>
  <unicode hex="0428"/>
  <guideline x="82" y="0" angle="90"/>
  <guideline x="158" y="0" angle="90"/>
  <guideline x="381" y="0" angle="90"/>
  <guideline x="457" y="0" angle="90"/>
  <guideline x="687" y="0" angle="90"/>
  <guideline x="763" y="0" angle="90"/>
  <guideline x="0" y="707" angle="0"/>
  <anchor x="677" y="695" name="top"/>
  <outline>
    <contour>
      <point x="83" y="0" type="line"/>
      <point x="756" y="0" type="line"/>
      <point x="756" y="707" type="line"/>
      <point x="681" y="707" type="line"/>
      <point x="681" y="67" type="line"/>
      <point x="457" y="67" type="line"/>
      <point x="457" y="707" type="line"/>
      <point x="382" y="707" type="line"/>
      <point x="382" y="67" type="line"/>
      <point x="158" y="67" type="line"/>
      <point x="158" y="707" type="line"/>
      <point x="83" y="707" type="line"/>
    </contour>
  </outline>
</glyph>
<glyph name="Shchacyr" format="2">
  <advance width="856"/>
  <unicode hex="0429"/>
  <outline>
    <contour>
      <point x="756" y="-170" type="line"/>
      <point x="831" y="-170" type="line"/>
      <point x="831" y="67" type="line"/>
      <point x="756" y="67" type="line"/>
      <point x="756" y="707" type="line"/>
      <point x="680" y="707" type="line"/>
      <point x="680" y="67" type="line"/>
      <point x="457" y="67" type="line"/>
      <point x="457" y="707" type="line"/>
      <point x="381" y="707" type="line"/>
      <point x="381" y="67" type="line"/>
      <point x="158" y="67" type="line"/>
      <point x="158" y="707" type="line"/>
      <point x="82" y="707" type="line"/>
      <point x="82" y="0" type="line"/>
      <point x="756" y="0" type="line"/>
    </contour>
  </outline>
</glyph>
<glyph name="Hardcyr" format="2">
  <advance width="735"/>
  <unicode hex="042A"/>
  <outline>
    <contour>
      <point x="0" y="707" type="line"/>
      <point x="267" y="707" type="line"/>
      <point x="267" y="415" type="line"/>
      <point x="446" y="415" type="line" smooth="yes"/>
      <point x="583" y="415"/>
      <point x="668" y="337"/>
      <point x="668" y="211" type="curve" smooth="yes"/>
      <point x="668" y="78"/>
      <point x="586" y="0"/>
      <point x="446" y="0" type="curve" smooth="yes"/>
      <point x="192" y="0" type="line"/>
      <point x="192" y="640" type="line"/>
      <point x="0" y="640" type="line"/>
    </contour>
    <contour>
      <point x="267" y="348" type="line"/>
      <point x="267" y="68" type="line"/>
      <point x="440" y="68" type="line" smooth="yes"/>
      <point x="541" y="68"/>
      <point x="593" y="117"/>
      <point x="593" y="211" type="curve" smooth="yes"/>
      <point x="593" y="300"/>
      <point x="540" y="348"/>
      <point x="440" y="348" type="curve" smooth="yes"/>
    </contour>
  </outline>
</glyph>
<glyph name="Softcyr" format="2">
  <advance width="625"/>
  <unicode hex="042C"/>
  <guideline x="306" y="0" angle="90" name="h1"/>
  <guideline x="306" y="0" angle="90" name="h1"/>
  <anchor x="306" y="773" name="top"/>
  <outline>
    <contour>
      <point x="82" y="0" type="line"/>
      <point x="336" y="0" type="line" smooth="yes"/>
      <point x="476" y="0"/>
      <point x="558" y="78"/>
      <point x="558" y="211" type="curve" smooth="yes"/>
      <point x="558" y="337"/>
      <point x="473" y="415"/>
      <point x="336" y="415" type="curve" smooth="yes"/>
      <point x="157" y="415" type="line"/>
      <point x="157" y="707" type="line"/>
      <point x="82" y="707" type="line"/>
    </contour>
    <contour>
      <point x="157" y="68" type="line"/>
      <point x="157" y="348" type="line"/>
      <point x="330" y="348" type="line" smooth="yes"/>
      <point x="430" y="348"/>
      <point x="483" y="300"/>
      <point x="483" y="211" type="curve" smooth="yes"/>
      <point x="483" y="117"/>
      <point x="431" y="68"/>
      <point x="330" y="68" type="curve" smooth="yes"/>
    </contour>
  </outline>
</glyph>
<glyph name="Ereversedcyr" format="2">
  <advance width="617"/>
  <unicode hex="042D"/>
  <guideline x="302" y="0" angle="90" name="h1"/>
  <anchor x="302" y="773" name="top"/>
  <outline>
    <contour>
      <point x="302" y="-8" type="curve" smooth="yes"/>
      <point x="454" y="-8"/>
      <point x="550" y="74"/>
      <point x="550" y="262" type="curve" smooth="yes"/>
      <point x="550" y="445" type="line" smooth="yes"/>
      <point x="550" y="633"/>
      <point x="454" y="716"/>
      <point x="302" y="716" type="curve" smooth="yes"/>
      <point x="158" y="716"/>
      <point x="61" y="629"/>
      <point x="61" y="500" type="curve" smooth="yes"/>
      <point x="61" y="497" type="line"/>
      <point x="136" y="497" type="line"/>
      <point x="136" y="500" type="line" smooth="yes"/>
      <point x="136" y="592"/>
      <point x="200" y="648"/>
      <point x="302" y="648" type="curve" smooth="yes"/>
      <point x="416" y="648"/>
      <point x="476" y="588"/>
      <point x="476" y="442" type="curve" smooth="yes"/>
      <point x="476" y="395" type="line"/>
      <point x="251" y="395" type="line"/>
      <point x="251" y="328" type="line"/>
      <point x="476" y="328" type="line"/>
      <point x="476" y="258" type="line" smooth="yes"/>
      <point x="476" y="126"/>
      <point x="418" y="60"/>
      <point x="301" y="60" type="curve" smooth="yes"/>
      <point x="199" y="60"/>
      <point x="136" y="116"/>
      <point x="136" y="208" type="curve" smooth="yes"/>
      <point x="136" y="212" type="line"/>
      <point x="63" y="212" type="line"/>
      <point x="63" y="208" type="line" smooth="yes"/>
      <point x="63" y="76"/>
      <point x="156" y="-8"/>
    </contour>
  </outline>
</glyph>
<glyph name="Yucyr" format="2">
  <advance width="794"/>
  <unicode hex="042E"/>
  <guideline x="430" y="0" angle="90" name="h1"/>
  <anchor x="430" y="773" name="top"/>
  <outline>
    <component base="O" xOffset="170"/>
    <contour>
      <point x="82" y="0" type="line"/>
      <point x="157" y="0" type="line"/>
      <point x="157" y="328" type="line"/>
      <point x="285" y="328" type="line"/>
      <point x="285" y="395" type="line"/>
      <point x="157" y="395" type="line"/>
      <point x="157" y="707" type="line"/>
      <point x="82" y="707" type="line"/>
    </contour>
  </outline>
</glyph>
<glyph name="Yacyr" format="2">
  <advance width="613"/>
  <unicode hex="042F"/>
  <guideline x="326" y="0" angle="90" name="h1"/>
  <anchor x="326" y="773" name="top"/>
  <outline>
    <contour>
      <point x="41" y="0" type="line"/>
      <point x="127" y="0" type="line"/>
      <point x="286" y="310" type="line"/>
      <point x="456" y="310" type="line"/>
      <point x="456" y="0" type="line"/>
      <point x="531" y="0" type="line"/>
      <point x="531" y="707" type="line"/>
      <point x="269" y="707" type="line" smooth="yes"/>
      <point x="203" y="707"/>
      <point x="151" y="689"/>
      <point x="113" y="655" type="curve" smooth="yes"/>
      <point x="75" y="621"/>
      <point x="56" y="571"/>
      <point x="56" y="508" type="curve" smooth="yes"/>
      <point x="56" y="457"/>
      <point x="69" y="416"/>
      <point x="96" y="383" type="curve" smooth="yes"/>
      <point x="123" y="350"/>
      <point x="159" y="328"/>
      <point x="207" y="317" type="curve"/>
    </contour>
    <contour>
      <point x="169" y="409" type="curve" smooth="yes"/>
      <point x="144" y="432"/>
      <point x="131" y="465"/>
      <point x="131" y="507" type="curve" smooth="yes"/>
      <point x="131" y="551"/>
      <point x="143" y="584"/>
      <point x="168" y="606" type="curve" smooth="yes"/>
      <point x="193" y="628"/>
      <point x="229" y="639"/>
      <point x="275" y="639" type="curve" smooth="yes"/>
      <point x="456" y="639" type="line"/>
      <point x="456" y="375" type="line"/>
      <point x="275" y="375" type="line" smooth="yes"/>
      <point x="229" y="375"/>
      <point x="194" y="386"/>
    </contour>
  </outline>
</glyph>
<glyph name="vecyr" format="2">
  <advance width="535"/>
  <unicode hex="0432"/>
  <outline>
    <contour>
      <point x="77" y="0" type="line"/>
      <point x="294" y="0" type="line" smooth="yes"/>
      <point x="404" y="0"/>
      <point x="459" y="49"/>
      <point x="459" y="147" type="curve" smooth="yes"/>
      <point x="459" y="217"/>
      <point x="431" y="269"/>
      <point x="380" y="285" type="curve"/>
      <point x="425" y="309"/>
      <point x="439" y="343"/>
      <point x="439" y="391" type="curve" smooth="yes"/>
      <point x="439" y="468"/>
      <point x="387" y="519"/>
      <point x="308" y="519" type="curve" smooth="yes"/>
      <point x="77" y="519" type="line"/>
    </contour>
    <contour>
      <point x="147" y="65" type="line"/>
      <point x="147" y="246" type="line"/>
      <point x="305" y="246" type="line" smooth="yes"/>
      <point x="361" y="246"/>
      <point x="380" y="200"/>
      <point x="380" y="154" type="curve" smooth="yes"/>
      <point x="380" y="98"/>
      <point x="350" y="65"/>
      <point x="300" y="65" type="curve" smooth="yes"/>
    </contour>
    <contour>
      <point x="147" y="311" type="line"/>
      <point x="147" y="454" type="line"/>
      <point x="290" y="454" type="line" smooth="yes"/>
      <point x="334" y="454"/>
      <point x="369" y="442"/>
      <point x="369" y="385" type="curve" smooth="yes"/>
      <point x="369" y="356"/>
      <point x="341" y="311"/>
      <point x="290" y="311" type="curve" smooth="yes"/>
    </contour>
  </outline>
</glyph>
<glyph name="icyr" format="2">
  <advance width="547"/>
  <unicode hex="0438"/>
  <guideline x="268" y="0" angle="90" name="h1"/>
  <anchor x="268" y="586" name="top"/>
  <outline>
    <contour>
      <point x="77" y="0" type="line"/>
      <point x="157" y="0" type="line"/>
      <point x="400" y="425" type="line"/>
      <point x="400" y="423" type="line"/>
      <point x="400" y="0" type="line"/>
      <point x="470" y="0" type="line"/>
      <point x="470" y="519" type="line"/>
      <point x="390" y="519" type="line"/>
      <point x="147" y="94" type="line"/>
      <point x="147" y="95" type="line"/>
      <point x="147" y="519" type="line"/>
      <point x="77" y="519" type="line"/>
    </contour>
  </outline>
</glyph>
<glyph name="kacyr" format="2">
  <advance width="500"/>
  <unicode hex="043A"/>
  <guideline x="235" y="261" angle="54.0652"/>
  <guideline x="225" y="248" angle="305.362"/>
  <guideline x="0" y="343" angle="0"/>
  <guideline x="0" y="258" angle="0"/>
  <guideline x="373" y="519" angle="235.397"/>
  <guideline x="486" y="0" angle="125.519"/>
  <guideline x="0" y="277" angle="0"/>
  <guideline x="373" y="519" angle="235.397"/>
  <guideline x="270" y="261" angle="54.0652"/>
  <guideline x="235" y="0" angle="90" name="h1"/>
  <anchor x="235" y="586" name="top"/>
  <outline>
    <contour>
      <point x="77" y="519" type="line"/>
      <point x="146" y="519" type="line"/>
      <point x="146" y="305" type="line"/>
      <point x="225" y="305" type="line"/>
      <point x="373" y="519" type="line"/>
      <point x="457" y="519" type="line"/>
      <point x="285" y="282" type="line"/>
      <point x="486" y="0" type="line"/>
      <point x="401" y="0" type="line"/>
      <point x="231" y="240" type="line"/>
      <point x="146" y="240" type="line"/>
      <point x="146" y="0" type="line"/>
      <point x="77" y="0" type="line"/>
    </contour>
  </outline>
</glyph>
<glyph name="emcyr" format="2">
  <advance width="667"/>
  <unicode hex="043C"/>
  <outline>
    <contour>
      <point x="77" y="519" type="line"/>
      <point x="149" y="519" type="line"/>
      <point x="334" y="174" type="line"/>
      <point x="518" y="519" type="line"/>
      <point x="590" y="519" type="line"/>
      <point x="590" y="0" type="line"/>
      <point x="520" y="0" type="line"/>
      <point x="520" y="405" type="line"/>
      <point x="358" y="80" type="line"/>
      <point x="310" y="80" type="line"/>
      <point x="147" y="405" type="line"/>
      <point x="147" y="404" type="line"/>
      <point x="147" y="0" type="line"/>
      <point x="77" y="0" type="line"/>
    </contour>
  </outline>
</glyph>
<glyph name="checyr" format="2">
  <advance width="535"/>
  <unicode hex="0447"/>
  <outline>
    <contour>
      <point x="77" y="519" type="line"/>
      <point x="147" y="519" type="line"/>
      <point x="147" y="348" type="line" smooth="yes"/>
      <point x="147" y="271"/>
      <point x="186" y="216"/>
      <point x="267" y="216" type="curve" smooth="yes"/>
      <point x="332" y="216"/>
      <point x="368" y="224"/>
      <point x="389" y="244" type="curve"/>
      <point x="389" y="519" type="line"/>
      <point x="458" y="519" type="line"/>
      <point x="458" y="0" type="line"/>
      <point x="389" y="0" type="line"/>
      <point x="389" y="178" type="line"/>
      <point x="357" y="162"/>
      <point x="307" y="154"/>
      <point x="249" y="154" type="curve" smooth="yes"/>
      <point x="135" y="154"/>
      <point x="77" y="228"/>
      <point x="77" y="338" type="curve" smooth="yes"/>
    </contour>
  </outline>
</glyph>
<glyph name="hardcyr" format="2">
  <advance width="589"/>
  <unicode hex="044A"/>
  <outline>
    <contour>
      <point x="0" y="519" type="line"/>
      <point x="217" y="519" type="line"/>
      <point x="217" y="311" type="line"/>
      <point x="380" y="311" type="line" smooth="yes"/>
      <point x="493" y="311"/>
      <point x="529" y="244"/>
      <point x="529" y="147" type="curve" smooth="yes"/>
      <point x="529" y="49"/>
      <point x="474" y="0"/>
      <point x="364" y="0" type="curve" smooth="yes"/>
      <point x="147" y="0" type="line"/>
      <point x="147" y="454" type="line"/>
      <point x="0" y="454" type="line"/>
    </contour>
    <contour>
      <point x="375" y="246" type="curve" smooth="yes"/>
      <point x="217" y="246" type="line"/>
      <point x="217" y="65" type="line"/>
      <point x="370" y="65" type="line" smooth="yes"/>
      <point x="420" y="65"/>
      <point x="450" y="98"/>
      <point x="450" y="154" type="curve" smooth="yes"/>
      <point x="450" y="200"/>
      <point x="431" y="246"/>
    </contour>
  </outline>
</glyph>
<glyph name="ereversedcyr" format="2">
  <advance width="515"/>
  <unicode hex="044D"/>
  <guideline x="0" y="519" angle="0" name="horizontal"/>
  <guideline x="251" y="0" angle="90" name="h1"/>
  <anchor x="251" y="586" name="top"/>
  <outline>
    <contour>
      <point x="252" y="-6" type="curve" smooth="yes"/>
      <point x="376" y="-6"/>
      <point x="455" y="59"/>
      <point x="455" y="207" type="curve" smooth="yes"/>
      <point x="455" y="313" type="line" smooth="yes"/>
      <point x="455" y="461"/>
      <point x="375" y="526"/>
      <point x="253" y="526" type="curve" smooth="yes"/>
      <point x="135" y="526"/>
      <point x="60" y="459"/>
      <point x="60" y="353" type="curve" smooth="yes"/>
      <point x="60" y="348" type="line"/>
      <point x="128" y="348" type="line"/>
      <point x="128" y="353" type="line" smooth="yes"/>
      <point x="128" y="423"/>
      <point x="174" y="463"/>
      <point x="250" y="463" type="curve" smooth="yes"/>
      <point x="334" y="463"/>
      <point x="385" y="423"/>
      <point x="385" y="312" type="curve" smooth="yes"/>
      <point x="385" y="311" type="line"/>
      <point x="216" y="311" type="line"/>
      <point x="216" y="246" type="line"/>
      <point x="385" y="246" type="line"/>
      <point x="385" y="211" type="line" smooth="yes"/>
      <point x="385" y="97"/>
      <point x="335" y="56"/>
      <point x="251" y="56" type="curve" smooth="yes"/>
      <point x="175" y="56"/>
      <point x="128" y="96"/>
      <point x="128" y="166" type="curve" smooth="yes"/>
      <point x="128" y="171" type="line"/>
      <point x="60" y="171" type="line"/>
      <point x="60" y="167" type="line" smooth="yes"/>
      <point x="60" y="61"/>
      <point x="136" y="-6"/>
    </contour>
  </outline>
</glyph>
<glyph name="eukrcyr" format="2">
  <advance width="515"/>
  <unicode hex="0454"/>
  <outline>
    <contour>
      <point x="263" y="-6" type="curve" smooth="yes"/>
      <point x="369" y="-6"/>
      <point x="455" y="55"/>
      <point x="455" y="167" type="curve" smooth="yes"/>
      <point x="455" y="171" type="line"/>
      <point x="387" y="171" type="line"/>
      <point x="387" y="167" type="line" smooth="yes"/>
      <point x="387" y="93"/>
      <point x="336" y="56"/>
      <point x="264" y="56" type="curve" smooth="yes"/>
      <point x="162" y="56"/>
      <point x="130" y="118"/>
      <point x="130" y="211" type="curve" smooth="yes"/>
      <point x="130" y="246" type="line"/>
      <point x="299" y="246" type="line"/>
      <point x="299" y="311" type="line"/>
      <point x="130" y="311" type="line"/>
      <point x="130" y="312" type="line" smooth="yes"/>
      <point x="130" y="403"/>
      <point x="164" y="463"/>
      <point x="265" y="463" type="curve" smooth="yes"/>
      <point x="336" y="463"/>
      <point x="387" y="425"/>
      <point x="387" y="352" type="curve" smooth="yes"/>
      <point x="387" y="348" type="line"/>
      <point x="455" y="348" type="line"/>
      <point x="455" y="352" type="line" smooth="yes"/>
      <point x="455" y="466"/>
      <point x="372" y="526"/>
      <point x="262" y="526" type="curve" smooth="yes"/>
      <point x="125" y="526"/>
      <point x="60" y="446"/>
      <point x="60" y="313" type="curve" smooth="yes"/>
      <point x="60" y="207" type="line" smooth="yes"/>
      <point x="60" y="74"/>
      <point x="126" y="-6"/>
    </contour>
  </outline>
</glyph>
<glyph name="dzhecyr" format="2">
  <advance width="536"/>
  <unicode hex="045F"/>
  <outline>
    <contour>
      <point x="77" y="519" type="line"/>
      <point x="147" y="519" type="line"/>
      <point x="147" y="65" type="line"/>
      <point x="389" y="65" type="line"/>
      <point x="389" y="519" type="line"/>
      <point x="459" y="519" type="line"/>
      <point x="459" y="0" type="line"/>
      <point x="303" y="0" type="line"/>
      <point x="303" y="-170" type="line"/>
      <point x="233" y="-170" type="line"/>
      <point x="233" y="0" type="line"/>
      <point x="77" y="0" type="line"/>
    </contour>
  </outline>
</glyph>
<glyph name="Gheupturncyrillic" format="2">
  <advance width="551"/>
  <unicode hex="0490"/>
  <outline>
    <component base="Gecyr"/>
    <contour>
      <point x="441" y="707" type="line"/>
      <point x="511" y="707" type="line"/>
      <point x="511" y="867" type="line"/>
      <point x="441" y="867" type="line"/>
    </contour>
  </outline>
</glyph>
<glyph name="ustraightcyrillic" format="2">
  <advance width="425"/>
  <unicode hex="04AF"/>
  <outline>
    <contour>
      <point x="250" y="108" type="line"/>
      <point x="250" y="-156" type="line"/>
      <point x="175" y="-156" type="line"/>
      <point x="175" y="109" type="line"/>
      <point x="4" y="519" type="line"/>
      <point x="85" y="519" type="line"/>
      <point x="212" y="210" type="line"/>
      <point x="340" y="519" type="line"/>
      <point x="421" y="519" type="line"/>
    </contour>
  </outline>
</glyph>
<glyph name="Germandbls" format="2">
  <advance width="664"/>
  <unicode hex="1E9E"/>
  <outline>
    <contour>
      <point x="262" y="-3" type="line"/>
      <point x="365" y="-3" type="line" smooth="yes"/>
      <point x="586" y="-3"/>
      <point x="604" y="66"/>
      <point x="604" y="199" type="curve" smooth="yes"/>
      <point x="604" y="327"/>
      <point x="521" y="401"/>
      <point x="377" y="401" type="curve"/>
      <point x="538" y="607" type="line"/>
      <point x="485" y="707"/>
      <point x="380" y="714"/>
      <point x="295" y="714" type="curve" smooth="yes"/>
      <point x="141" y="714"/>
      <point x="77" y="637"/>
      <point x="77" y="487" type="curve"/>
      <point x="77" y="1" type="line"/>
      <point x="146" y="1" type="line"/>
      <point x="146" y="496" type="line" smooth="yes"/>
      <point x="146" y="583"/>
      <point x="180" y="652"/>
      <point x="295" y="652" type="curve" smooth="yes"/>
      <point x="350" y="652"/>
      <point x="400" y="652"/>
      <point x="456" y="604" type="curve"/>
      <point x="303" y="403" type="line"/>
      <point x="303" y="330" type="line"/>
      <point x="382" y="330" type="line" smooth="yes"/>
      <point x="484" y="330"/>
      <point x="535" y="290"/>
      <point x="535" y="197" type="curve" smooth="yes"/>
      <point x="535" y="79"/>
      <point x="479" y="64"/>
      <point x="385" y="64" type="curve" smooth="yes"/>
      <point x="262" y="64" type="line"/>
    </contour>
  </outline>
</glyph>
<glyph name="emdash" format="2">
  <advance width="852"/>
  <unicode hex="2014"/>
  <outline>
    <contour>
      <point x="0" y="322" type="line"/>
      <point x="853" y="322" type="line"/>
      <point x="853" y="389" type="line"/>
      <point x="0" y="389" type="line"/>
    </contour>
  </outline>
</glyph>
<glyph name="quoteright" format="2">
  <advance width="176"/>
  <unicode hex="2019"/>
  <outline>
    <contour>
      <point x="54" y="471" type="line"/>
      <point x="122" y="535" type="line"/>
      <point x="122" y="707" type="line"/>
      <point x="54" y="707" type="line"/>
    </contour>
  </outline>
</glyph>
<glyph name="dagger" format="2">
  <advance width="539"/>
  <unicode hex="2020"/>
  <outline>
    <contour>
      <point x="232" y="-156" type="line"/>
      <point x="307" y="-156" type="line"/>
      <point x="307" y="390" type="line"/>
      <point x="463" y="390" type="line"/>
      <point x="463" y="457" type="line"/>
      <point x="307" y="457" type="line"/>
      <point x="307" y="707" type="line"/>
      <point x="232" y="707" type="line"/>
      <point x="232" y="457" type="line"/>
      <point x="77" y="457" type="line"/>
      <point x="77" y="390" type="line"/>
      <point x="232" y="390" type="line"/>
    </contour>
  </outline>
</glyph>
<glyph name="daggerdbl" format="2">
  <advance width="539"/>
  <unicode hex="2021"/>
  <outline>
    <contour>
      <point x="232" y="-156" type="line"/>
      <point x="307" y="-156" type="line"/>
      <point x="307" y="93" type="line"/>
      <point x="463" y="93" type="line"/>
      <point x="463" y="161" type="line"/>
      <point x="307" y="161" type="line"/>
      <point x="307" y="393" type="line"/>
      <point x="463" y="393" type="line"/>
      <point x="463" y="461" type="line"/>
      <point x="307" y="461" type="line"/>
      <point x="307" y="707" type="line"/>
      <point x="232" y="707" type="line"/>
      <point x="232" y="461" type="line"/>
      <point x="77" y="461" type="line"/>
      <point x="77" y="393" type="line"/>
      <point x="232" y="393" type="line"/>
      <point x="232" y="161" type="line"/>
      <point x="77" y="161" type="line"/>
      <point x="77" y="93" type="line"/>
      <point x="232" y="93" type="line"/>
    </contour>
  </outline>
</glyph>
<glyph name="bullet" format="2">
  <advance width="482"/>
  <unicode hex="2022"/>
  <outline>
    <contour>
      <point x="241" y="190" type="curve" smooth="yes"/>
      <point x="277" y="190"/>
      <point x="307" y="202"/>
      <point x="331" y="226" type="curve" smooth="yes"/>
      <point x="355" y="250"/>
      <point x="367" y="279"/>
      <point x="367" y="315" type="curve" smooth="yes"/>
      <point x="367" y="351"/>
      <point x="355" y="381"/>
      <point x="331" y="405" type="curve" smooth="yes"/>
      <point x="307" y="429"/>
      <point x="277" y="440"/>
      <point x="241" y="440" type="curve" smooth="yes"/>
      <point x="205" y="440"/>
      <point x="175" y="429"/>
      <point x="151" y="405" type="curve" smooth="yes"/>
      <point x="127" y="381"/>
      <point x="116" y="351"/>
      <point x="116" y="315" type="curve" smooth="yes"/>
      <point x="116" y="279"/>
      <point x="127" y="250"/>
      <point x="151" y="226" type="curve" smooth="yes"/>
      <point x="175" y="202"/>
      <point x="205" y="190"/>
    </contour>
  </outline>
</glyph>
<glyph name="guilsinglleft" format="2">
  <advance width="302"/>
  <unicode hex="2039"/>
  <outline>
    <contour>
      <point x="225" y="68" type="line"/>
      <point x="225" y="153" type="line"/>
      <point x="110" y="270" type="line"/>
      <point x="225" y="388" type="line"/>
      <point x="225" y="473" type="line"/>
      <point x="26" y="270" type="line"/>
    </contour>
  </outline>
</glyph>
<glyph name="Euro" format="2">
  <advance width="555"/>
  <unicode hex="20AC"/>
  <outline>
    <contour>
      <point x="299" y="-10" type="curve" smooth="yes"/>
      <point x="405" y="-10"/>
      <point x="477" y="51"/>
      <point x="487" y="153" type="curve"/>
      <point x="417" y="153" type="line"/>
      <point x="405" y="90"/>
      <point x="366" y="57"/>
      <point x="300" y="57" type="curve" smooth="yes"/>
      <point x="212" y="57"/>
      <point x="175" y="117"/>
      <point x="175" y="209" type="curve" smooth="yes"/>
      <point x="175" y="261" type="line"/>
      <point x="351" y="261" type="line"/>
      <point x="361" y="319" type="line"/>
      <point x="175" y="319" type="line"/>
      <point x="175" y="393" type="line"/>
      <point x="376" y="393" type="line"/>
      <point x="387" y="451" type="line"/>
      <point x="175" y="451" type="line"/>
      <point x="175" y="505" type="line" smooth="yes"/>
      <point x="175" y="589"/>
      <point x="210" y="649"/>
      <point x="298" y="649" type="curve" smooth="yes"/>
      <point x="368" y="649"/>
      <point x="405" y="616"/>
      <point x="417" y="554" type="curve"/>
      <point x="483" y="554" type="line"/>
      <point x="475" y="656"/>
      <point x="409" y="717"/>
      <point x="299" y="717" type="curve" smooth="yes"/>
      <point x="167" y="717"/>
      <point x="100" y="630"/>
      <point x="100" y="504" type="curve" smooth="yes"/>
      <point x="100" y="451" type="line"/>
      <point x="39" y="451" type="line"/>
      <point x="39" y="393" type="line"/>
      <point x="100" y="393" type="line"/>
      <point x="100" y="319" type="line"/>
      <point x="39" y="319" type="line"/>
      <point x="39" y="261" type="line"/>
      <point x="100" y="261" type="line"/>
      <point x="100" y="211" type="line" smooth="yes"/>
      <point x="100" y="77"/>
      <point x="163" y="-10"/>
    </contour>
  </outline>
</glyph>
<glyph name="minus" format="2">
  <advance width="524"/>
  <unicode hex="2212"/>
  <outline>
    <contour>
      <point x="60" y="249" type="line"/>
      <point x="464" y="249" type="line"/>
      <point x="464" y="316" type="line"/>
      <point x="60" y="316" type="line"/>
    </contour>
  </outline>
</glyph>
<glyph name="fi" format="2">
  <advance width="574"/>
  <unicode hex="FB01"/>
  <outline>
    <component base="f" xOffset="20"/>
    <component base="dotlessi" xOffset="335"/>
    <contour>
      <point x="418" y="604" type="line"/>
      <point x="492" y="604" type="line"/>
      <point x="492" y="696" type="line"/>
      <point x="418" y="696" type="line"/>
    </contour>
  </outline>
</glyph>
<glyph name="fl" format="2">
  <advance width="614"/>
  <unicode hex="FB02"/>
  <outline>
    <contour>
      <point x="117" y="0" type="line"/>
      <point x="187" y="0" type="line"/>
      <point x="187" y="464" type="line"/>
      <point x="296" y="464" type="line"/>
      <point x="296" y="519" type="line"/>
      <point x="187" y="519" type="line"/>
      <point x="187" y="581" type="line" smooth="yes"/>
      <point x="187" y="628"/>
      <point x="209" y="651"/>
      <point x="253" y="651" type="curve" smooth="yes"/>
      <point x="296" y="651" type="line"/>
      <point x="296" y="707" type="line"/>
      <point x="242" y="707" type="line" smooth="yes"/>
      <point x="203" y="707"/>
      <point x="172" y="695"/>
      <point x="150" y="672" type="curve" smooth="yes"/>
      <point x="128" y="649"/>
      <point x="117" y="618"/>
      <point x="117" y="578" type="curve" smooth="yes"/>
      <point x="117" y="519" type="line"/>
      <point x="51" y="519" type="line"/>
      <point x="51" y="464" type="line"/>
      <point x="117" y="464" type="line"/>
    </contour>
    <contour>
      <point x="540" y="0" type="curve" smooth="yes"/>
      <point x="589" y="0" type="line"/>
      <point x="589" y="63" type="line"/>
      <point x="547" y="63" type="line" smooth="yes"/>
      <point x="524" y="63"/>
      <point x="507" y="70"/>
      <point x="497" y="82" type="curve" smooth="yes"/>
      <point x="487" y="94"/>
      <point x="481" y="113"/>
      <point x="481" y="140" type="curve" smooth="yes"/>
      <point x="481" y="707" type="line"/>
      <point x="412" y="707" type="line"/>
      <point x="412" y="136" type="line" smooth="yes"/>
      <point x="412" y="92"/>
      <point x="422" y="58"/>
      <point x="444" y="35" type="curve" smooth="yes"/>
      <point x="466" y="12"/>
      <point x="498" y="0"/>
    </contour>
  </outline>
</glyph>
<glyph name="a.ss02" format="2">
  <advance width="508"/>
  <outline>
    <contour>
      <point x="228" y="-6" type="curve" smooth="yes"/>
      <point x="287" y="-6"/>
      <point x="339" y="15"/>
      <point x="367" y="70" type="curve"/>
      <point x="367" y="0" type="line"/>
      <point x="435" y="0" type="line"/>
      <point x="436" y="519" type="line"/>
      <point x="366" y="519" type="line"/>
      <point x="366" y="446" type="line"/>
      <point x="336" y="499"/>
      <point x="286" y="525"/>
      <point x="226" y="525" type="curve" smooth="yes"/>
      <point x="97" y="525"/>
      <point x="50" y="429"/>
      <point x="50" y="313" type="curve" smooth="yes"/>
      <point x="50" y="207" type="line" smooth="yes"/>
      <point x="50" y="93"/>
      <point x="101" y="-6"/>
    </contour>
    <contour>
      <point x="120" y="210" type="curve" smooth="yes"/>
      <point x="121" y="302"/>
      <point x="101" y="463"/>
      <point x="238" y="463" type="curve" smooth="yes"/>
      <point x="329" y="463"/>
      <point x="366" y="384"/>
      <point x="366" y="303" type="curve" smooth="yes"/>
      <point x="366" y="212" type="line" smooth="yes"/>
      <point x="366" y="128"/>
      <point x="333" y="56"/>
      <point x="239" y="56" type="curve" smooth="yes"/>
      <point x="149" y="56"/>
      <point x="119" y="131"/>
    </contour>
  </outline>
</glyph>
<glyph name="acutecomb.loclPLK" format="2">
  <outline>
    <contour>
      <point x="-40" y="586" type="line"/>
      <point x="25" y="586" type="line"/>
      <point x="74" y="714" type="line"/>
      <point x="-12" y="714" type="line"/>
    </contour>
  </outline>
</glyph>
<glyph name="caroncmb.alt" format="2">
  <outline>
    <contour>
      <point x="-32" y="533" type="line"/>
      <point x="32" y="595" type="line"/>
      <point x="32" y="707" type="line"/>
      <point x="-32" y="707" type="line"/>
    </contour>
  </outline>
</glyph>
<glyph name="eight.dnom" format="2">
  <advance width="335"/>
  <outline>
    <contour>
      <point x="167" y="-17" type="curve" smooth="yes"/>
      <point x="243" y="-17"/>
      <point x="305" y="29"/>
      <point x="305" y="109" type="curve" smooth="yes"/>
      <point x="305" y="125" type="line" smooth="yes"/>
      <point x="305" y="183"/>
      <point x="267" y="213"/>
      <point x="253" y="222" type="curve"/>
      <point x="290" y="249"/>
      <point x="296" y="287"/>
      <point x="296" y="308" type="curve" smooth="yes"/>
      <point x="296" y="320" type="line" smooth="yes"/>
      <point x="296" y="388"/>
      <point x="243" y="437"/>
      <point x="168" y="437" type="curve" smooth="yes"/>
      <point x="98" y="437"/>
      <point x="40" y="391"/>
      <point x="40" y="320" type="curve" smooth="yes"/>
      <point x="40" y="308" type="line" smooth="yes"/>
      <point x="40" y="264"/>
      <point x="62" y="237"/>
      <point x="83" y="222" type="curve"/>
      <point x="36" y="191"/>
      <point x="31" y="141"/>
      <point x="31" y="124" type="curve" smooth="yes"/>
      <point x="31" y="109" type="line" smooth="yes"/>
      <point x="31" y="30"/>
      <point x="92" y="-17"/>
    </contour>
    <contour>
      <point x="113" y="308" type="curve" smooth="yes"/>
      <point x="113" y="321" type="line" smooth="yes"/>
      <point x="113" y="347"/>
      <point x="128" y="375"/>
      <point x="168" y="375" type="curve" smooth="yes"/>
      <point x="204" y="375"/>
      <point x="224" y="351"/>
      <point x="224" y="321" type="curve" smooth="yes"/>
      <point x="224" y="308" type="line" smooth="yes"/>
      <point x="224" y="283"/>
      <point x="209" y="251"/>
      <point x="168" y="251" type="curve" smooth="yes"/>
      <point x="116" y="251"/>
      <point x="113" y="297"/>
    </contour>
    <contour>
      <point x="103" y="109" type="curve" smooth="yes"/>
      <point x="103" y="125" type="line" smooth="yes"/>
      <point x="103" y="162"/>
      <point x="127" y="189"/>
      <point x="168" y="189" type="curve" smooth="yes"/>
      <point x="227" y="189"/>
      <point x="232" y="143"/>
      <point x="232" y="125" type="curve" smooth="yes"/>
      <point x="232" y="109" type="line" smooth="yes"/>
      <point x="232" y="72"/>
      <point x="209" y="45"/>
      <point x="168" y="45" type="curve" smooth="yes"/>
      <point x="127" y="45"/>
      <point x="103" y="72"/>
    </contour>
  </outline>
</glyph>
<glyph name="five.tosf" format="2">
  <advance width="524"/>
  <outline>
    <contour>
      <point x="259" y="-172" type="curve" smooth="yes"/>
      <point x="373" y="-172"/>
      <point x="440" y="-100"/>
      <point x="440" y="22" type="curve" smooth="yes"/>
      <point x="440" y="89" type="line" smooth="yes"/>
      <point x="440" y="215"/>
      <point x="383" y="287"/>
      <point x="269" y="287" type="curve" smooth="yes"/>
      <point x="223" y="287"/>
      <point x="183" y="269"/>
      <point x="159" y="241" type="curve"/>
      <point x="159" y="450" type="line"/>
      <point x="429" y="450" type="line"/>
      <point x="429" y="519" type="line"/>
      <point x="91" y="519" type="line"/>
      <point x="91" y="147" type="line"/>
      <point x="156" y="147" type="line"/>
      <point x="172" y="193"/>
      <point x="209" y="219"/>
      <point x="259" y="219" type="curve" smooth="yes"/>
      <point x="331" y="219"/>
      <point x="365" y="175"/>
      <point x="365" y="85" type="curve" smooth="yes"/>
      <point x="365" y="28" type="line" smooth="yes"/>
      <point x="365" y="-61"/>
      <point x="330" y="-105"/>
      <point x="258" y="-105" type="curve" smooth="yes"/>
      <point x="190" y="-105"/>
      <point x="151" y="-68"/>
      <point x="151" y="-2" type="curve" smooth="yes"/>
      <point x="151" y="5" type="line"/>
      <point x="80" y="5" type="line"/>
      <point x="80" y="-8" type="line" smooth="yes"/>
      <point x="80" y="-110"/>
      <point x="147" y="-172"/>
    </contour>
  </outline>
</glyph>
<glyph name="four.dnom" format="2">
  <advance width="326"/>
  <outline>
    <contour>
      <point x="188" y="-11" type="line"/>
      <point x="260" y="-11" type="line"/>
      <point x="260" y="71" type="line"/>
      <point x="309" y="71" type="line"/>
      <point x="309" y="134" type="line"/>
      <point x="260" y="134" type="line"/>
      <point x="260" y="248" type="line"/>
      <point x="188" y="248" type="line"/>
      <point x="188" y="134" type="line"/>
      <point x="96" y="134" type="line"/>
      <point x="232" y="431" type="line"/>
      <point x="158" y="431" type="line"/>
      <point x="18" y="125" type="line"/>
      <point x="18" y="71" type="line"/>
      <point x="188" y="71" type="line"/>
    </contour>
  </outline>
</glyph>
<glyph name="gecyr.loclBGR" format="2">
  <advance width="474"/>
  <outline>
    <contour>
      <point x="237" y="-6" type="curve" smooth="yes"/>
      <point x="294" y="-6"/>
      <point x="340" y="8"/>
      <point x="374" y="35" type="curve" smooth="yes"/>
      <point x="408" y="62"/>
      <point x="425" y="99"/>
      <point x="425" y="145" type="curve" smooth="yes"/>
      <point x="425" y="150" type="line"/>
      <point x="357" y="150" type="line"/>
      <point x="357" y="146" type="line" smooth="yes"/>
      <point x="357" y="117"/>
      <point x="346" y="95"/>
      <point x="324" y="78" type="curve" smooth="yes"/>
      <point x="302" y="61"/>
      <point x="272" y="53"/>
      <point x="234" y="53" type="curve" smooth="yes"/>
      <point x="195" y="53"/>
      <point x="165" y="61"/>
      <point x="143" y="77" type="curve" smooth="yes"/>
      <point x="121" y="93"/>
      <point x="109" y="115"/>
      <point x="109" y="144" type="curve" smooth="yes"/>
      <point x="109" y="170"/>
      <point x="118" y="190"/>
      <point x="133" y="202" type="curve" smooth="yes"/>
      <point x="148" y="214"/>
      <point x="173" y="223"/>
      <point x="207" y="229" type="curve" smooth="yes"/>
      <point x="271" y="241" type="line" smooth="yes"/>
      <point x="322" y="250"/>
      <point x="359" y="265"/>
      <point x="382" y="286" type="curve" smooth="yes"/>
      <point x="405" y="307"/>
      <point x="417" y="338"/>
      <point x="417" y="378" type="curve" smooth="yes"/>
      <point x="417" y="423"/>
      <point x="400" y="459"/>
      <point x="367" y="486" type="curve" smooth="yes"/>
      <point x="334" y="513"/>
      <point x="289" y="526"/>
      <point x="236" y="526" type="curve" smooth="yes"/>
      <point x="179" y="526"/>
      <point x="133" y="513"/>
      <point x="99" y="487" type="curve" smooth="yes"/>
      <point x="65" y="461"/>
      <point x="48" y="426"/>
      <point x="48" y="384" type="curve" smooth="yes"/>
      <point x="48" y="378" type="line"/>
      <point x="116" y="378" type="line"/>
      <point x="116" y="381" type="line" smooth="yes"/>
      <point x="116" y="408"/>
      <point x="126" y="429"/>
      <point x="147" y="445" type="curve" smooth="yes"/>
      <point x="168" y="461"/>
      <point x="197" y="469"/>
      <point x="234" y="469" type="curve" smooth="yes"/>
      <point x="270" y="469"/>
      <point x="299" y="461"/>
      <point x="319" y="445" type="curve" smooth="yes"/>
      <point x="339" y="429"/>
      <point x="349" y="408"/>
      <point x="349" y="381" type="curve" smooth="yes"/>
      <point x="349" y="358"/>
      <point x="342" y="341"/>
      <point x="328" y="328" type="curve" smooth="yes"/>
      <point x="314" y="315"/>
      <point x="290" y="306"/>
      <point x="259" y="301" type="curve" smooth="yes"/>
      <point x="191" y="289" type="line" smooth="yes"/>
      <point x="140" y="279"/>
      <point x="102" y="264"/>
      <point x="78" y="242" type="curve" smooth="yes"/>
      <point x="54" y="220"/>
      <point x="42" y="189"/>
      <point x="42" y="148" type="curve" smooth="yes"/>
      <point x="42" y="99"/>
      <point x="60" y="61"/>
      <point x="95" y="34" type="curve" smooth="yes"/>
      <point x="130" y="7"/>
      <point x="178" y="-6"/>
    </contour>
  </outline>
</glyph>
<glyph name="hardcyr.loclBGR" format="2">
  <advance width="589"/>
  <outline>
    <contour>
      <point x="342" y="56" type="curve" smooth="yes"/>
      <point x="426" y="56"/>
      <point x="470" y="111"/>
      <point x="470" y="189" type="curve" smooth="yes"/>
      <point x="470" y="267"/>
      <point x="420" y="322"/>
      <point x="349" y="322" type="curve" smooth="yes"/>
      <point x="295" y="322"/>
      <point x="255" y="306"/>
      <point x="217" y="280" type="curve"/>
      <point x="217" y="182" type="line"/>
      <point x="217" y="107"/>
      <point x="264" y="56"/>
    </contour>
    <contour>
      <point x="147" y="182" type="curve"/>
      <point x="147" y="454" type="line"/>
      <point x="0" y="454" type="line"/>
      <point x="0" y="519" type="line"/>
      <point x="217" y="519" type="line"/>
      <point x="217" y="354" type="line"/>
      <point x="255" y="376"/>
      <point x="297" y="387"/>
      <point x="351" y="387" type="curve" smooth="yes"/>
      <point x="467" y="387"/>
      <point x="549" y="317"/>
      <point x="549" y="195" type="curve" smooth="yes"/>
      <point x="549" y="80"/>
      <point x="475" y="-6"/>
      <point x="336" y="-6" type="curve" smooth="yes"/>
      <point x="221" y="-6"/>
      <point x="147" y="71"/>
    </contour>
  </outline>
</glyph>
